<?xml version="1.0" standalone="no"?>
<!DOCTYPE svg PUBLIC "-//W3C//DTD SVG 1.1//EN" "http://www.w3.org/Graphics/SVG/1.1/DTD/svg11.dtd" >
<svg xmlns="http://www.w3.org/2000/svg">
<metadata></metadata>
<defs>
<font id="agent_redregular" horiz-adv-x="2048" >
<font-face units-per-em="2048" ascent="1638" descent="-410" />
<missing-glyph horiz-adv-x="1171" />
<glyph />
<glyph />
<glyph unicode="&#xd;" />
<glyph unicode=" "  horiz-adv-x="1171" />
<glyph unicode="&#x09;" horiz-adv-x="1171" />
<glyph unicode="&#xa0;" horiz-adv-x="1171" />
<glyph unicode="!" horiz-adv-x="1280" d="M164 -115q0 121 76.5 213t195.5 125v31l-207 -4l17 1427l520 -14l16 -199l189 -6l106 -1399l-213 -4q14 -27 25 -53q100 -41 162.5 -126.5t62.5 -194.5q0 -147 -109.5 -249t-263.5 -102q-119 0 -215 64.5t-135 169.5q-100 41 -163.5 127t-63.5 194zM225 -115 q0 -119 92.5 -203.5t219.5 -84.5q129 0 220 84.5t91 203.5t-91 204t-220 85q-127 0 -219.5 -85t-92.5 -204zM291 313l514 11l-96 1280l-404 10z" />
<glyph unicode="&#x22;" horiz-adv-x="1568" d="M145 1702l562 -12l-2 -7l514 -24l-33 -193l237 -12l-155 -936l-240 41l-29 176l-176 29l-8 55l-43 -291l-283 72l-24 158l-180 47zM217 1638l123 -784l176 -45l119 821zM676 1491l31 -2l-17 98zM748 1620l129 -803l135 -22l135 807z" />
<glyph unicode="#" horiz-adv-x="2093" d="M170 61l23 433l206 16l4 180l-210 -6l12 461l258 8l-2 354l446 47l2 -225l95 10v230l393 24l14 -217l191 13l14 -199l61 2v-211l205 6l2 -473l-176 -4l2 -117l199 15l14 -453l-219 -14l20 -281l-507 -102v245l-93 -18v-193l-444 -59l-2 231l-203 -26v125l-100 -6l12 219z M236 127l299 18l2 -338l321 43l-2 316l215 14l2 -342l381 76l-20 289l221 14l-10 330l-234 -19l-18 246l225 4l-2 350l-248 -8l-29 408l-274 -17l2 -401l-219 -6l-2 383l-324 -35l4 -358l-262 -9l-8 -337l272 6l2 -295l-278 -23zM852 762l217 4v-264l-215 -19z" />
<glyph unicode="$" horiz-adv-x="1820" d="M164 274l86 332q127 -66 209 -98l-2 4q-229 111 -230 330q0 29 4 53q33 176 107 268q80 102 233 135l9 134l376 63l17 -170q289 -18 448 -186l-16 -64q133 -49 221 -141l-78 -309q-55 14 -164 39q27 -37 43 -82q111 -55 162 -125q60 -78 66 -201q18 -358 -340 -434 l-17 -150l-495 -59l-4 192q-49 8 -99 25l-102 -12l-2 57q-141 74 -227 195l6 20q-131 72 -211 184zM231 287q61 -86 178 -147.5t244 -78.5l4 -174l381 45l17 144q59 14 119 30q96 35 149 103q74 92 66 248q-8 143 -101 217q-70 57 -297 141l2 113q51 10 99 10q61 0 206 -35 l56 217q-137 143 -436 146l-17 157l-264 -45l-8 -131q-158 -23 -231.5 -106.5t-104.5 -255.5q-4 -20 -4 -41q0 -106 73 -189q96 -106 295 -139l2 -113q-141 -6 -368 113zM575 854q0 63 66 74l6 -148q-72 4 -72 74zM1018 494q37 0 61.5 -20.5t24.5 -51.5q0 -29 -23.5 -49.5 t-56.5 -22.5z" />
<glyph unicode="%" horiz-adv-x="2988" d="M135 1128q0 221 155.5 378t377.5 157q147 0 274 -76q121 -72 191 -196q104 -59 174 -156l174 442l563 11l-74 -211l279 6l-316 -885q88 33 183 33q145 0 272 -76q119 -74 192 -197q123 -74 197 -194q76 -128 76 -275q0 -221 -155.5 -377.5t-377.5 -156.5 q-147 0 -271 73.5t-194 198.5q-125 70 -198 195l-166 -461l-635 2l80 205h-285l326 829q-51 -10 -105 -10q-145 0 -268 75t-196 197q-123 74 -198 198t-75 271zM197 1128q0 -197 138 -336t333 -139q197 0 335 139t138 336q0 195 -138.5 334.5t-334.5 139.5 q-195 0 -333 -139.5t-138 -334.5zM535 1104q0 66 45 113t108 47t108.5 -47t45.5 -113q0 -68 -45 -115t-109 -47q-63 0 -108 47t-45 115zM741 -371l502 -2l713 1997l-434 -8zM1642 96q0 -197 138.5 -336t335.5 -139q195 0 333 139t138 336q0 195 -138.5 334t-332.5 139 q-197 0 -335.5 -139t-138.5 -334zM1980 72q0 66 45.5 112.5t108.5 46.5t108.5 -46.5t45.5 -112.5q0 -68 -45 -115t-109 -47q-63 0 -108.5 47t-45.5 115z" />
<glyph unicode="&#x26;" horiz-adv-x="2166" d="M115 1141q0 248 184 423t442 175q172 0 318.5 -81t224.5 -218q133 -74 211 -210t78 -294q0 -115 -43 -219l313 -203l-45 -43l250 -162l-209 -196l213 -260l-389 -412l-180 231l-25 -26l-49 63q-31 -31 -94 -88q-207 -172 -457 -172q-246 0 -391 172q-35 41 -59 88 q-84 45 -146 117q-113 133 -112 315q0 289 239 504q-127 82 -200.5 212t-73.5 284zM176 1141q0 -160 89 -290t235 -196q-27 -18 -51 -41q-238 -199 -238 -471q0 -162 98 -276q127 -152 346 -152q225 0 416 158l47 45l119 111l227 -289l301 319l-215 265l193 180l-242 158 l-225 -170l-176 233q207 162 207 416q0 221 -166 378.5t-400 157.5q-236 0 -400.5 -157.5t-164.5 -378.5zM539 1081q0 80 59 136.5t143 56.5t143.5 -56.5t59.5 -136.5q0 -78 -59.5 -134t-143.5 -56t-143 56.5t-59 133.5zM584 240q0 78 55 132t133 54q80 0 135.5 -54 t55.5 -132q0 -76 -55.5 -130.5t-135.5 -54.5q-78 0 -133 54.5t-55 130.5z" />
<glyph unicode="'" horiz-adv-x="1081" d="M158 1702l561 -12l-29 -199l234 -6l-140 -957l-280 72l-25 158l-180 47zM229 1638l123 -784l176 -45l119 821z" />
<glyph unicode="(" horiz-adv-x="1546" d="M158 629q-23 528 235 815q252 283 731 282l-2 -219q98 14 207 15l-6 -498q-283 -49 -381 -195q-86 -123 -88 -419q0 -111 76 -224q109 -82 246 -147l2 -90q92 -61 202 -115l11 -530q-539 129 -809 483q-403 313 -424 842zM219 631q18 -465 346 -758q235 -209 559 -287 l-8 414q-225 106 -366 258q-164 176 -162 356q2 311 90 453q104 166 381 213l4 385q-408 0 -631 -260q-233 -274 -213 -774z" />
<glyph unicode=")" horiz-adv-x="1523" d="M143 -492l11 531q238 115 376 260q152 158 150 315q0 231 -47 349q-88 39 -217 61l-2 150q-82 35 -203 55l-4 497q547 0 794 -364q404 -274 377 -938q-20 -496 -377 -803q-260 -223 -653 -317l6 268q-102 -39 -211 -64zM207 -414q324 78 557 287q330 293 348 758 q20 500 -213 774q-223 260 -631 260l4 -385q276 -47 379 -213q88 -141 90 -453q2 -180 -161 -356q-141 -152 -365 -258z" />
<glyph unicode="*" horiz-adv-x="1581" d="M156 766l127 313l231 -100l31 233l227 35l53 -209l166 111l170 -109l-131 -204v-2l166 110l170 -108l-154 -238l213 -135l-149 -238l-184 80l18 -178l-297 -72l-31 183l-102 -101l-258 135l53 70l-258 135l145 191zM233 797l224 -107l-148 -192l154 -80l153 151l41 -233 l181 43l-23 229l232 -100l88 141l-213 135l153 238l-84 53l-205 -135l-61 238l-127 -19l-35 -268l-248 106z" />
<glyph unicode="+" horiz-adv-x="1648" d="M154 444l61 478l272 8l-2 268l439 66l10 -236l194 31l5 -113l94 4l26 -211l179 6l63 -473l-336 -10l17 -432l-478 -47l-2 225l-202 -20l-2 256l-134 -4l29 211zM225 508l326 10l4 -463l352 35l-16 436l330 11l-47 350l-297 -8l-11 313l-317 -47v-275l-279 -8z" />
<glyph unicode="," horiz-adv-x="1261" d="M203 -25q0 129 95 218.5t228 89.5q227 0 301 -217q117 -33 179 -144q53 -96 53 -233q0 -166 -72 -287q-76 -131 -184 -115l-232 15q14 78 54 178q-16 6 -33 12l-225 14q14 78 53 179q-96 33 -156.5 111.5t-60.5 178.5zM264 -25q0 -102 77 -173.5t185 -71.5q18 0 39 2 q0 -96 -94 -86q-12 -25 -31 -82l166 -10q94 -16 142 102q44 112 40 319q-2 102 -78.5 174t-183.5 72q-109 0 -185.5 -71.5t-76.5 -174.5z" />
<glyph unicode="-" horiz-adv-x="1951" d="M207 403l6 652l1296 -6l11 -205h194l31 -656l-1333 11l2 202zM268 465l1207 -10l-25 532l-1178 6z" />
<glyph unicode="." horiz-adv-x="1212" d="M190 -33q0 131 92.5 224.5t221.5 93.5q104 0 186 -61.5t113 -157.5q96 -31 157.5 -114.5t61.5 -189.5q0 -129 -91 -222t-222 -93q-104 0 -186.5 61.5t-112.5 157.5q-96 31 -158 114t-62 187zM252 -33q0 -104 73.5 -179t178.5 -75q104 0 178 75t74 179q0 106 -74 181 t-178 75t-178 -74.5t-74 -181.5z" />
<glyph unicode="/" horiz-adv-x="1820" d="M111 -432l829 2109l563 11l-73 -211l278 6l-758 -2122l-635 2l80 205h-284zM201 -371l501 -2l713 1997l-434 -8z" />
<glyph unicode="0" horiz-adv-x="2883" d="M150 588q0 485 348 829t841 344q283 0 535 -125q242 -121 407 -333q211 -164 330 -402q123 -244 123 -518q0 -487 -349 -831.5t-841 -344.5q-283 0 -534 125q-242 121 -408 334q-211 164 -331.5 404.5t-120.5 517.5zM211 588q0 -463 330.5 -788.5t797.5 -325.5t798 325.5 t331 788.5q0 461 -331 786.5t-798 325.5t-797.5 -325.5t-330.5 -786.5zM866 629q0 188 135.5 323t325.5 135t325.5 -135t135.5 -323q0 -190 -135 -325.5t-326 -135.5q-190 0 -325.5 135t-135.5 326zM1133 424q0 -84 32 -162q78 -33 162 -33q166 0 282.5 117t116.5 283 q0 82 -32 159q-78 33 -162 33q-166 0 -282.5 -116.5t-116.5 -280.5z" />
<glyph unicode="1" horiz-adv-x="1775" d="M205 621l28 505l308 564l774 41l6 -215l199 10l51 -2151l-848 -10l10 207l-215 -2l45 862l-153 -16l12 229zM270 690l369 39l-55 -1098l719 11l-48 2023l-677 -35l-283 -520z" />
<glyph unicode="2" horiz-adv-x="2025" d="M141 1010q0 545 432 649q238 55 420 55q403 0 543 -272q246 -125 276 -471q4 -43 5 -86q0 -332 -248 -557h4l39 -213l166 8l106 -594l-1515 -176q6 129 16 229l-221 -24q23 449 102.5 657.5t292.5 372.5l-194 -2q-16 109 -19 207l-186 -2q-18 115 -19 219zM199 1022 q0 -84 12 -170l401 8q-6 31 -6 62q0 109 62.5 182.5t144.5 73.5q207 0 207 -154q0 -78 -53.5 -169t-122.5 -148q-258 -160 -365 -267q-129 -129 -182 -309q-51 -170 -68 -504l1379 162l-86 475l-631 -31q-12 53 153 152q229 137 326 240q180 195 180 465q0 41 -4 81 q-43 483 -551 484q-174 0 -407 -56q-389 -94 -389 -577z" />
<glyph unicode="3" horiz-adv-x="2009" d="M145 20l340 316q170 -74 179 -78q123 -47 206 -47q106 0 160 74q2 6 2 14h-90q-8 -2 -211 -16l-6 219q-53 -4 -199 -15l-12 422l2 2h-2l-4 217l-201 -12l-10 578l1030 12l84 -207l121 2l162 -403l-242 -322q72 -63 119 -143q283 -172 291 -567q6 -262 -187 -474 q-170 -186 -409 -256q-78 -12 -152 -12q-217 0 -399 98q-172 92 -287 256q-186 131 -285 342zM219 6q84 -178 260 -293q190 -123 430 -123q70 0 140 11q217 63 372 235q172 192 176 432q-16 272 -141 416q-111 125 -356 201l321 428l-133 332l-928 -13l9 -450l540 28 l-334 -325l11 -332q154 12 190 12q322 0 322 -219q0 -39 -11 -86q-72 -111 -215 -110q-115 0 -374 114z" />
<glyph unicode="4" horiz-adv-x="2293" d="M133 299l152 1214l549 25l-27 -215l147 6l4 281l572 90v-238l205 33l2 -555l129 4l32 -209l173 4l92 -585l-391 -4l4 -728l-689 -94l13 236l-217 -31l28 571l-573 -10l27 209zM203 362l784 13l-39 -770l561 76l-4 735l381 4l-71 461l-342 -9l-5 756l-448 -72l-12 -704 h-318l74 621l-424 -19z" />
<glyph unicode="5" horiz-adv-x="1859" d="M170 537l39 1128l1094 66l-3 -218l207 13l-4 -512l-168 -29q33 -39 58 -90q293 -129 297 -696q4 -473 -191 -666q-164 -162 -561 -186q-311 -18 -463 254q-152 76 -231 260q-72 162 -72 366q0 51 4 103l201 51l4 129zM229 201q0 -244 119 -410q139 -193 381 -178 q371 23 514 168q170 171 180 622q-23 676 -440 676q-123 0 -307 -57l-6 154l567 94l4 395l-973 -57l-35 -1018l357 -45q8 115 53 166q37 41 115 53q117 -8 158.5 -66.5t41.5 -210.5q-20 -193 -73 -245q-23 -25 -129 -49q-12 -2 -25 -3q-135 0 -190 168l-308 -77 q-4 -39 -4 -80zM651 297q45 -53 92 -45q31 6 84 22zM854 303q25 43 39 154q-29 -41 -39 -154z" />
<glyph unicode="6" horiz-adv-x="1970" d="M129 508q0 344 190 645q156 246 523 580l186 -222l19 17l329 -389q-113 -90 -164 -138q178 -86 293 -253q154 -102 245 -272.5t91 -369.5q0 -313 -211 -535t-512 -222q-186 0 -352 92q-158 88 -266 244q-281 193 -342 536q-29 152 -29 287zM190 510q0 -131 27 -279 q49 -264 245.5 -440t450.5 -176q274 0 468 203.5t194 492.5t-193.5 493t-468.5 204q-59 0 -118 -11q43 115 108 193q51 59 180 162l-247 293q-330 -299 -471 -531q-174 -281 -175 -604zM631 295q0 119 80 203t190 84q113 0 191.5 -84t78.5 -203q0 -121 -78.5 -205 t-191.5 -84q-111 0 -190.5 84t-79.5 205zM897 90q0 -12 2 -22h2q86 0 147.5 65.5t61.5 161.5v20h-4q-84 0 -146.5 -65.5t-62.5 -159.5z" />
<glyph unicode="7" horiz-adv-x="1847" d="M123 1137l110 538l1047 25l188 -205h17l239 -260q-250 -399 -360 -938q-68 -340 -92 -850l-692 -129q10 127 22 248l-227 -43q70 870 233 1409h-280l43 205h-248zM199 1198l571 -2q-242 -541 -328 -1597l566 104q23 479 90 813q106 537 344 918l-189 204l-968 -22z" />
<glyph unicode="8" horiz-adv-x="2148" d="M164 270q0 301 256 506q-119 156 -119 346q0 262 214 444.5t509 182.5q201 0 371 -89t264 -239q291 -188 291 -503q0 -225 -164 -400q196 -194 196 -452q0 -291 -237.5 -492t-568.5 -201q-221 0 -409.5 96.5t-295.5 258.5q-307 207 -307 542zM225 270q0 -262 219.5 -446 t526.5 -184q309 0 527 184t218 446q0 266 -225 453q193 164 192 399q0 233 -193.5 399.5t-465.5 166.5q-274 0 -468 -166t-194 -400q0 -201 148 -356q-285 -190 -285 -496zM719 1018q0 88 69.5 149.5t167.5 61.5t167 -61.5t69 -149.5t-68.5 -149.5t-167.5 -61.5 q-98 0 -167.5 61.5t-69.5 149.5zM758 281q0 94 73.5 160.5t178.5 66.5q104 0 177 -66.5t73 -160.5t-73 -161t-177 -67t-178 66.5t-74 161.5zM1001 872q80 18 115 86q-80 -18 -115 -86zM1030 115q131 12 164 127q-131 -12 -164 -127z" />
<glyph unicode="9" horiz-adv-x="1992" d="M141 948q0 313 211 535.5t512 222.5q186 0 353 -92q158 -88 266 -244q279 -192 342 -536q29 -152 28 -287q0 -344 -190 -645q-156 -246 -522 -580l-189 221l-16 -16l-330 389q113 90 164 137q-180 86 -293 254q-156 102 -246 272.5t-90 368.5zM203 948 q0 -289 193.5 -492.5t467.5 -203.5q59 0 119 10q-43 -115 -109 -192q-53 -59 -180 -162l248 -293q330 299 471 530q174 281 174 605q1 131 -26 278q-49 264 -246 440.5t-451 176.5q-274 0 -467.5 -204t-193.5 -493zM606 967q0 119 79 202.5t192 83.5q111 0 190.5 -83.5 t79.5 -202.5q0 -121 -80 -205t-190 -84q-113 0 -192 84t-79 205zM872 739h5q84 0 146 66t62 162q0 10 -2 20h-2q-86 0 -147.5 -65.5t-61.5 -159.5v-23z" />
<glyph unicode=":" horiz-adv-x="1224" d="M190 279q0 111 70 197.5t176 109.5q-8 18 -14 37q-96 31 -158.5 113.5t-62.5 189.5q0 129 92 222t221 93q104 0 186 -61.5t113 -157.5q96 -31 157.5 -114t61.5 -187q0 -113 -68.5 -200t-175.5 -109q8 -18 15 -37q96 -31 157.5 -114t61.5 -187q0 -131 -91 -224.5 t-222 -93.5q-102 0 -184.5 61.5t-112.5 157.5q-96 31 -159 114t-63 190zM252 279q0 -106 74.5 -181t177.5 -75q104 0 178 75t74 181q0 104 -74 178.5t-178 74.5q-102 0 -177 -74.5t-75 -178.5zM262 926q0 -106 75 -181t177 -75q104 0 178 75t74 181q0 104 -74 179t-178 75 q-102 0 -177 -75t-75 -179z" />
<glyph unicode=";" horiz-adv-x="1239" d="M190 283q0 111 74 194.5t185 106.5q-8 18 -15 39q-98 31 -159.5 113.5t-61.5 189.5q0 129 92 222t221 93q104 0 186.5 -61.5t112.5 -157.5q96 -31 157.5 -114t61.5 -187q0 -113 -68.5 -199t-174.5 -110q10 -18 16 -39q117 -33 178 -144q53 -96 54 -231q0 -168 -72 -289 q-78 -131 -184 -115l-232 15q14 78 51 178q-14 6 -30 12l-226 15q14 78 52 178q-94 33 -156 111.5t-62 179.5zM252 283q0 -102 77 -174t185 -72q20 0 41 2q-2 -96 -96 -86q-12 -25 -31 -82l166 -10q96 -16 143 102q43 113 39 320q-2 102 -77.5 173.5t-184.5 71.5 t-185.5 -71.5t-76.5 -173.5zM274 926q0 -106 74 -181t178 -75t178 75t74 181q0 104 -73.5 179t-178.5 75q-104 0 -178 -75t-74 -179z" />
<glyph unicode="&#x3c;" horiz-adv-x="1472" d="M166 610l915 1037l-14 -453l219 248l-20 -635l-308 -356l349 -361l-60 -573l-205 207v-3zM250 612l743 -755l43 415l-366 381l329 383l15 443z" />
<glyph unicode="=" horiz-adv-x="1718" d="M184 233l9 465l208 2l5 115l-211 8l14 484l1091 -50l3 -196l202 -8l4 -473l-200 6l6 -84l192 2l25 -477l-1143 2l4 204h-209zM248 295l1016 -2l-19 354l-991 -10zM258 883l985 -35l-4 350l-971 45z" />
<glyph unicode="&#x3e;" horiz-adv-x="1390" d="M125 295l348 360l-307 357l-21 635l205 -232v27l916 -1036l-877 -889l-39 372l-166 -168zM190 272l43 -415l744 755l-764 867l14 -443l330 -383z" />
<glyph unicode="?" horiz-adv-x="1837" d="M117 834q-12 449 209 679q170 180 413 187q522 12 701 -305q192 -111 258 -336q23 -76 22 -148q0 -242 -245 -381q-164 -66 -224 -202q-39 -90 -41 -260h-178q12 -23 23 -45q102 -43 164.5 -132.5t62.5 -197.5q0 -152 -114.5 -257.5t-276.5 -105.5q-123 0 -224.5 65.5 t-142.5 172.5q-102 43 -165.5 132t-63.5 198q0 129 85 225t214 127l2 22h-217q10 260 35 355l-92 2q-2 104 8 198zM176 893l379 -10q25 207 35 235q31 86 147 113q76 -2 135 -37q70 -41 70 -100q0 -82 -143 -179q-244 -133 -295 -218t-62 -363h502q6 342 299 457 q211 121 211 325q0 61 -20 131q-117 406 -695 391q-215 -6 -370 -159q-203 -203 -193 -586zM356 -102q0 -125 97.5 -213t232.5 -88q137 0 233.5 88t96.5 213t-96.5 213t-233.5 88q-135 0 -232.5 -88t-97.5 -213z" />
<glyph unicode="@" horiz-adv-x="2713" d="M141 512q0 72 11 147q70 539 352 787q264 233 809 280q96 8 180 9q518 0 723 -326q309 -191 350 -723q4 -68 4 -129q0 -334 -155 -498q-135 -141 -435 -196q-51 -8 -100 -4l10 -27q74 14 125 23l129 -365q-348 -174 -862 -158q-221 6 -419.5 110.5t-330.5 285.5 q-180 131 -282 327q-109 209 -109 457zM203 512q0 -389 268 -653q254 -248 608 -260q242 -8 465 30q199 37 320 97l-95 264q-139 -25 -276 -49q-197 -35 -307 -31q-276 8 -470 185t-194 431q0 92 29 185q102 338 260 487q186 174 541 191q309 14 446 -103q127 -111 199 -430 q16 -78 16 -131q0 -168 -205 -227q-23 -6 -41 -6q-106 0 -163 178q10 55 10 108q0 244 -176 338q-66 35 -146 35q-121 0 -238.5 -81t-191.5 -219t-74 -286q0 -244 177 -338q66 -37 143 -37q158 0 297 127q143 -193 307 -192q27 0 53 4q276 49 398 174q141 147 141 457 q0 59 -4 127q-31 418 -234 606q-190 180 -571 180q-82 0 -176 -8q-524 -45 -776 -266q-262 -233 -330 -748q-10 -70 -10 -139zM788 322q0 -137 70 -256q121 -75 268 -91q-98 61 -151 179q-117 47 -187 168zM1036 629q0 59 29 114q63 121 172 121q59 0 94 -44t35 -105 q0 -60 -29 -115q-66 -121 -174 -121q-59 0 -93 44t-34 106zM1538 1120q61 -55 98 -137q115 -47 181 -158q59 -100 63 -231q74 43 74 131q-1 43 -17 117q-37 160 -77 252q-111 39 -301 28z" />
<glyph unicode="A" horiz-adv-x="2447" d="M152 -211l479 1899l762 -27l73 -201l131 -4l699 -1921l-705 -252l-78 250l-127 -45l-94 295l-215 18l-116 -485l-605 268l25 103zM223 -176l490 -217l112 465l453 -37l149 -467l584 209l-661 1825l-672 24zM907 547l90 522l164 -534z" />
<glyph unicode="B" horiz-adv-x="2039" d="M172 1688l899 8h10q318 0 455 -262q127 -68 196.5 -192t69.5 -267q0 -276 -215 -426l6 -12q133 -63 205 -207q70 -133 70 -301q0 -260 -148 -443q-157 -194 -415 -194h-23l-854 28l-4 199l-201 6zM236 1626l47 -1941l796 -27h17q200 0 342 138q148 144 159 370q1 28 1 55 q0 202 -80 328q-109 168 -344 180q186 39 284 189q78 115 78 258q0 22 -2 45q-12 174 -129 288q-125 125 -328 125h-6zM723 1227q121 -10 164 -35q51 -28 51 -98q0 -98 -51 -138q-39 -31 -160 -51zM743 483q121 -10 164 -34q51 -29 51 -99q0 -98 -51 -137q-39 -31 -159 -51z " />
<glyph unicode="C" horiz-adv-x="1972" d="M137 598q20 492 213 784q236 356 694 357q229 0 512 -92l-8 -146q102 -23 213 -59l-30 -568q-16 0 -125 7q-82 4 -136 4q-221 0 -331 -68q-146 -91 -146 -318q0 -58 15 -106q83 -28 192 -28h8q162 0 371 57l18 -248q88 14 187 43l53 -729q-168 -29 -494 -70 q-76 -6 -147 -6q-522 0 -725 328q-336 207 -336 769q0 43 2 89zM199 596q-2 -43 -2 -85q0 -833 788 -833q176 0 582 66l-43 598q-170 -47 -318 -47q-219 0 -348 104.5t-131 300.5v7q0 446 539 446q53 0 120 -4q78 -6 82 -6l25 461q-252 82 -459 82q-420 0 -635 -334 q-180 -281 -200 -756z" />
<glyph unicode="D" horiz-adv-x="2113" d="M160 -438l37 2164h73q568 0 876 -88q328 -94 464 -315q199 -125 276 -360q68 -201 68 -556v-20q-4 -588 -348 -862q-281 -221 -756 -221q-231 0 -485 53l4 170q-104 12 -209 35zM223 -389q223 -47 432 -47q442 0 705 211q324 260 328 817v17q0 417 -95 620 q-113 242 -413 342q-290 94 -853 94h-69zM723 174v944q33 1 63 1q254 0 334 -105q68 -88 68 -387q0 -221 -47 -316.5t-154 -120.5q-68 -16 -264 -16zM989 254q92 31 123 160q14 66 14 213q0 156 -10 221q-53 6 -127 6v-600z" />
<glyph unicode="E" horiz-adv-x="1810" d="M145 -467l154 2193h1161l-14 -204h219l-43 -652l-418 -4l-10 -172l217 -8l-31 -543l-43 2l6 -147h197l25 -653l-1215 -17l15 207zM211 -406l1085 17l-20 530l-514 2l12 279l344 -10l23 419l-348 13l12 284l555 9l35 528h-1039z" />
<glyph unicode="F" horiz-adv-x="1757" d="M137 -451l45 2114l1207 68l10 -218l194 13l29 -596l-500 -31l11 -178l192 -6l39 -625h-377l10 -741l-655 -4l4 206zM199 -389l530 4l-8 741h373l-31 504l-348 12l-4 281l641 39l-23 473l-1087 -59z" />
<glyph unicode="G" horiz-adv-x="2228" d="M205 598q23 492 215 784q233 356 692 357q229 0 512 -92l-8 -146q102 -23 213 -59l-29 -563l17 2l2 -215l202 10l2 -1182q-170 -27 -507 -69q-88 -6 -168 -7q-586 0 -807 349q-338 216 -338 752q0 39 2 79zM266 596q-2 -38 -2 -73q0 -838 871 -838h6q204 0 616 67 l-2 1063l-487 -24l-6 -476q-23 -1 -45 -1q-252 0 -347 106q-74 82 -75 280v7q0 446 538 446q53 0 121 -4q80 -6 82 -6l25 461q-252 82 -457 82q-420 0 -637 -334q-180 -281 -201 -756zM1061 496q0 -68 6 -109q57 -10 135 -10l6 440q-147 -90 -147 -312v-9zM1288 854l465 23 q-170 8 -213 8q-156 0 -252 -31z" />
<glyph unicode="H" horiz-adv-x="2267" d="M203 -455l135 2181h633l-4 -204h209l-11 -611h41l13 758l641 21v-211l204 6l-2 -2116l-676 -2l5 205h-209l8 479h-37l-10 -692l-735 -18l12 210zM268 -391l609 14l10 690l370 17l-12 -697l551 2l2 1991l-518 -16l-14 -758l-371 -6l12 819h-510z" />
<glyph unicode="I" horiz-adv-x="1372" d="M170 1292q0 162 122 274.5t292 112.5q127 0 231.5 -66.5t151.5 -176.5q104 -47 168.5 -140.5t64.5 -208.5q0 -121 -71.5 -218t-186.5 -140v-55l207 4l-12 -1383l-729 5l10 204h-215l63 1364l178 4q-25 33 -38 72q-106 47 -171 140.5t-65 207.5zM231 1292 q0 -135 103.5 -230t249.5 -95q145 0 247.5 95t102.5 230t-102.5 230.5t-247.5 95.5t-249 -95.5t-104 -230.5zM266 -434l604 -4l11 1257l-557 -10z" />
<glyph unicode="J" horiz-adv-x="2170" d="M164 440l530 125q2 -139 37 -243l168 38q2 -121 29 -217q233 47 233 562q0 336 -104 966l633 4q6 -35 30 -157l11 -48h163q6 -35 31 -159q82 -402 82 -709q0 -1075 -850 -1290q-53 -14 -113 -14q-139 0 -270 69q-152 78 -250 230q-360 229 -360 820v23zM225 391v-15 q0 -413 211 -634q170 -178 404 -178q53 0 98 12q803 203 803 1229q0 244 -47 524q-29 142 -56 285l-508 -4q82 -502 82 -846q0 -686 -315 -686q-115 0 -190 135q-70 121 -72 274z" />
<glyph unicode="K" horiz-adv-x="2177" d="M150 -426l133 2093l667 41l-14 -217l162 8l170 242l549 -244l-56 -88l260 -117l-544 -868l553 -924l-764 -139l-111 223l-94 -18l-19 39l-16 -275l-672 39l13 193zM215 -369l549 -30l37 626l295 -592l630 115l-526 879l529 841l-439 195l-442 -629l37 606l-543 -32z" />
<glyph unicode="L" horiz-adv-x="1693" d="M145 -479l115 2150l598 10l-10 -208l215 4l-57 -1219l337 -4l-12 -203l217 -2l-41 -708l-1157 -25l10 209zM209 -416l1034 21l35 588l-551 8l66 1417l-476 -8z" />
<glyph unicode="M" horiz-adv-x="2729" d="M158 -420l161 2017l644 60l65 -217l139 12l90 -301l119 526l815 31l19 -211l186 6l176 -2078l-702 -29l-25 213l-114 -6l-52 -195l-514 -39l-57 217l-80 -6l-6 -229l-660 24l17 197zM223 -360l533 -21l26 864l224 -843l419 30l205 774l88 -780l582 25l-166 1956l-709 -27 l-225 -987l-282 960l-543 -51z" />
<glyph unicode="N" horiz-adv-x="2361" d="M201 -446l104 2123l606 31l74 -211l131 6l76 -217l-4 348l764 2v-204h205l4 -2036l-846 -49l-80 211l-109 -7l4 -163l-724 -39l10 217zM264 -381l598 31l-22 782l311 -817l743 43l-4 1917l-641 -2l17 -1055l-398 1127l-506 -27z" />
<glyph unicode="O" horiz-adv-x="2625" d="M152 674q0 459 309 786.5t749 327.5q248 0 467 -113q211 -109 359 -303q205 -156 319 -389q121 -242 121 -514q0 -461 -310.5 -788.5t-750.5 -327.5q-246 0 -465 112q-211 109 -360 304q-203 156 -320 389q-119 242 -118 516zM213 674q0 -438 292 -746.5t705 -308.5 q414 0 707 308.5t293 746.5q0 436 -293 744t-707 308t-705.5 -308t-291.5 -744zM827 631q0 186 140 330q144 151 335 151h3q150 0 253 -100t103 -260q0 -184 -137 -330q-145 -150 -340 -150q-150 0 -250 99q-106 102 -107 260zM1094 428q0 -43 10 -84q39 -10 82 -10 q166 0 293 131q120 126 120 284q0 46 -10 87q-39 8 -82 8q-166 0 -289.5 -128t-123.5 -288z" />
<glyph unicode="P" horiz-adv-x="2125" d="M121 -442l61 2050q550 110 843 110h5q485 0 656 -299q220 -123 290 -442q29 -129 29 -238q0 -311 -254 -463q-211 -125 -694 -182l10 -653l-741 -88l6 229zM184 -373l617 74l-10 653q498 55 704 170q244 135 244 422q0 100 -27 223q-57 262 -223 379q-160 111 -457 111 q-274 0 -788 -103zM743 1135q61 6 115 6q246 0 246 -135q0 -117 -80 -160q-35 -18 -254 -76z" />
<glyph unicode="Q" horiz-adv-x="2756" d="M147 674q0 459 310.5 786.5t750.5 327.5q246 0 465 -113q213 -109 361 -303q203 -156 319 -389q119 -242 119 -514q0 -256 -102 -483l239 -113l-471 -526l-141 190q-264 -184 -584 -184q-246 0 -467 112q-211 109 -358 304q-205 156 -320 389q-121 242 -121 516zM209 674 q0 -438 293 -746.5t706 -308.5q332 0 596 209l133 -180l365 409l-221 105q125 238 125 512q0 436 -292 744t-706 308t-706.5 -308t-292.5 -744zM825 631q0 186 138 330q144 151 337 151h3q150 0 253 -100.5t103 -259.5q0 -107 -51 -207l-230 248l-291 -236l281 -244 q-92 -41 -186 -41q-150 0 -250 99q-106 102 -107 260zM1094 471q-2 -19 -2 -37q0 -48 12 -92q34 -9 72 -9q21 0 43 3l-21 18l14 13zM1423 836l158 -172l8 6q9 41 9 80q0 44 -11 86q-39 9 -80 9t-84 -9z" />
<glyph unicode="R" horiz-adv-x="2238" d="M143 -397l140 2035q207 29 579 76q178 23 301 23q412 0 557 -273q266 -135 301 -590q4 -55 4 -102q0 -244 -116 -377q-92 -104 -346 -217l532 -665l-782 -168l-121 223l-84 -19l-57 107l-11 -303l-692 45l12 190zM209 -340l567 -37l21 629l344 -633l639 137l-520 652 q287 127 362 196q137 127 137 377q0 45 -4 94q-27 340 -184 481q-133 121 -402 121q-137 0 -385 -35q-389 -53 -444 -59zM840 717l34 495h28q123 0 183 -32q82 -48 105 -185q4 -27 4 -49q0 -106 -94 -162q-78 -43 -260 -67z" />
<glyph unicode="S" horiz-adv-x="1935" d="M106 362q172 0 490 3q-35 37 -64 71q-370 324 -370 577v7q8 352 211 528q186 160 524 160q41 0 84 -2q195 -10 311 -70q129 -66 209 -206q238 -127 328 -578l-506 -158q113 -90 164 -174l12 -10q139 -104 195.5 -200.5t56.5 -237.5q0 -35 -4 -78q-25 -309 -170 -463 q-154 -162 -506 -227q-98 -18 -184 -19q-322 0 -465 260q-303 154 -311 707q-2 76 -5 110zM168 305q6 -109 12 -217q25 -221 117 -352q131 -184 391 -185q78 0 166 17q334 63 473 209q131 139 154 426q4 41 4 76q0 123 -49.5 206.5t-178.5 180.5q-150 98 -301 198.5 t-174 182.5q-6 27 -6 47q0 61 80 86q37 10 66 10q72 0 110 -78l64 -156l456 144q-59 301 -192 420q-123 111 -383 125q-43 2 -82 2q-657 0 -672 -629v-6q0 -186 242 -430q90 -90 379 -320q33 -27 33 -63q0 -41 -35 -75t-90 -40q-129 20 -142 219zM1040 883q64 -39 191 -123 l-49 123q-8 20 -21 30l-100 -32l-8 20q-10 -8 -13 -18z" />
<glyph unicode="T" horiz-adv-x="2103" d="M133 995l49 684l1561 -16l6 -203l199 -2l22 -715l-565 17l41 -1393l-782 -33l16 213l-221 -8l102 1245l-223 7l14 198zM199 1055l446 -13l-121 -1439l654 28l-41 1397l565 -16l-19 590l-1443 16z" />
<glyph unicode="U" horiz-adv-x="2342" d="M166 1618l651 88q-2 -92 -6 -233l211 28q-2 -88 -10 -368q-8 -225 -8 -353q0 -342 40 -522q82 8 123 80t52 231q4 57 4 129q0 135 -19 408q-29 451 -35 532l740 56q2 -106 8 -219l197 14q4 -129 49 -772q14 -186 14 -324q0 -496 -186 -741q-231 -303 -801 -326 q-24 -1 -47 -1q-400 0 -582 296q-227 135 -317 477q-55 215 -70 633q-8 188 -8 887zM227 1565q0 -809 21 -1065q39 -477 186 -684q161 -225 503 -225q23 0 46 1q539 23 756 306q172 227 172 688q0 170 -29 510q-29 366 -33 532l-614 -47q2 -53 31 -487q18 -260 18 -398 q0 -262 -57 -377q-62 -123 -208 -123q-10 0 -20 1q-152 8 -213 243q-49 184 -49 545q0 125 8 334q6 256 9 317z" />
<glyph unicode="V" horiz-adv-x="2344" d="M125 1554l653 86l68 -223l137 19l172 -559l174 815l686 -31l-47 -193l252 -12l-520 -2107l-717 26l-68 199l-137 6zM205 1503l616 -1863l625 -23l491 1987l-559 24l-270 -1266l-375 1211z" />
<glyph unicode="W" horiz-adv-x="3186" d="M125 1618l639 117l63 -230l142 25l84 -299l92 455l614 -52l49 -192l156 -12l39 -154l76 389l778 43l-31 -217l236 12l-279 -2083l-942 -75l-55 217l-150 -13l-47 185l-57 -275l-776 23l-45 201l-160 4zM199 1569l401 -1823l678 -18l168 804l237 -917l840 68l262 1959 l-655 -36l-180 -932l-240 903l-516 43l-195 -954l-280 999z" />
<glyph unicode="X" horiz-adv-x="2424" d="M12 1587l660 107l110 -219l95 14l170 -338l215 592l768 -256l-58 -119l262 -86l-458 -960l637 -883l-744 -90l-160 211l-45 -6l-184 241l-223 -495l-752 184l74 137l-279 68l447 815zM104 1540l512 -1038l-423 -772l624 -154l264 586l410 -543l606 74l-598 827l445 930 l-646 215l-284 -786l-377 747z" />
<glyph unicode="Y" horiz-adv-x="2502" d="M84 1526l704 127l150 -215l55 10l162 -236l178 451l881 51l-129 -223l334 18l-650 -1126l70 -1069l-827 -4l-4 205h-201l-16 1030zM190 1483l662 -918l14 -989l703 4l-68 1022l602 1045l-727 -43l-229 -578l-387 559z" />
<glyph unicode="Z" horiz-adv-x="2240" d="M156 207l606 618h-346l10 205h-215l37 660h1478l27 -205h178l86 -637l-481 -537l317 -10l9 -199l196 -6l25 -751l-1663 -4l-19 204h-186zM219 184l51 -577l1545 4l-21 631l-772 22l725 809l-76 555h-1366l-31 -536l834 2z" />
<glyph unicode="[" horiz-adv-x="1437" d="M180 -416l49 2097l809 27l-6 -211l211 6l-16 -551l-275 -12l-14 -844l115 4l-2 -211l206 7l-2 -560l-870 43l4 195zM244 -356l745 -37l2 430l-323 -10l20 1175l275 15l12 428l-684 -23z" />
<glyph unicode="\" horiz-adv-x="1794" d="M98 1688l564 -11l79 -202l125 -2l830 -2110l-635 -2l-74 205h-131zM186 1624l713 -1997l502 2l-780 1987z" />
<glyph unicode="]" horiz-adv-x="1464" d="M195 100l321 -10l-14 860l-74 2l-4 195l-201 10l-14 551l807 -27l4 -198l201 -6l49 -2098l-869 -43l-2 215l-202 -10zM256 37l2 -430l746 37l-48 1978l-684 23l13 -428l274 -15l21 -1175z" />
<glyph unicode="_" horiz-adv-x="1828" d="M145 -100l7 651l1296 -6l10 -205h195l30 -655l-1333 10l2 203zM209 -39l1206 -10l-24 532l-1178 6z" />
<glyph unicode="a" horiz-adv-x="2447" d="M152 -211l479 1899l762 -27l73 -201l131 -4l699 -1921l-705 -252l-78 250l-127 -45l-94 295l-215 18l-116 -485l-605 268l25 103zM223 -176l490 -217l112 465l453 -37l149 -467l584 209l-661 1825l-672 24zM907 547l90 522l164 -534z" />
<glyph unicode="b" horiz-adv-x="2039" d="M172 1688l899 8h10q318 0 455 -262q127 -68 196.5 -192t69.5 -267q0 -276 -215 -426l6 -12q133 -63 205 -207q70 -133 70 -301q0 -260 -148 -443q-157 -194 -415 -194h-23l-854 28l-4 199l-201 6zM236 1626l47 -1941l796 -27h17q200 0 342 138q148 144 159 370q1 28 1 55 q0 202 -80 328q-109 168 -344 180q186 39 284 189q78 115 78 258q0 22 -2 45q-12 174 -129 288q-125 125 -328 125h-6zM723 1227q121 -10 164 -35q51 -28 51 -98q0 -98 -51 -138q-39 -31 -160 -51zM743 483q121 -10 164 -34q51 -29 51 -99q0 -98 -51 -137q-39 -31 -159 -51z " />
<glyph unicode="c" horiz-adv-x="1972" d="M137 598q20 492 213 784q236 356 694 357q229 0 512 -92l-8 -146q102 -23 213 -59l-30 -568q-16 0 -125 7q-82 4 -136 4q-221 0 -331 -68q-146 -91 -146 -318q0 -58 15 -106q83 -28 192 -28h8q162 0 371 57l18 -248q88 14 187 43l53 -729q-168 -29 -494 -70 q-78 -6 -147 -6q-522 0 -725 328q-336 207 -336 769q0 43 2 89zM199 596q-2 -43 -2 -85q0 -833 788 -833q176 0 582 66l-43 598q-170 -47 -318 -47q-219 0 -348 104.5t-131 300.5v7q0 446 539 446q53 0 120 -4q78 -6 82 -6l25 461q-252 82 -459 82q-420 0 -635 -334 q-180 -281 -200 -756z" />
<glyph unicode="d" horiz-adv-x="2113" d="M160 -438l37 2164h73q568 0 876 -88q328 -94 464 -315q199 -125 276 -360q68 -201 68 -556v-20q-4 -588 -348 -862q-281 -221 -756 -221q-231 0 -485 53l4 170q-104 12 -209 35zM223 -389q223 -47 432 -47q442 0 705 211q324 260 328 817v17q0 417 -95 620 q-113 242 -413 342q-290 94 -853 94h-69zM723 174v944q33 1 63 1q254 0 334 -105q68 -88 68 -387q0 -221 -47 -316.5t-154 -120.5q-68 -16 -264 -16zM989 254q92 31 123 160q14 66 14 213q0 156 -10 221q-53 6 -127 6v-600z" />
<glyph unicode="e" horiz-adv-x="1810" d="M145 -467l154 2193h1161l-14 -204h219l-43 -652l-418 -4l-10 -172l217 -8l-31 -543l-43 2l6 -147h197l25 -653l-1215 -17l15 207zM211 -406l1085 17l-20 530l-514 2l12 279l344 -10l23 419l-348 13l12 284l555 9l35 528h-1039z" />
<glyph unicode="f" horiz-adv-x="1757" d="M137 -451l45 2114l1207 68l10 -218l194 13l29 -596l-500 -31l11 -178l192 -6l39 -625h-377l10 -741l-655 -4l4 206zM199 -389l530 4l-8 741h373l-31 504l-348 12l-4 281l641 39l-23 473l-1087 -59z" />
<glyph unicode="g" horiz-adv-x="2222" d="M203 598q20 492 213 784q236 356 692 357q231 0 514 -92l-8 -146q102 -23 213 -59l-31 -563l19 2v-215l204 10l2 -1182q-170 -27 -510 -69q-88 -6 -168 -7q-584 0 -804 349q-338 216 -338 752q0 39 2 79zM264 596q-2 -39 -2 -77q0 -834 871 -834h6q204 0 616 67l-2 1063 l-487 -24l-6 -476q-23 -1 -45 -1q-252 0 -347 106q-74 82 -75 280v7q0 446 538 446q53 0 121 -4q78 -6 82 -6l25 461q-252 82 -459 82q-420 0 -635 -334q-180 -281 -201 -756zM1059 496q0 -68 6 -109q57 -10 133 -10l6 440q-145 -91 -145 -315v-6zM1286 854l465 23 q-172 8 -215 8q-154 0 -250 -31z" />
<glyph unicode="h" horiz-adv-x="2267" d="M203 -455l135 2181h633l-4 -204h209l-11 -611h41l13 758l641 21v-211l204 6l-2 -2116l-676 -2l5 205h-209l8 479h-37l-10 -692l-735 -18l12 210zM268 -391l609 14l10 690l370 17l-12 -697l551 2l2 1991l-518 -16l-14 -758l-371 -6l12 819h-510z" />
<glyph unicode="i" horiz-adv-x="1359" d="M166 1292q0 162 121 274.5t291 112.5q127 0 231 -66.5t152 -176.5q106 -47 170.5 -140.5t64.5 -208.5q0 -121 -72.5 -218t-187.5 -140v-55l207 4l-13 -1383l-729 5l11 204h-215l63 1364l178 4q-23 33 -39 72q-106 47 -169.5 140.5t-63.5 207.5zM227 1292 q0 -135 102.5 -230t248.5 -95q145 0 248.5 95t103.5 230t-103.5 230.5t-248.5 95.5t-248 -95.5t-103 -230.5zM262 -434l604 -4l11 1257l-558 -10z" />
<glyph unicode="j" horiz-adv-x="2170" d="M164 440l530 125q2 -139 37 -243l168 38q2 -121 29 -217q233 47 233 562q0 336 -104 966l633 4q6 -35 30 -157l11 -48h163q6 -35 33 -163q80 -398 80 -705q0 -1075 -850 -1290q-53 -14 -113 -14q-139 0 -270 69q-152 78 -250 230q-360 229 -360 820v23zM225 391v-15 q0 -413 211 -634q170 -178 404 -178q53 0 98 12q803 203 803 1229q0 244 -47 524q-29 142 -56 285l-508 -4q82 -502 82 -846q0 -686 -315 -686q-115 0 -190 135q-70 121 -72 274z" />
<glyph unicode="k" horiz-adv-x="2177" d="M150 -426l133 2093l667 41l-14 -217l162 8l170 242l549 -244l-56 -88l260 -117l-544 -868l553 -924l-764 -139l-111 223l-94 -18l-19 39l-16 -275l-672 39l13 193zM215 -369l549 -30l37 626l295 -592l630 115l-526 879l529 841l-439 195l-442 -629l37 606l-543 -32z" />
<glyph unicode="l" horiz-adv-x="1693" d="M145 -479l115 2150l598 10l-10 -208l215 4l-57 -1219l337 -4l-12 -203l217 -2l-41 -708l-1157 -25l10 209zM209 -416l1034 21l35 588l-551 8l66 1417l-476 -8z" />
<glyph unicode="m" horiz-adv-x="2729" d="M158 -420l161 2017l644 60l65 -217l139 12l90 -301l119 526l815 31l19 -211l186 6l176 -2078l-702 -29l-25 213l-114 -6l-52 -195l-514 -39l-57 217l-80 -6l-6 -229l-660 24l17 197zM223 -360l533 -21l26 864l224 -843l419 30l205 774l88 -780l582 25l-166 1956l-709 -27 l-225 -987l-282 960l-543 -51z" />
<glyph unicode="n" horiz-adv-x="2344" d="M193 -446l102 2123l608 31l74 -211l131 6l76 -217l-4 348l764 2v-204h204l4 -2036l-845 -49l-82 211l-107 -7l4 -163l-725 -39l11 217zM256 -381l598 31l-23 782l312 -817l743 43l-4 1917l-641 -2l16 -1055l-397 1127l-506 -27z" />
<glyph unicode="o" horiz-adv-x="2613" d="M145 674q0 459 309.5 786.5t749.5 327.5q248 0 467 -113q211 -109 359 -303q205 -156 319 -389q121 -242 121 -514q0 -461 -310.5 -788.5t-750.5 -327.5q-246 0 -465 112q-211 109 -360 304q-203 156 -320 389q-119 242 -119 516zM207 674q0 -438 292 -746.5t705 -308.5 q414 0 707 308.5t293 746.5q0 436 -293 744t-707 308t-705.5 -308t-291.5 -744zM821 631q0 186 140 330q144 151 334 151h3q150 0 253.5 -100t103.5 -260q0 -184 -137 -330q-145 -150 -340 -150q-150 0 -250 99q-106 102 -107 260zM1087 428q0 -43 11 -84q39 -10 82 -10 q166 0 293 131q120 126 120 284q0 46 -10 87q-39 8 -80 8q-168 0 -292 -128t-124 -288z" />
<glyph unicode="p" horiz-adv-x="2125" d="M121 -442l61 2050q550 110 843 110h5q485 0 656 -299q220 -123 290 -442q29 -129 29 -238q0 -311 -254 -463q-211 -125 -694 -182l10 -653l-741 -88l6 229zM184 -373l617 74l-10 653q498 55 704 170q244 135 244 422q0 100 -27 223q-57 262 -223 379q-160 111 -457 111 q-274 0 -788 -103zM743 1135q61 6 115 6q246 0 246 -135q0 -117 -80 -160q-35 -18 -254 -76z" />
<glyph unicode="q" horiz-adv-x="2756" d="M147 674q0 459 310.5 786.5t750.5 327.5q246 0 465 -113q213 -109 361 -303q203 -156 319 -389q119 -242 119 -514q0 -256 -102 -483l239 -113l-471 -526l-141 190q-264 -184 -584 -184q-246 0 -467 112q-211 109 -358 304q-205 156 -320 389q-121 242 -121 516zM209 674 q0 -438 293 -746.5t706 -308.5q332 0 596 209l133 -180l365 409l-221 105q125 238 125 512q0 436 -292 744t-706 308t-706.5 -308t-292.5 -744zM825 631q0 186 138 330q144 151 337 151h3q150 0 253 -100.5t103 -259.5q0 -107 -51 -207l-230 248l-291 -236l281 -244 q-92 -41 -186 -41q-150 0 -250 99q-106 102 -107 260zM1094 471q-2 -19 -2 -37q0 -48 12 -92q34 -9 72 -9q21 0 43 3l-21 18l14 13zM1423 836l158 -172l8 6q9 41 9 80q0 44 -11 86q-39 9 -80 9t-84 -9z" />
<glyph unicode="r" horiz-adv-x="2238" d="M143 -397l140 2035q207 29 579 76q178 23 301 23q412 0 557 -273q266 -135 301 -590q4 -55 4 -102q0 -244 -116 -377q-92 -104 -346 -217l532 -665l-782 -168l-121 223l-84 -19l-57 107l-11 -303l-692 45l12 190zM209 -340l567 -37l21 629l344 -633l639 137l-520 652 q287 127 362 196q137 127 137 377q0 45 -4 94q-27 340 -184 481q-133 121 -402 121q-137 0 -385 -35q-389 -53 -444 -59zM840 717l34 495h28q123 0 183 -32q82 -48 105 -185q4 -27 4 -49q0 -106 -94 -162q-78 -43 -260 -67z" />
<glyph unicode="s" horiz-adv-x="1935" d="M106 362q172 0 490 3q-35 37 -64 71q-370 324 -370 577v7q8 352 211 528q186 160 524 160q41 0 84 -2q195 -10 311 -70q129 -66 209 -206q238 -127 328 -578l-506 -158q113 -90 164 -174l12 -10q139 -104 195.5 -200.5t56.5 -237.5q0 -35 -4 -78q-25 -309 -170 -463 q-154 -162 -506 -227q-98 -18 -184 -19q-322 0 -465 260q-303 154 -311 707q-2 76 -5 110zM168 305q6 -109 12 -217q25 -221 117 -352q131 -184 391 -185q78 0 166 17q334 63 473 209q131 139 154 426q4 41 4 76q0 123 -49.5 206.5t-178.5 180.5q-150 98 -301 198.5 t-174 182.5q-6 27 -6 47q0 61 80 86q37 10 66 10q72 0 110 -78l64 -156l456 144q-59 301 -192 420q-123 111 -383 125q-43 2 -82 2q-657 0 -672 -629v-6q0 -186 242 -430q90 -90 379 -320q33 -27 33 -63q0 -41 -35 -75t-90 -40q-129 20 -142 219zM1040 883q64 -39 191 -123 l-49 123q-8 20 -21 30l-100 -32l-8 20q-10 -8 -13 -18z" />
<glyph unicode="t" horiz-adv-x="2093" d="M127 995l51 684l1561 -16l6 -203l199 -2l20 -715l-565 17l41 -1393l-783 -33l17 213l-221 -8l102 1245l-223 7l14 198zM193 1055l446 -13l-121 -1439l653 28l-38 1397l563 -16l-19 590l-1444 16z" />
<glyph unicode="u" horiz-adv-x="2342" d="M166 1618l651 88q-2 -92 -6 -233l211 28q-2 -88 -10 -368q-8 -225 -8 -353q0 -342 40 -522q82 8 123 80t52 231q4 57 4 129q0 135 -19 408q-29 451 -35 532l740 56q2 -106 8 -219l197 14q4 -129 49 -772q14 -186 14 -324q0 -496 -186 -741q-231 -303 -801 -326 q-24 -1 -47 -1q-400 0 -582 296q-227 135 -317 477q-55 215 -70 633q-8 188 -8 887zM227 1565q0 -809 21 -1065q39 -477 186 -684q161 -225 503 -225q23 0 46 1q539 23 756 306q172 227 172 688q0 170 -29 510q-29 366 -33 532l-614 -47q2 -53 31 -487q18 -260 18 -398 q0 -262 -57 -377q-62 -123 -208 -123q-10 0 -20 1q-152 8 -213 243q-49 184 -49 545q0 125 8 334q8 256 9 317z" />
<glyph unicode="v" horiz-adv-x="2344" d="M125 1554l653 86l68 -223l137 19l172 -559l174 815l686 -31l-47 -193l252 -12l-520 -2107l-717 26l-68 199l-137 6zM205 1503l616 -1863l625 -23l491 1987l-559 24l-270 -1266l-375 1211z" />
<glyph unicode="w" horiz-adv-x="3182" d="M123 1618l639 117l63 -230l142 25l84 -299l92 455l614 -52l49 -192l156 -12l39 -154l76 389l778 43l-31 -217l236 12l-279 -2083l-942 -75l-55 217l-150 -13l-47 185l-57 -275l-776 23l-45 201l-160 4zM197 1569l401 -1823l678 -18l168 804l237 -917l840 68l262 1959 l-655 -36l-180 -932l-240 903l-516 43l-195 -954l-280 999z" />
<glyph unicode="x" horiz-adv-x="2424" d="M12 1587l660 107l110 -219l95 14l170 -338l215 592l768 -256l-58 -119l262 -86l-458 -960l637 -883l-744 -90l-160 211l-45 -6l-184 241l-223 -495l-752 184l74 137l-279 68l447 815zM104 1540l512 -1038l-423 -772l624 -154l264 586l410 -543l606 74l-598 827l445 930 l-646 215l-284 -786l-377 747z" />
<glyph unicode="y" horiz-adv-x="2502" d="M84 1526l704 127l150 -215l55 10l162 -236l178 451l881 51l-129 -223l334 18l-650 -1126l70 -1069l-827 -4l-4 205h-201l-16 1030zM190 1483l662 -918l14 -989l703 4l-68 1022l602 1045l-727 -43l-229 -578l-387 559z" />
<glyph unicode="z" horiz-adv-x="2232" d="M152 207l606 618h-346l10 205h-215l37 660h1478l27 -205h178l86 -637l-481 -537l317 -10l9 -199l196 -6l25 -751l-1663 -4l-19 204h-186zM215 184l51 -577l1544 4l-20 631l-772 22l725 809l-76 555h-1366l-31 -536l834 2z" />
<glyph unicode="{" horiz-adv-x="1398" d="M166 449l33 505l284 -14l-71 21l55 133l-260 71l203 502l618 -446l-18 -43l223 -162l-109 -250l-233 63v-102l203 -10l4 -293l-133 -35l32 -45l41 23l181 -252l-601 -619l-112 299l-92 -94l-199 530l162 88l10 185zM233 528l598 148l-2 186l-573 29zM291 1206l592 -162 l69 156l-514 373zM293 203l145 -389l496 512l-119 166z" />
<glyph unicode="}" horiz-adv-x="1409" d="M172 1221l619 446l108 -272l96 67l201 -501l-192 -54l10 -166l192 9l31 -506l-500 123l246 -136l-29 -75l234 -129l-199 -531l-203 209l-2 -4l-600 618l183 252l145 -79v86l-205 51l2 293l107 4l-33 73l-102 -28zM248 1200l67 -156l594 162l-147 367zM264 326l498 -512 l145 389l-522 289zM369 676l598 -148l-23 363l-573 -29z" />
<glyph unicode="&#xad;" horiz-adv-x="1951" d="M207 403l6 652l1296 -6l11 -205h194l31 -656l-1333 11l2 202zM268 465l1207 -10l-25 532l-1178 6z" />
<glyph unicode="&#xaf;" />
<glyph unicode="&#xb3;" horiz-adv-x="1171" />
<glyph unicode="&#xb5;" horiz-adv-x="1171" />
<glyph unicode="&#xc5;" horiz-adv-x="2457" d="M156 -211l409 1618q-156 164 -155 381q0 242 186 410.5t444 168.5q176 0 324.5 -81.5t230.5 -219.5q129 -72 205 -200.5t76 -282.5q0 -231 -174 -399l600 -1649l-705 -252l-79 250l-125 -45l-95 295l-215 18l-116 -485l-607 268l27 103zM229 -176l490 -217l112 465 l453 -37l148 -467l585 209l-592 1630q184 154 185 381q0 215 -167 366.5t-403 151.5t-402.5 -151.5t-166.5 -366.5q0 -211 162 -363zM819 1743q0 88 67.5 151.5t164.5 63.5q96 0 163.5 -63.5t67.5 -151.5t-67.5 -151.5t-163.5 -63.5t-164 63.5t-68 151.5zM913 547l91 522 l163 -534zM1098 1595q79 21 110 91q-80 -20 -110 -91z" />
<glyph unicode="&#xc6;" horiz-adv-x="2646" d="M129 -262l678 1927l1505 25l-14 -209l219 4l-43 -654l-418 -4l-10 -172l215 -8l-29 -543l-43 2l4 -147h197l27 -653l-1217 -17l17 207l-220 -2l-32 -188l-631 227l41 117zM209 -225l504 -183l80 474l305 -5l-35 -505l1085 16l-20 530l-514 2l12 279l344 -10l23 420 l-348 12l12 285l555 8l35 528l-1395 -22zM918 545l196 569l-18 -565z" />
<glyph unicode="&#xd8;" horiz-adv-x="2643" d="M104 -66l168 177q-143 260 -143 563q0 459 309.5 786.5t749.5 327.5q291 0 541 -156l143 150l463 -367l-25 -22l230 -183l-216 -211q129 -248 130 -530q0 -461 -310.5 -788.5t-750.5 -327.5q-309 0 -570 174l-168 -164l-198 211l-6 -6zM190 -66l263 -278l159 156 q258 -193 576 -193q414 0 706.5 308.5t292.5 746.5q0 293 -143 543l199 194l-365 289l-141 -148q-248 174 -549 174q-414 0 -706 -308t-292 -744q0 -311 160 -574zM805 631q0 186 139 330q160 165 369 149l-506 -528q-2 25 -2 49zM1087 279l547 536q6 -31 6 -63 q0 -184 -139 -330q-145 -150 -340 -150q-37 0 -74 7z" />
<glyph unicode="&#xe5;" horiz-adv-x="2457" d="M156 -211l409 1618q-156 164 -155 381q0 242 186 410.5t444 168.5q176 0 324.5 -81.5t230.5 -219.5q129 -72 205 -200.5t76 -282.5q0 -231 -174 -399l600 -1649l-705 -252l-79 250l-125 -45l-95 295l-215 18l-116 -485l-607 268l27 103zM229 -176l490 -217l112 465 l453 -37l148 -467l585 209l-592 1630q184 154 185 381q0 215 -167 366.5t-403 151.5t-402.5 -151.5t-166.5 -366.5q0 -211 162 -363zM819 1743q0 88 67.5 151.5t164.5 63.5q96 0 163.5 -63.5t67.5 -151.5t-67.5 -151.5t-163.5 -63.5t-164 63.5t-68 151.5zM913 547l91 522 l163 -534zM1098 1595q79 21 110 91q-80 -20 -110 -91z" />
<glyph unicode="&#xe6;" horiz-adv-x="2646" d="M129 -262l678 1927l1505 25l-14 -209l219 4l-43 -654l-418 -4l-10 -172l215 -8l-29 -543l-43 2l4 -147h197l27 -653l-1217 -17l17 207l-220 -2l-32 -188l-631 227l41 117zM209 -225l504 -183l80 474l305 -5l-35 -505l1085 16l-20 530l-514 2l12 279l344 -10l23 420 l-348 12l12 285l555 8l35 528l-1395 -22zM918 545l196 569l-18 -565z" />
<glyph unicode="&#xe7;" horiz-adv-x="1171" />
<glyph unicode="&#xf8;" horiz-adv-x="2643" d="M104 -66l168 177q-143 260 -143 563q0 459 309.5 786.5t749.5 327.5q291 0 541 -156l143 150l463 -367l-25 -22l230 -183l-216 -211q129 -248 130 -530q0 -461 -310.5 -788.5t-750.5 -327.5q-309 0 -570 174l-168 -164l-198 211l-6 -6zM190 -66l263 -278l159 156 q258 -193 576 -193q414 0 706.5 308.5t292.5 746.5q0 293 -143 543l199 194l-365 289l-141 -148q-248 174 -549 174q-414 0 -706 -308t-292 -744q0 -311 160 -574zM805 631q0 186 139 330q160 165 369 149l-506 -528q-2 25 -2 49zM1087 279l547 536q6 -31 6 -63 q0 -184 -139 -330q-145 -150 -340 -150q-37 0 -74 7z" />
<glyph unicode="&#x152;" />
<glyph unicode="&#x153;" />
<glyph unicode="&#x178;" />
<glyph unicode="&#x2c6;" />
<glyph unicode="&#x2000;" horiz-adv-x="1183" />
<glyph unicode="&#x2001;" horiz-adv-x="2367" />
<glyph unicode="&#x2002;" horiz-adv-x="1183" />
<glyph unicode="&#x2003;" horiz-adv-x="2367" />
<glyph unicode="&#x2004;" horiz-adv-x="789" />
<glyph unicode="&#x2005;" horiz-adv-x="591" />
<glyph unicode="&#x2006;" horiz-adv-x="394" />
<glyph unicode="&#x2007;" horiz-adv-x="394" />
<glyph unicode="&#x2008;" horiz-adv-x="295" />
<glyph unicode="&#x2009;" horiz-adv-x="473" />
<glyph unicode="&#x200a;" horiz-adv-x="131" />
<glyph unicode="&#x2010;" horiz-adv-x="1951" d="M207 403l6 652l1296 -6l11 -205h194l31 -656l-1333 11l2 202zM268 465l1207 -10l-25 532l-1178 6z" />
<glyph unicode="&#x2011;" horiz-adv-x="1951" d="M207 403l6 652l1296 -6l11 -205h194l31 -656l-1333 11l2 202zM268 465l1207 -10l-25 532l-1178 6z" />
<glyph unicode="&#x2012;" horiz-adv-x="1951" d="M207 403l6 652l1296 -6l11 -205h194l31 -656l-1333 11l2 202zM268 465l1207 -10l-25 532l-1178 6z" />
<glyph unicode="&#x2013;" horiz-adv-x="1437" d="M207 403l4 652l863 -6l7 -205h129l21 -656l-888 11l2 202zM248 465l803 -10l-16 532l-785 6z" />
<glyph unicode="&#x2014;" horiz-adv-x="2461" d="M207 403l8 652l1726 -6l14 -205h259l41 -656l-1775 11l3 202zM288 465l1607 -10l-33 532l-1568 6z" />
<glyph unicode="&#x2018;" horiz-adv-x="1081" d="M158 1702l561 -12l-29 -199l234 -6l-140 -957l-280 72l-25 158l-180 47zM229 1638l123 -784l176 -45l119 821z" />
<glyph unicode="&#x2019;" horiz-adv-x="1081" d="M158 1702l561 -12l-29 -199l234 -6l-140 -957l-280 72l-25 158l-180 47zM229 1638l123 -784l176 -45l119 821z" />
<glyph unicode="&#x201c;" horiz-adv-x="1568" d="M145 1702l562 -12l-2 -7l514 -24l-33 -193l237 -12l-155 -936l-240 41l-29 176l-176 29l-8 55l-43 -291l-283 72l-24 158l-180 47zM217 1638l123 -784l176 -45l119 821zM676 1491l31 -2l-17 98zM748 1620l129 -803l135 -22l135 807z" />
<glyph unicode="&#x201d;" horiz-adv-x="1568" d="M145 1702l562 -12l-2 -7l514 -24l-33 -193l237 -12l-155 -936l-240 41l-29 176l-176 29l-8 55l-43 -291l-283 72l-24 158l-180 47zM217 1638l123 -784l176 -45l119 821zM676 1491l31 -2l-17 98zM748 1620l129 -803l135 -22l135 807z" />
<glyph unicode="&#x202f;" horiz-adv-x="473" />
<glyph unicode="&#x205f;" horiz-adv-x="591" />
<glyph unicode="&#x25fc;" horiz-adv-x="1740" d="M0 0v1741h1741v-1741h-1741z" />
</font>
</defs>
</svg>
