<?xml version="1.0" standalone="no"?>
<!DOCTYPE svg PUBLIC "-//W3C//DTD SVG 1.1//EN" "http://www.w3.org/Graphics/SVG/1.1/DTD/svg11.dtd">
<svg xmlns="http://www.w3.org/2000/svg">
<defs >
<font id="AmaticSC" horiz-adv-x="662" ><font-face
    font-family="Amatic SC"
    units-per-em="2048"
    panose-1="0 0 0 0 0 0 0 0 0 0"
    ascent="2081"
    descent="-501"
    alphabetic="0" />
<glyph unicode=" " glyph-name="space" horiz-adv-x="290" />
<glyph unicode="!" glyph-name="exclam" horiz-adv-x="329" d="M88 39Q88 59 109 80T155 102T195 81T211 27Q211 -24 160 -27Q157 -18 147 -16Q113 -11 88 39ZM147 322L145 330V821Q145 821 150 1171L135 1493Q135 1514 156 1531T201 1548T225 1522Q225 1358 204
1033T182 543L184 453Q184 371 168 332L174 322H147Z" />
<glyph unicode="&quot;" glyph-name="quotedbl" horiz-adv-x="636" d="M207 1262Q211 1291 211 1384V1401Q211 1575 232 1575T267 1552T281 1485T258 1350T215 1257Q212 1257 207 1262ZM418 1455Q418 1575 459 1575Q470 1575 477 1552T485 1487T473 1350T454 1255T444
1257Q418 1297 418 1409V1455Z" />
<glyph unicode="#" glyph-name="numbersign" horiz-adv-x="790" d="M578 674L616 676Q674 676 674 637Q674 623 641 610H561Q557 555 531 325T504 -31L481 -57Q444 -57 444 -37Q444 6 457 91T471 230T490 410T510 602Q455 608 375 608T272 600Q262 529 246 348Q210
-57 184 -57Q174 -57 162 -52T150 -37Q150 42 175 263T225 600L137 592Q76 592 76 635Q76 655 145 655H188Q219 655 229 657Q235 670 250 806T266 971L197 967Q119 967 117 1004L133 1022Q251 1022 270 1028Q275 1073 288 1162Q317 1348 317 1456L315 1497Q315
1542 346 1542L360 1513Q360 1433 342 1276T324 1038Q353 1030 431 1030T547 1044Q610 1349 623 1526Q636 1542 653 1542T678 1522Q677 1443 641 1290T604 1055L608 1044H684L711 1016Q698 983 684 983L598 987Q567 865 567 678L578 674ZM281 674L283 666Q307 662
376 662T506 670Q543 867 543 963Q543 983 385 983Q339 983 317 971Q306 946 294 832T281 674Z" />
<glyph unicode="$" glyph-name="dollar" horiz-adv-x="538" d="M319 184L328 68Q328 -18 293 -18Q284 -18 279 -3T274 23L283 29V164L276 170Q207 170 174 166Q102 216 102 268Q102 289 121 289H125Q145 277 151 255T170 219T218 205T279 213Q279 378 225 881Q224
891 202 938T155 1040Q88 1187 88 1300Q88 1355 103 1412Q132 1522 186 1522L178 1610Q178 1663 207 1663L223 1645Q221 1631 221 1599Q221 1524 254 1524Q293 1524 332 1479Q383 1428 383 1417T375 1394T356 1393T329 1430T293 1470T238 1487L231 1470L238 1309Q238
1248 254 1075T282 874T340 753Q449 532 459 403Q459 318 430 282T380 229T319 184ZM315 240L317 236Q357 255 385 299T414 392T367 580T281 776Q281 686 298 508T315 240ZM135 1288Q135 1160 213 989Q213 984 219 981Q217 1070 201 1236T182 1473Q162 1469 149
1398T135 1288Z" />
<glyph unicode="%" glyph-name="percent" horiz-adv-x="1120" d="M436 1153L440 1059Q440 823 345 750Q310 723 262 723Q90 723 90 1180V1188Q90 1259 114 1359Q159 1552 236 1552Q340 1552 377 1477Q440 1369 440 1159L436 1153ZM141 1178L145 1065Q145 1003
160 927Q188 776 258 776Q302 776 332 810T374 899Q393 992 393 1071L377 1327L373 1346Q373 1407 336 1452T242 1497Q199 1497 179 1414Q164 1351 158 1295T150 1231L141 1178ZM1036 479L1032 385L1036 379Q1036 261 1008 180Q957 27 831 27Q792 27 762 68T716
168Q686 284 686 350V358Q686 815 858 815Q906 815 941 788T993 725T1022 636Q1036 564 1036 479ZM981 331T983 369T984 431T983 477T982 526T972 600T951 677T913 734T853 758T794 722T760 632Q741 537 741 475L737 367L745 313Q746 309 752 266T766 190T791 125T841
94T899 110T941 154T966 218T978 292ZM735 1532Q766 1532 766 1505Q766 1488 746 1406T713 1264T494 299L453 121Q451 114 447 93T440 58T430 28Q418 -4 393 -6Q373 7 373 41T383 130T415 273T509 675T640 1219T703 1461T709 1483T717 1506Q726 1532 735 1532Z"
/>
<glyph unicode="&amp;" glyph-name="ampersand" horiz-adv-x="942" d="M862 254Q862 221 777 221T584 303Q517 257 470 238T351 219T219 269T125 390T92 518T93 611T102 686T113 748T131 812T150 867T177 927T205 983T239 1050T274 1118L260 1405V1575Q260 1637
281 1670T326 1704Q373 1704 427 1673T481 1599L475 1477Q475 1460 477 1452Q462 1410 442 1352Q397 1219 368 1179Q322 1115 322 1085Q322 1024 361 864T461 550T569 383Q647 540 647 780Q647 815 629 812Q609 809 598 825L600 829L596 842L602 852Q637 852 719
860T823 877Q858 872 858 846Q858 831 824 822T756 813L707 815H694Q694 657 677 554T606 348Q677 266 764 266L840 272L862 254ZM211 935T174 814T137 602T150 460T189 360Q246 258 367 258Q408 258 474 282T543 340Q534 355 502 387Q437 453 386 589T320 798T298
932T281 1026Q211 935 174 814ZM764 629Q766 629 766 627L764 629ZM313 1315Q309 1303 309 1284T312 1235T315 1190Q350 1222 393 1348T436 1530Q436 1653 360 1653Q346 1653 327 1624T307 1579L309 1325L313 1315Z" />
<glyph unicode="&apos;" glyph-name="quotesingle" horiz-adv-x="636" d="M207 1262Q211 1291 211 1384V1401Q211 1575 232 1575T267 1552T281 1485T258 1350T215 1257Q212 1257 207 1262Z" />
<glyph unicode="(" glyph-name="parenleft" horiz-adv-x="460" d="M94 879Q94 947 119 1118T194 1456T293 1626L313 1610Q311 1561 281 1502Q150 1251 150 879Q150 230 305 -139Q313 -158 346 -218T389 -315Q374 -340 361 -340T338 -336T322 -319T310 -300Q293
-270 293 -258Q199 -48 147 271T94 879Z" />
<glyph unicode=")" glyph-name="parenright" horiz-adv-x="477" d="M387 817Q387 584 324 319Q186 -279 102 -279Q91 -279 82 -272T72 -256T87 -217T124 -146Q211 19 271 316T332 817Q332 1167 240 1423Q232 1445 212 1480Q168 1562 168 1610L188 1626Q230 1625
269 1516T334 1263Q387 949 387 817Z" />
<glyph unicode="*" glyph-name="asterisk" horiz-adv-x="905" d="M537 1120Q482 1120 473 1114Q474 1088 552 933T631 760T622 734T597 725T570 742T553 793T545 831Q490 962 434 1065Q425 1053 410 1012L330 823Q326 813 318 790Q301 743 287 719L260 715L231
745Q231 768 308 919T393 1118Q381 1122 371 1122H139L106 1120Q84 1120 84 1153Q84 1163 90 1170T106 1178L383 1176L387 1180Q365 1220 302 1355T238 1503Q238 1526 270 1526Q284 1526 313 1455T375 1304T428 1212Q437 1228 466 1316Q540 1544 575 1544Q586 1544
597 1534T608 1512T582 1458Q558 1410 527 1314T477 1178Q488 1167 602 1167L778 1178Q793 1178 805 1166T817 1139Q817 1110 770 1110L537 1120ZM471 1120Q469 1120 469 1118H471V1120Z" />
<glyph unicode="+" glyph-name="plus" horiz-adv-x="727" d="M401 389Q401 356 358 356Q346 356 331 365T315 385V449L319 555Q319 615 290 620Q276 623 250 623L160 612Q100 612 100 655Q100 684 123 684L231 678Q315 678 315 694L305 899Q305 923 313 933T346
944Q383 944 383 909L375 889L383 727Q383 698 396 688T440 678L563 684Q627 684 627 649T592 614L467 621Q402 621 396 610Q383 588 383 552T392 466T401 389Z" />
<glyph unicode="," glyph-name="comma" horiz-adv-x="407" d="M100 -162L104 -143Q211 -54 211 6Q186 20 169 45T152 97T176 142T229 160Q275 160 297 100L293 94Q297 86 297 61T272 -22T207 -128T133 -178L100 -162Z" />
<glyph unicode="-" glyph-name="hyphen" horiz-adv-x="620" d="M508 739Q508 718 375 699T191 680T127 689T113 715Q113 736 248 755T430 774Q508 774 508 739Z" />
<glyph unicode="." glyph-name="period" horiz-adv-x="327" d="M140 -8T127 7T113 42T129 78T165 96T199 79T215 43Q215 -8 158 -8Q140 -8 127 7Z" />
<glyph unicode="/" glyph-name="slash" horiz-adv-x="559" d="M479 1505Q479 1488 459 1406T426 1264T207 299L166 121Q164 114 160 93T153 58T143 28Q131 -4 106 -6Q86 7 86 41T96 131T129 273T223 674T354 1219T417 1461T423 1483T431 1506Q440 1532 449 1532Q479
1532 479 1505Z" />
<glyph unicode="0" glyph-name="zero" horiz-adv-x="606" d="M100 1036L102 1364Q114 1384 124 1432T146 1501Q169 1542 248 1542Q268 1542 304 1522T359 1483T392 1439T415 1395T430 1343T440 1293Q447 1246 450 1212T462 1117T471 1045T480 979T489 907T496
841T504 768T509 702T514 630Q518 561 518 505T516 409T509 305T490 190T456 90Q412 -14 322 -14Q303 -14 256 12Q159 72 106 774L115 782L113 928Q100 945 100 1036ZM156 946L176 766Q176 33 340 33Q398 33 428 142Q456 248 461 334Q469 472 469 563T453 823T406
1071V1159Q384 1215 382 1275T373 1369T351 1429Q320 1485 217 1497Q169 1458 158 1428T147 1329L156 946Z" />
<glyph unicode="1" glyph-name="one" horiz-adv-x="606" d="M481 14L229 6Q215 6 206 15T197 37L207 57L262 55Q291 55 302 68T313 111Q313 369 300 581Q285 821 254 1284L256 1354Q256 1414 237 1448T162 1483L115 1479Q80 1479 80 1501Q80 1530 260 1530Q274
1530 283 1520T293 1497H297Q291 1467 291 1419T306 1241T322 1022T339 704T356 413T352 334Q365 282 365 102L362 72L371 66L463 72Q526 72 526 43T481 14Z" />
<glyph unicode="2" glyph-name="two" horiz-adv-x="571" d="M428 2L129 -16Q109 -16 94 -5T78 25Q113 69 147 164T188 274Q305 530 363 762T422 1249Q422 1544 295 1544Q267 1532 251 1502T230 1442Q222 1366 195 1366T168 1403T179 1479T216 1552T276 1585Q362
1585 415 1520T471 1366L467 1362L473 1212Q473 1045 427 804T317 420Q312 408 265 311Q156 86 154 41L170 39Q241 52 416 61L446 29L428 2Z" />
<glyph unicode="3" glyph-name="three" horiz-adv-x="589" d="M315 844L295 842Q272 842 256 850V858L246 868Q247 875 267 899T312 952T357 1031T377 1122T375 1200T366 1292T345 1389T306 1460T246 1491T190 1473T159 1432Q137 1374 111 1374Q99 1374 88 1382T76
1403Q108 1468 148 1504T233 1540Q307 1540 344 1491L350 1489Q432 1370 432 1102Q432 1052 395 987Q386 981 362 940T328 889Q408 857 440 765Q462 700 475 617T497 494Q510 437 510 384T509 305T504 237T493 166T472 103T439 48Q395 -2 338 -2T238 18T195 74L211
84Q236 82 263 62T299 37Q455 37 455 297Q455 530 423 644Q389 765 315 844Z" />
<glyph unicode="4" glyph-name="four" horiz-adv-x="526" d="M455 567Q455 537 398 542Q376 544 358 534T340 483T345 305T358 152Q356 144 356 114T365 68L358 43L365 29V0L332 -25L301 -12V61L299 66Q307 99 307 139L293 348L297 440Q297 520 276 530L156 518Q129
518 117 527T100 541V547Q100 557 111 612L92 653L111 754L131 1155V1481L123 1532Q123 1559 153 1559T184 1530L176 1366Q176 1330 182 1296L178 1290Q182 1254 182 1233L158 717L172 657L158 602Q158 563 177 563T232 569T281 582Q281 656 273 852T258 1104T250
1180Q250 1212 289 1212L307 1190L319 901Q319 841 325 716T340 582L416 590Q455 590 455 567Z" />
<glyph unicode="5" glyph-name="five" horiz-adv-x="569" d="M152 1544Q152 1487 193 1006L190 1004Q190 1003 226 999Q341 986 374 962T436 824Q485 634 485 438Q485 289 476 239T456 148T428 79Q389 12 330 -20H319Q213 -20 213 12Q213 35 252 35L305 18Q336
18 362 56T404 148Q434 262 434 326T430 473T412 674T366 873T285 952H238L229 946L223 948L178 930Q140 930 132 962Q130 973 129 995T127 1026Q137 1084 137 1145T114 1351T88 1565L109 1585L266 1587Q328 1587 328 1559L305 1540H262L256 1536L174 1546L160
1542L152 1544ZM152 1337Q150 1337 150 1335L152 1337Z" />
<glyph unicode="6" glyph-name="six" horiz-adv-x="516" d="M380 -6T354 -17T289 -29T222 -7T179 49T155 129T142 216Q134 347 131 369Q100 594 100 807Q100 1002 107 1082T123 1238T147 1365T182 1468Q223 1569 297 1569Q304 1569 313 1563T322 1547T309 1528T277
1510T252 1497Q219 1470 195 1336Q160 1139 154 897Q178 913 205 913T262 897T312 851T351 784T381 698T402 604T416 502T425 404T430 310T431 231T432 171T430 111T419 58T395 12ZM154 758Q151 469 205 166Q206 158 208 138T213 106T219 78T229 52T246 32Q265
12 307 12Q383 12 383 174Q383 408 365 524T330 712T283 826T215 868Q154 828 154 758Z" />
<glyph unicode="7" glyph-name="seven" horiz-adv-x="450" d="M102 1561L319 1567Q333 1567 346 1556T365 1530Q352 1496 352 1452T345 1330T259 684T158 86Q160 80 160 61T147 8T111 -27L86 -4Q86 30 102 78T139 213T184 470T235 881T268 1183T286 1307Q307 1439
307 1516Q307 1528 236 1528L115 1522L84 1542L102 1561Z" />
<glyph unicode="8" glyph-name="eight" horiz-adv-x="524" d="M444 104L438 55Q438 49 440 45Q407 -19 372 -48T285 -78T205 -49T162 24Q133 110 133 186Q133 498 199 756Q202 768 210 790Q229 839 229 858T220 911T196 984Q88 1310 88 1442Q88 1556 150 1595Q174
1610 207 1610H244Q250 1607 264 1601T285 1591Q306 1579 315 1559Q354 1471 354 1348T313 1008Q283 873 283 867T288 847T300 817T309 795Q444 388 444 104ZM205 53Q207 21 225 -9T272 -39Q337 -39 366 6T395 119Q395 313 317 598Q311 619 302 662Q280 756 262
788Q221 731 201 523T180 168Q180 126 207 59L205 53ZM233 1565L211 1563Q195 1563 186 1569Q139 1531 139 1453T178 1181T246 969Q307 1165 307 1335Q307 1439 285 1502T233 1565Z" />
<glyph unicode="9" glyph-name="nine" horiz-adv-x="509" d="M369 57L371 10Q371 -47 336 -47L319 -27Q338 27 338 156L348 727Q348 764 346 837T344 948L330 944Q220 969 152 1051T84 1243Q84 1400 133 1508Q151 1547 183 1574T253 1602T333 1587T391 1548T406
1223L403 981L389 899L383 209L369 57ZM154 1171Q160 1098 184 1076T222 1046T266 1023T317 997L346 1001Q356 1182 356 1440Q356 1498 335 1530T269 1563T197 1528T158 1439Q137 1338 137 1263T154 1171Z" />
<glyph unicode=":" glyph-name="colon" horiz-adv-x="344" d="M140 201T127 216T113 251T129 287T165 305T199 288T215 252Q215 201 158 201Q140 201 127 216ZM160 975T147 990T133 1025T149 1061T185 1079T220 1062T236 1026Q236 975 178 975Q160 975 147 990Z" />
<glyph unicode=";" glyph-name="semicolon" horiz-adv-x="391" d="M207 975T194 990T180 1025T196 1061T232 1079T267 1062T283 1026Q283 975 225 975Q207 975 194 990ZM205 182Q145 218 145 272Q145 300 169 318T223 336T272 313T291 255T268 160T205 50T127
-2L94 14L98 33Q205 122 205 182Z" />
<glyph unicode="&lt;" glyph-name="less" horiz-adv-x="569" d="M461 0L434 4H430Q398 51 361 135T313 242L211 455Q206 466 190 498T166 549Q160 567 122 617T84 695T132 837T237 1080T302 1231T318 1287T336 1346Q359 1417 385 1421L412 1401Q394 1282 272 1039Q156
806 156 700Q156 683 297 396T471 53L489 39Q487 28 479 14T461 0Z" />
<glyph unicode="=" glyph-name="equal" horiz-adv-x="620" d="M569 727Q569 721 354 721H156Q139 721 126 730T113 756Q113 762 293 762H524Q539 762 554 752T569 727ZM141 647L545 645Q552 645 558 635T565 615T553 604Q553 608 158 608Q149 608 141 619T133
638T141 647Z" />
<glyph unicode="&gt;" glyph-name="greater" horiz-adv-x="569" d="M139 4Q139 4 109 0Q100 0 91 14T80 39L98 53Q134 118 274 400T414 700Q414 806 298 1039Q176 1282 158 1401L184 1421Q212 1415 234 1346Q241 1322 250 1288T267 1232T332 1081Q485 737 485
703T448 618T403 549T379 498T358 455L182 90Q145 13 139 4Z" />
<glyph unicode="?" glyph-name="question" horiz-adv-x="464" d="M109 1283Q94 1360 94 1400T100 1469T119 1522Q147 1578 223 1578T322 1534Q367 1444 367 1328T352 1121T315 950T274 776Q227 554 238 242Q237 244 234 242Q224 236 213 236Q195 236 190 260Q190
567 229 819Q238 870 262 968Q313 1184 313 1303Q313 1410 292 1471T240 1533H217Q145 1533 145 1406Q145 1378 160 1283L135 1275Q112 1273 109 1283ZM195 -8T182 7T168 42T184 78T220 96T254 79T270 43Q270 -8 213 -8Q195 -8 182 7Z" />
<glyph unicode="@" glyph-name="at" horiz-adv-x="1036" d="M487 467Q284 467 284 954V979Q284 1177 295 1231T322 1331T358 1402Q410 1464 491 1464Q572 1464 625 1405Q657 1367 718 793Q728 699 729 686L752 676Q778 625 795 625Q874 625 874 936T760 1550Q730
1630 694 1678Q619 1774 470 1774Q323 1774 261 1683Q209 1606 196 1467Q192 1427 189 1375T185 1314T182 1283T176 1247Q167 1203 160 1186Q164 1132 164 1096T156 1040Q160 1032 160 1003T163 923T168 846T178 751T189 655T195 577T201 492T209 416T226 339Q252
257 312 172T439 86Q551 86 636 123T803 248Q814 259 822 267Q840 285 848 287L866 268Q852 217 801 172T686 99Q549 39 446 39Q297 39 187 279Q185 304 174 327T160 360Q138 422 115 670T92 1024Q92 1435 174 1650Q217 1764 310 1804Q377 1833 455 1833T581 1820T663
1787T730 1731T782 1663T822 1580T853 1493T876 1396Q908 1234 911 1201T922 1123T931 1063T938 1014Q944 965 944 903Q944 565 792 565Q764 565 734 588T689 616Q653 528 570 487Q529 467 487 467ZM542 1400T527 1404T489 1409T447 1397T414 1367T392 1321T378
1268T370 1208Q366 1162 366 1094V831Q366 691 380 647T410 577Q439 526 502 526Q537 526 572 566T627 658T648 745V899Q648 933 645 964T641 1011T636 1050T631 1085T624 1124T617 1159Q608 1193 600 1243T590 1306T582 1338T570 1367T553 1389Z" />
<glyph unicode="A" glyph-name="A" horiz-adv-x="696" d="M567 600L590 66V44Q590 20 584 14Q568 0 549 0T518 10T506 35Q512 47 512 59L506 100V303Q506 330 398 349T238 369Q218 369 202 295T171 131T141 20Q93 20 78 45Q110 91 139 269T187 527T251 877T314
1221T340 1333T363 1418Q396 1536 422 1536Q454 1536 464 1522T482 1454T497 1318T511 1166Q530 950 534 882T553 784Q549 722 549 678T567 600ZM231 426Q317 397 438 397Q463 397 475 401L485 397Q504 397 504 416Q504 844 424 1339Q423 1345 420 1361T416 1386Q391
1315 389 1296L395 1284Q388 1277 372 1214T328 952T287 697T260 594Q231 492 231 438V426Z" />
<glyph unicode="B" glyph-name="B" horiz-adv-x="616" d="M514 473L508 385Q508 380 514 362Q495 218 461 160T385 70T274 8Q260 7 234 -2T193 -12Q113 -12 113 16L123 535L109 1389Q109 1536 162 1536Q302 1536 375 1446T449 1204T317 874Q346 831 384 781L440
705Q494 634 504 581T514 473ZM190 70L203 68Q266 68 350 132T445 246T457 371Q457 738 281 811Q261 810 227 800T180 788Q190 488 190 70ZM172 1378L180 887L186 885Q258 885 304 968Q341 1034 364 1103T395 1190V1268Q395 1338 344 1402T225 1466Q172 1466 172
1378Z" />
<glyph unicode="C" glyph-name="C" horiz-adv-x="696" d="M170 1008L152 860Q152 739 179 456T234 130Q288 47 395 47T553 106Q572 106 600 113L610 102Q610 4 454 -26Q417 -33 371 -33T261 13T172 115T121 463T96 977T109 1239Q102 1274 102 1305Q102 1428 190
1496T406 1565Q441 1565 482 1543T524 1489Q524 1466 492 1466Q483 1466 467 1478T441 1491T418 1487Q394 1495 369 1495T309 1485T250 1458T210 1413T184 1360T170 1294Q164 1237 164 1153L170 1008ZM403 1475H399H403Z" />
<glyph unicode="D" glyph-name="D" horiz-adv-x="702" d="M156 299L158 381Q158 501 144 660T127 858Q118 877 117 1114T113 1378T96 1440T82 1497Q82 1546 236 1546H246Q324 1546 414 1460T531 1305T568 1140T580 963T594 862L590 807L596 797L590 780L596 770Q584
751 584 713T580 643T572 593T559 540T530 426Q474 206 344 101T191 -4T143 6T115 37Q144 74 147 119L156 299ZM162 1450L180 1110Q180 978 195 719T211 368T207 166L211 158V100H221Q298 141 357 217T448 377T502 560Q535 722 535 874Q535 1473 205 1473Q164 1473
162 1450Z" />
<glyph unicode="E" glyph-name="E" horiz-adv-x="497" d="M199 61L322 68Q418 68 418 35Q401 5 357 -3T272 -12H224Q132 -12 118 2T104 33L123 109V113Q115 154 115 203L125 412L113 850L123 1257Q123 1294 110 1366T96 1473L133 1530L276 1548L283 1542Q331 1542
338 1530T346 1503Q346 1464 272 1464L217 1468Q172 1468 172 1444L188 1096L178 840L174 836L186 829L299 850Q310 850 323 839T336 815Q336 774 305 774L258 776Q180 776 180 737L195 565L188 553V137Q199 124 199 80V61Z" />
<glyph unicode="F" glyph-name="F" horiz-adv-x="438" d="M281 1481L231 1483Q156 1483 156 1436Q156 1336 171 1140T186 844Q210 844 255 856T318 868T346 854T356 827Q356 802 314 796T229 786T186 762Q186 646 205 417T225 72L219 61Q225 46 225 31Q225 -4
180 -4Q145 -4 145 135L147 201Q147 305 134 510T121 819Q121 1413 82 1462V1475Q82 1548 285 1548Q319 1548 319 1501Q319 1481 281 1481Z" />
<glyph unicode="G" glyph-name="G" horiz-adv-x="774" d="M571 463Q635 463 635 377Q635 316 655 195T676 12Q676 -20 649 -20Q600 -20 600 25Q600 26 601 30T602 35Q582 29 550 6T502 -22T454 -29T406 -41H410Q275 -11 208 53Q154 104 132 226Q94 429 94 877Q94
1053 104 1127T125 1257T153 1355T195 1440T251 1510Q321 1571 420 1571Q481 1571 481 1536Q481 1511 451 1511L393 1522Q236 1522 190 1235Q164 1079 164 827Q158 665 158 603T159 506T163 419T175 326T196 236T228 153T276 87Q332 25 433 25T600 127Q600 280
582 335T547 391L465 383Q418 383 418 418Q418 437 478 450T571 463Z" />
<glyph unicode="H" glyph-name="H" horiz-adv-x="602" d="M410 825L391 1520Q391 1528 395 1548Q434 1548 444 1494Q453 1447 453 1232T468 570T483 49Q492 31 492 19T481 -13T455 -33Q426 -33 426 12L428 59Q428 374 408 762L395 760L317 770Q215 770 172 745Q172
626 189 391T207 37Q207 6 186 6Q160 6 153 29T141 170T136 424T131 598Q94 1098 94 1532L127 1548L154 1526Q145 1450 145 1374L162 958L160 877Q160 836 168 805L408 821L410 825Z" />
<glyph unicode="I" glyph-name="I" horiz-adv-x="477" d="M360 8L295 18Q272 18 248 -6Q202 -6 190 10H185Q91 10 76 45Q76 68 123 68L168 66Q209 66 210 125T205 269T197 438T185 765T172 1114L174 1354Q174 1453 168 1473L98 1458Q76 1458 76 1486T166 1533T288
1552Q342 1552 342 1519T317 1485L268 1487Q233 1487 226 1454Q219 1427 219 1295T244 772T270 184L268 78L342 84Q395 84 395 33L360 8Z" />
<glyph unicode="J" glyph-name="J" horiz-adv-x="468" d="M330 305L319 137Q319 114 326 100L311 68Q307 -5 256 -80T145 -199Q102 -199 102 -160Q104 -141 137 -120T176 -92Q266 -2 266 221Q266 327 256 524T242 871Q231 1369 209 1489L100 1470Q88 1470 80 1479T72
1501Q72 1552 354 1552Q368 1552 377 1543T387 1520Q387 1489 292 1489H270L268 1450Q268 1396 280 1288T293 1084T311 715T330 305ZM209 -25Q211 -25 211 -27L209 -25Z" />
<glyph unicode="K" glyph-name="K" horiz-adv-x="690" d="M565 -47L537 -39Q497 198 415 489T266 909L260 905Q254 881 217 818T176 719T172 575L182 123Q182 -6 139 -6Q102 -6 102 88T115 372T129 657Q129 657 121 1393L117 1401L102 1497Q102 1540 137 1540Q155
1540 162 1536T176 1508Q186 1472 186 1303L178 864H180Q221 951 289 1121T367 1313Q478 1597 512 1597Q547 1597 547 1567Q542 1530 521 1496T495 1451T461 1379T411 1272T364 1165Q307 1034 303 993L313 975L305 969Q375 793 466 461T606 -8Q603 -47 565 -47Z"
/>
<glyph unicode="L" glyph-name="L" horiz-adv-x="475" d="M293 0L229 2Q218 2 201 -10T170 -23T142 -10T127 20L139 113L119 694L98 1550Q98 1571 125 1571Q164 1571 164 1534Q164 1061 174 935T184 778T180 698L186 690Q182 636 182 581T192 368T205 145Q197
133 197 104T206 65T247 55T289 68H365Q393 54 393 36Q393 -4 365 -4Q358 -4 334 4Q324 0 293 0Z" />
<glyph unicode="M" glyph-name="M" horiz-adv-x="856" d="M633 1554Q639 1587 682 1587Q689 1587 698 1577T707 1559Q700 1422 700 1296T716 861T733 446T731 315T736 224T743 60T713 -53V-47L705 -55L666 -39V-33Q666 -20 672 -8L664 10Q668 132 668 197L653
870L657 1100Q657 1135 654 1198T649 1282Q645 1278 645 1268Q639 1135 587 864Q554 655 502 483Q499 472 491 453Q473 410 473 387L479 377Q477 370 470 324Q454 223 414 223Q369 223 366 382Q366 408 361 449T270 895T172 1317Q164 1132 164 903L170 252L180
57Q180 20 164 4Q106 4 106 111L117 453L109 868L115 1354Q115 1471 113 1530L152 1552Q200 1546 332 897Q359 761 374 696T395 604T408 538Q424 461 424 426Q436 457 463 595L492 739Q504 797 547 1033T605 1335Q634 1468 637 1544L633 1554ZM250 1010H252H250Z"
/>
<glyph unicode="N" glyph-name="N" horiz-adv-x="772" d="M621 111L627 37Q627 -23 575 -23Q539 -23 526 54Q519 90 518 94Q318 725 266 1016Q264 1025 263 1044Q261 1085 244 1102L248 1112Q235 1188 229 1217T214 1284Q200 1349 178 1401Q172 1359 172 1337T176
1303Q162 1255 162 1161V600Q162 502 176 308T190 16L176 0H129L123 16Q127 32 127 98L104 811V1079L119 1466L117 1509Q117 1535 130 1543T165 1552T203 1540T219 1500T228 1441T254 1370T280 1298T298 1194T317 1067T353 919T410 713T452 565T476 474Q508 360
510 313Q524 292 531 232T565 150Q578 179 578 248L586 961L580 1278L586 1356Q586 1378 580 1382L586 1399Q586 1525 578 1567Q586 1595 629 1595Q662 1595 662 1528Q649 1502 649 1460L651 1391Q651 1347 643 1329L637 682Q637 663 641 627L637 618V360L641 283Q641
161 621 115V111Z" />
<glyph unicode="O" glyph-name="O" horiz-adv-x="696" d="M586 618L567 354L571 346Q555 277 555 222T533 109T468 4T374 -43T281 -5T210 92T160 233T126 393T106 556Q94 696 94 798T103 1032T113 1201T115 1268T120 1337T130 1408T150 1471T182 1524Q224 1571
299 1571T424 1530Q431 1519 460 1481T504 1409T537 1239Q586 889 586 618ZM303 1518Q152 1518 152 911V831Q152 689 173 526T218 260T284 86T379 14Q449 14 481 156T519 410Q526 562 526 608V657Q526 695 526 721T524 808T520 916T512 1030T498 1149T478 1261T450
1364T412 1444Q369 1518 303 1518Z" />
<glyph unicode="P" glyph-name="P" horiz-adv-x="540" d="M184 725L201 51Q201 21 193 5T158 -12T131 59L139 426L123 758Q123 986 118 1133T111 1330T108 1404Q103 1483 90 1536Q109 1565 143 1565Q216 1565 274 1531T368 1442Q440 1327 440 1207T397 963Q343
806 259 771Q232 760 222 748Q205 730 184 725ZM156 1505L180 805L184 801Q205 803 215 812T236 833T250 848Q383 981 383 1182Q383 1252 377 1294T343 1374T294 1430T236 1474T193 1505H156Z" />
<glyph unicode="Q" glyph-name="Q" horiz-adv-x="727" d="M106 915L104 1040Q104 1577 307 1577Q379 1577 449 1519T532 1391Q588 1075 588 594Q588 317 549 201Q534 158 461 53Q462 38 470 15T482 -18T489 -69T497 -139T521 -192T573 -217Q645 -217 645 -244Q645
-283 567 -283Q559 -283 535 -270T506 -256Q467 -239 448 -193T416 -71T397 27H303Q151 135 115 328Q96 431 96 573L106 915ZM154 676V590Q154 376 215 220Q238 162 279 121T373 80L387 90Q391 104 411 105T438 111Q503 168 507 302Q508 333 508 376T509 438T517
491T524 543V821Q516 841 516 892T513 990T501 1110T490 1205T485 1259T481 1308T475 1354T465 1399T450 1437T427 1472T394 1497Q359 1520 293 1520Q154 1520 154 676Z" />
<glyph unicode="R" glyph-name="R" horiz-adv-x="591" d="M121 1501L117 1538Q117 1556 158 1556Q242 1556 286 1509T345 1408T368 1326Q385 1265 385 1231Q385 1128 328 983Q291 891 291 881Q291 781 371 478T502 47Q502 -20 475 -20Q454 -20 441 -2T424 20Q418
100 372 242T315 432T277 626T229 850L213 862L174 846V78L178 27Q178 -14 141 -14Q126 -14 116 -5T106 20L113 31L121 1274V1501ZM178 1491L168 1044Q168 956 174 913H178Q193 913 231 955T284 1022T308 1105T317 1201T312 1282T294 1373T256 1454T195 1487V1493L178
1491Z" />
<glyph unicode="S" glyph-name="S" horiz-adv-x="569" d="M395 692L393 684Q393 683 440 526Q471 404 471 338T456 209T411 88T330 -7T231 -45T163 -43Q104 -37 80 6Q80 31 101 31T159 16T229 0T299 38T357 132Q397 246 397 345T367 548T294 736T207 906Q104 1108
104 1288Q104 1437 194 1526Q243 1573 309 1573Q330 1573 363 1557T403 1522L391 1499Q345 1499 324 1520Q275 1520 240 1483Q174 1415 174 1305Q174 1224 187 1171T207 1089T232 1018T258 954T291 885T323 823T360 756T395 692Z" />
<glyph unicode="T" glyph-name="T" horiz-adv-x="542" d="M342 545L352 68Q352 -12 317 -12Q296 -12 285 16T274 70L291 406Q291 514 277 732T262 1061L264 1253Q264 1464 229 1464L113 1452Q98 1452 84 1461T70 1487Q70 1508 206 1527T422 1546Q437 1546 451
1536T465 1511Q465 1481 426 1481Q426 1481 350 1487Q315 1487 307 1466Q322 1337 322 1200L319 952Q319 710 348 604Q342 574 342 545Z" />
<glyph unicode="U" glyph-name="U" horiz-adv-x="743" d="M627 426L629 297Q629 124 584 42Q565 8 529 -15T436 -39T331 -9T257 68T212 175T184 290Q161 432 139 473Q139 636 119 960T98 1448L84 1491Q84 1505 94 1518T119 1532Q170 1532 170 1382L188 690Q196
680 198 641Q208 499 217 459Q213 435 213 407T232 313T283 183T362 73T446 27T501 35T529 52T545 84T554 117T558 158T560 194T559 213L565 281V514L551 637L539 1004V1030L530 1042Q539 1100 539 1159L520 1507Q520 1523 534 1531T565 1540L600 1507L594 1491L600
1475L586 1352L606 983L616 627L623 625Q621 611 621 582L627 438L633 432L627 426Z" />
<glyph unicode="V" glyph-name="V" horiz-adv-x="669" d="M375 -18Q368 -18 344 -10Q307 139 238 596T134 1267T74 1526Q81 1548 115 1548Q148 1548 158 1474Q160 1464 174 1388T248 891T362 242Q373 302 378 359T426 777Q502 1430 502 1516V1524Q532 1554 553
1554L565 1546H561L582 1530Q582 1487 568 1403T553 1276Q532 1238 474 692T414 27Q397 -18 375 -18ZM362 236L358 231H365L362 236Z" />
<glyph unicode="W" glyph-name="W" horiz-adv-x="950" d="M440 1053L438 1049Q431 1015 430 947T412 799T372 418T348 6Q348 -1 336 -14T311 -27T286 -14T271 25T264 70Q262 103 261 148T254 240T236 345T220 442T182 754Q97 1477 74 1513Q89 1540 113 1540T153
1503T175 1404T187 1287T193 1174T203 1038T250 688T303 309H307Q307 406 322 531T341 689T353 767T365 840T373 992T384 1155T394 1238T401 1309L399 1346Q399 1372 428 1386Q489 1386 489 1350L479 1323Q479 1095 564 779T649 246L655 242Q661 266 666 365T698
671T730 963T756 1227T778 1503L776 1542Q776 1591 829 1591Q842 1591 855 1582T868 1555T846 1520Q848 1516 848 1507Q848 1494 840 1462Q826 1343 800 1011T733 440T692 53V23Q692 -1 685 -14T655 -27Q607 -27 581 288Q573 383 518 652T446 1049L440 1053ZM655
236Q651 236 651 233L655 236ZM334 1161V1157V1161Z" />
<glyph unicode="X" glyph-name="X" horiz-adv-x="565" d="M430 27Q393 27 393 53T390 111T382 165T372 225Q327 481 289 629Q280 614 228 373T170 95T162 48Q155 1 140 -6Q126 -12 116 -12T94 -4T82 14T90 54T112 122Q145 223 181 400T224 613T236 668T245 717Q254
771 254 831T242 966T205 1145T174 1279T145 1381T121 1495Q137 1522 154 1522T181 1512T192 1491T195 1461T202 1406T242 1226T289 1004Q328 1107 343 1190Q371 1352 374 1368T381 1410T387 1456T398 1501Q411 1552 438 1552Q475 1552 475 1533T463 1483T436 1403T393
1203T355 1011T344 951T334 898Q324 835 324 791L432 238L428 227Q428 198 445 144T463 70T453 38T430 27ZM287 635H283Q283 633 287 633V635Z" />
<glyph unicode="Y" glyph-name="Y" horiz-adv-x="505" d="M289 -25Q260 -25 260 25L270 420Q270 420 256 586Q256 619 244 682T231 769T226 822T210 892T196 955T172 1078Q131 1287 103 1382T74 1504Q74 1546 115 1546L139 1530Q144 1447 192 1207T268 930Q300
1024 312 1165T332 1380Q350 1540 389 1540Q420 1540 420 1518Q420 1502 412 1474T401 1423T378 1292T349 1128Q322 965 322 829L328 762L315 731V715L330 469Q330 192 326 55L332 49L334 35Q334 12 323 -6T289 -25Z" />
<glyph unicode="Z" glyph-name="Z" horiz-adv-x="471" d="M352 -10L109 -18Q88 -18 78 8Q122 85 143 185T177 407T203 588Q268 1078 292 1235Q322 1441 324 1499Q324 1499 186 1489Q94 1489 94 1530L109 1546Q125 1542 158 1542Q158 1542 350 1563Q383 1563 383
1526Q361 1477 354 1371T338 1209T281 775T199 195Q196 173 174 121T152 39L285 49Q371 49 371 8L352 -10Z" />
<glyph unicode="[" glyph-name="bracketleft" horiz-adv-x="514" d="M408 1489L293 1501Q231 1501 231 1458Q231 1163 206 783T172 246T152 51V2L143 -14Q150 -15 210 -18Q354 -25 354 -68Q354 -88 309 -88T176 -75T88 -35Q88 50 109 218T131 513T157 976T184
1481Q184 1491 175 1505T164 1528L205 1552Q440 1552 440 1511Q440 1501 430 1495T408 1489Z" />
<glyph unicode="\" glyph-name="backslash" horiz-adv-x="559" d="M82 1505Q82 1532 113 1532Q127 1532 136 1491T206 1220T338 672T432 272Q475 103 475 31Q475 7 455 -6Q430 -4 421 20T409 58T401 92T395 121L354 299Q335 382 295 548T232 815Q167 1090 145
1206T111 1368Q82 1488 82 1505Z" />
<glyph unicode="]" glyph-name="bracketright" horiz-adv-x="516" d="M252 1499L137 1491Q78 1491 78 1511Q78 1537 131 1542T214 1550Q264 1552 313 1552L354 1528Q352 1520 343 1506T334 1481Q334 1319 361 996T389 546T409 238T430 -35Q430 -61 343 -74T210
-88T164 -68Q164 -25 308 -18Q368 -15 375 -14L367 2V51Q351 86 328 539T302 1116T293 1326T287 1446T280 1489T252 1499Z" />
<glyph unicode="^" glyph-name="asciicircum" horiz-adv-x="319" d="M117 1575Q117 1632 156 1632Q178 1632 192 1619T207 1583Q207 1538 166 1538Q117 1538 117 1575Z" />
<glyph unicode="_" glyph-name="underscore" horiz-adv-x="565" d="M100 1090Q100 1374 199 1413Q237 1413 286 1397T336 1362Q381 1307 411 1095T446 743L451 737Q451 693 464 607T477 477V299Q464 271 456 203T436 104Q412 39 317 39Q152 39 137 338Q135 371
125 516T112 723Q100 923 100 1090ZM145 920Q145 653 170 463Q170 244 226 156Q254 114 297 84Q362 84 391 134Q434 210 434 330T414 580T381 869T365 1060T358 1125T351 1180T342 1234T325 1288T301 1332Q273 1374 217 1374Q145 1374 145 1006V920ZM285 1561L270
1587Q270 1645 322 1645Q344 1645 361 1633T379 1599T360 1560T317 1544L285 1561Z" />
<glyph unicode="`" glyph-name="grave" horiz-adv-x="550" d="M207 1622Q187 1618 174 1618Q104 1618 104 1659Q104 1695 117 1704Q191 1704 209 1681Q211 1680 233 1673T272 1659T314 1643T360 1623T399 1604Q438 1582 438 1565Q438 1558 430 1553T416 1548T313
1582T207 1622Z" />
<glyph unicode="a" glyph-name="a" horiz-adv-x="667" d="M367 305L313 303Q284 315 249 315T211 313T207 306T205 299L201 258Q197 206 182 133Q154 -10 123 -10Q110 -10 96 1T82 25Q108 102 136 258T171 452T197 608T222 762T254 922T286 1083T299 1186Q316
1346 326 1364L354 1362Q379 1362 391 1374Q404 1374 416 1366T428 1343Q428 1245 453 964T492 601T526 439T545 317L535 289Q535 243 552 154T569 28T553 -18Q511 -18 502 -6T492 32T489 97T482 159T470 231T459 295Q420 305 367 305ZM223 406Q223 385 272 371Q347
350 438 350H459Q446 390 446 442V489Q446 616 415 859T381 1221Q274 692 249 568T223 406Z" />
<glyph unicode="b" glyph-name="b" horiz-adv-x="530" d="M121 1329Q121 1382 164 1382Q192 1382 269 1358T348 1315Q346 1311 346 1309Q384 1249 397 1189T410 1007T377 795H379Q371 776 348 742T319 698Q359 667 382 610T411 507T420 399L422 346V317Q422 121
300 27Q235 -23 143 -23Q125 -23 115 -11T103 21T102 84L123 516L119 698L131 1188Q131 1266 129 1307L121 1317V1329ZM172 150L174 57Q250 57 304 128T358 279V282Q359 300 359 317T358 375T351 451T334 528T304 599Q262 668 188 668Q178 515 178 398T184 248Q172
226 172 150ZM184 934L182 791V766L190 739H205Q340 739 340 1012Q340 1049 334 1139L330 1143Q317 1313 227 1313Q182 1313 182 1044L184 934Z" />
<glyph unicode="c" glyph-name="c" horiz-adv-x="550" d="M174 827L166 414Q166 241 199 166Q237 78 296 52Q334 35 373 35T434 53Q465 53 465 31Q465 15 438 -4T387 -33H319Q306 -26 271 -15T207 17T151 88T114 204Q96 312 96 446V680Q96 953 116 1054Q156 1259
225 1313Q243 1327 280 1341T332 1364H414Q416 1364 419 1363T425 1362T430 1360T435 1359T440 1357T444 1354Q453 1345 453 1333L426 1303H340Q298 1303 267 1264T220 1170T193 1045Q178 938 178 838L174 827Z" />
<glyph unicode="d" glyph-name="d" horiz-adv-x="653" d="M537 717Q537 636 547 618Q534 551 524 437T499 263T462 160Q408 58 283 -10H141Q123 -10 123 45Q115 204 115 401L119 885Q119 1098 111 1270Q94 1284 94 1305T111 1341T142 1356T173 1340T200 1319T243
1309T299 1292T373 1233T442 1171L440 1167Q442 1154 470 1115T506 1057Q539 968 539 813L537 717ZM477 592L475 666L465 872Q461 988 394 1118Q363 1180 312 1221T201 1262Q178 1262 178 853T201 119L199 80L207 76L213 49H276Q288 66 306 80T332 100Q477 231
477 592Z" />
<glyph unicode="e" glyph-name="e" horiz-adv-x="491" d="M109 16L111 68L104 76Q119 117 119 160L109 430L123 1047L115 1292Q115 1350 174 1350Q197 1350 207 1337Q214 1335 266 1329Q392 1315 395 1278Q395 1262 356 1239Q243 1276 190 1278L180 1266Q182 1237
182 1178L174 860Q174 803 203 803L272 807Q350 807 352 770Q352 749 342 733T304 717T264 733L197 743H188L178 733V727Q182 674 182 565L178 274Q178 70 206 48Q224 33 272 33L348 37Q408 37 408 10Q408 -27 319 -27H150Q112 -27 109 16Z" />
<glyph unicode="f" glyph-name="f" horiz-adv-x="526" d="M176 346L188 53Q188 -29 139 -29L98 2Q117 199 117 418T131 912T145 1325Q145 1344 163 1354T220 1364T352 1349T446 1305Q446 1270 373 1270Q336 1290 289 1290T235 1288T226 1283T221 1269T213 1247L193
815V743Q193 736 228 736Q330 738 330 705Q330 688 314 677T281 666L213 678Q176 678 176 578V346ZM111 1014V1012Q111 1010 109 1010T106 1012T109 1014H111Z" />
<glyph unicode="g" glyph-name="g" horiz-adv-x="688" d="M563 406L571 92Q465 -14 362 -14Q226 -14 184 42T117 302T92 592T102 783T118 981T139 1140Q188 1356 371 1356Q434 1356 434 1327Q434 1313 421 1305T393 1296L354 1300Q285 1300 246 1212Q204 1114
194 1031T178 899T171 787Q168 692 168 610T174 479Q190 454 195 398T203 284T219 171T273 80T385 45Q508 45 508 372V522Q487 543 436 543L397 541Q348 541 348 565Q348 600 397 600Q586 600 586 559L563 406Z" />
<glyph unicode="h" glyph-name="h" horiz-adv-x="606" d="M383 1356T394 1365T412 1374T455 1362Q455 1202 468 884T481 371T494 0L481 -23Q479 -2 418 -2Q408 453 408 547L403 555L410 573Q410 605 403 649L371 657Q353 651 330 651L199 672L178 664L172 406L178
397L190 55Q190 2 156 2Q111 2 111 125L115 500Q115 686 109 700Q119 720 119 836Q119 836 104 1315Q104 1329 114 1341T139 1354Q180 1354 180 1235L172 735Q172 711 336 711Q375 711 392 725T410 806T397 1060T383 1343Q383 1356 394 1365ZM352 739L356 735H352V739Z"
/>
<glyph unicode="i" glyph-name="i" horiz-adv-x="550" d="M424 16L356 23Q340 23 318 12T266 0T227 20L193 18Q149 18 137 39Q137 52 148 60T164 74H223L231 82L238 125Q238 125 223 573L233 1051Q233 1190 223 1288Q203 1294 162 1294L113 1290Q74 1290 74 1325Q74
1334 92 1342T123 1350Q408 1350 408 1288Q408 1282 403 1272L356 1268Q340 1280 297 1280L287 1274Q293 1256 293 1165L287 678L301 229L299 166Q299 118 305 109L303 104Q303 84 348 84L408 86Q469 86 469 57Q469 39 456 28T424 16Z" />
<glyph unicode="j" glyph-name="j" horiz-adv-x="573" d="M72 -205L70 -197Q70 -188 143 -141T225 -84Q258 -47 274 29T291 172Q291 172 272 1260L260 1282Q251 1286 210 1292Q111 1305 111 1335Q111 1343 128 1351T178 1360T353 1331T496 1275T463 1247L352 1268Q334
1268 334 1227L354 377V152Q342 125 342 75T329 -26T292 -130T226 -217T133 -252H119L72 -205Z" />
<glyph unicode="k" glyph-name="k" horiz-adv-x="677" d="M342 930L338 799Q338 706 408 458Q493 160 552 80Q592 27 592 4Q592 -37 557 -37Q509 -37 442 147T328 527T279 795L274 803Q267 788 242 737T206 663Q176 592 176 518L166 371V109L180 -8Q180 -19 170
-26T140 -33T112 -25T102 10V395L121 653L141 1049V1333Q152 1356 173 1356T207 1344T219 1317Q201 1284 201 1216T197 1003T193 786Q213 794 352 1068T506 1343Q558 1343 561 1309Q433 1121 342 930Z" />
<glyph unicode="l" glyph-name="l" horiz-adv-x="497" d="M188 47L381 41H387Q398 41 408 30T418 6Q418 -17 385 -20Q332 -18 215 -18L219 -20L143 -27Q114 -27 109 20Q113 40 113 88L125 1180L135 1315Q135 1329 150 1329L184 1321Q184 1321 182 1159L184 713Q178
545 178 541L182 367L176 350L178 352L176 336Q176 319 182 307L176 111V98Q176 66 178 57T188 47Z" />
<glyph unicode="m" glyph-name="m" horiz-adv-x="1054" d="M930 408L926 193Q926 50 946 -20Q950 -32 950 -46T938 -83T905 -106Q864 -106 864 25Q864 452 858 545T844 697T836 786L844 1040Q844 1112 836 1137Q796 1105 590 274Q588 267 586 244T580 202T570
161Q557 115 528 115Q494 115 481 131T467 182Q467 266 361 690T219 1149Q214 1039 201 812Q174 339 174 177T176 -12Q167 -39 133 -39Q126 -39 112 -28T98 -10Q98 206 130 636T162 1282L150 1321Q150 1352 205 1352Q236 1352 245 1320Q252 1295 253 1269T261 1209T313
1071T370 929T396 838Q429 721 440 662L467 608Q473 574 490 508Q524 369 526 287Q550 323 655 710T769 1149T783 1226T791 1268T802 1306Q817 1348 852 1348Q865 1348 884 1336T903 1311Q903 453 930 408ZM836 1149H834L831 1147L836 1145V1149Z" />
<glyph unicode="n" glyph-name="n" horiz-adv-x="862" d="M682 1247L678 1298Q678 1341 707 1341Q727 1341 739 1322T752 1282V1145L741 1128Q741 968 719 509T676 6Q671 5 647 -1T612 -8T594 5T582 41T573 70L575 76Q562 161 522 270T469 418Q462 427 414 571Q230
1142 182 1188Q166 1125 166 1044L170 883L166 784Q166 761 174 641H168Q168 300 182 264V80Q190 66 190 44Q190 -4 152 -4Q109 -4 109 106L117 240L104 829L117 1192V1228Q117 1255 118 1264T121 1285T126 1305T133 1321Q141 1339 154 1350L160 1343L180 1348Q203
1340 208 1316Q208 1314 210 1305T213 1294Q248 1148 360 887T496 552T539 394Q581 210 631 125L635 131Q682 578 682 1247ZM639 -2Q641 -2 641 -4L639 -2Z" />
<glyph unicode="o" glyph-name="o" horiz-adv-x="673" d="M559 791L563 547Q563 86 415 -14Q379 -39 334 -39Q94 -39 94 715Q94 1006 134 1220Q164 1376 225 1376Q239 1376 251 1365T285 1347T344 1332T398 1322Q439 1315 477 1243Q563 1097 563 801L559 791ZM158
717L162 555Q162 360 206 184Q222 118 253 69T325 20T396 50T445 133T475 242T492 367Q500 477 500 563L477 1047L469 1063L473 1073Q473 1162 423 1228T301 1294H215Q198 1294 185 1112T168 909L158 717Z" />
<glyph unicode="p" glyph-name="p" horiz-adv-x="522" d="M180 395L197 -4Q197 -41 158 -41L129 -25Q106 98 106 270L115 651Q102 681 102 698Q123 733 123 887Q123 1252 111 1284Q131 1335 141 1335H231Q256 1335 297 1313T365 1268Q416 1221 416 1026Q416 853
401 817T369 753T326 707Q269 666 180 639V395ZM178 1217L188 922L180 729L193 709Q343 709 350 1024Q350 1046 350 1079T348 1135T339 1186T318 1231Q287 1272 223 1272Q196 1272 187 1259T178 1217Z" />
<glyph unicode="q" glyph-name="q" horiz-adv-x="688" d="M520 -434Q414 -434 385 -401Q385 -310 364 -200T338 -68Q232 -47 184 8Q130 69 112 263T94 707Q94 1356 297 1368Q311 1362 341 1355T400 1334T463 1286T517 1205T550 1113T569 1010Q578 923 578 817V721Q578
570 555 380Q510 9 434 -39Q431 -41 420 -46Q395 -57 395 -70Q395 -147 417 -246T444 -365Q459 -380 490 -379Q547 -377 547 -405T520 -434ZM147 702L154 664V575Q154 -14 313 -14L373 -2Q414 -2 449 114T500 346T516 514V872Q516 1315 291 1315Q226 1315 194 1177Q147
971 147 702Z" />
<glyph unicode="r" glyph-name="r" horiz-adv-x="550" d="M102 1288Q102 1366 147 1366Q247 1366 312 1316T377 1167V1018Q377 939 297 792Q270 743 270 739T347 415T429 85T449 43T465 -12T442 -35L412 -25Q364 29 307 375Q252 709 213 709H205Q160 709 160 680Q160
568 173 308T195 16L180 -18H150L135 -2Q102 885 102 1288ZM160 1260L168 764L172 760Q211 760 242 800T289 899Q322 1019 322 1081T318 1174T301 1241Q274 1313 184 1313Q172 1313 166 1294T160 1260Z" />
<glyph unicode="s" glyph-name="s" horiz-adv-x="489" d="M303 1305L260 1317Q228 1317 204 1292T168 1228Q143 1154 143 1112T145 1052T152 1010T160 976T171 935T182 899L197 862Q217 826 249 772T297 689T334 616T364 533Q389 438 389 363T383 242T361 148T320
64Q265 -20 166 -20L156 -25Q96 -14 90 25L100 41L174 27Q221 27 255 63T306 156Q336 260 336 348T311 515T249 659T177 789Q90 946 90 1098Q90 1176 118 1247Q169 1378 252 1378Q275 1378 302 1361T330 1321Q330 1305 303 1305ZM317 1313V1311H319Q319 1313 317
1313Z" />
<glyph unicode="t" glyph-name="t" horiz-adv-x="544" d="M418 1284L307 1298L297 1286L301 1278Q297 1270 297 1161T331 652T365 51Q365 36 353 24T326 12L303 29L299 178L303 250Q303 278 295 299Q295 473 271 806T244 1298Q83 1298 72 1337Q81 1360 111 1360L389
1341L426 1343Q463 1343 463 1317Q463 1303 448 1294T418 1284Z" />
<glyph unicode="u" glyph-name="u" horiz-adv-x="651" d="M520 920L522 879Q518 827 517 739T514 572T508 401T492 236Q464 62 401 4Q333 -60 242 -9Q203 13 177 46T134 258T115 637Q106 1235 96 1319L109 1348Q156 1342 156 1235L162 692L184 258Q184 25 338
25Q433 25 458 454Q460 483 467 731T475 1329L471 1366Q471 1389 500 1389T535 1376T541 1255T528 1096Q530 1092 530 1083Q530 1083 520 920Z" />
<glyph unicode="v" glyph-name="v" horiz-adv-x="714" d="M602 1395Q625 1388 625 1369T620 1320T606 1252T593 1192T558 1036T516 829T492 624T473 446T448 327T424 229T418 173T412 108T400 45Q384 -25 336 -25L313 -6Q313 328 131 1130Q128 1144 114 1194Q76
1330 76 1339T85 1357T105 1366T128 1349T148 1303T162 1247T173 1193T185 1136T205 1054T226 956T247 851T266 754T284 649T300 553T316 448T330 352T345 247T360 147Q402 286 430 540T512 1062T575 1384L602 1395ZM358 141L356 137L358 133V141ZM301 1106V1102H299Q299
1106 301 1106Z" />
<glyph unicode="w" glyph-name="w" horiz-adv-x="847" d="M592 -68Q557 -68 557 23Q553 77 535 177T513 308T493 533Q453 1018 418 1053Q397 822 397 770T389 633T359 411T336 256T329 198T320 123T306 46Q290 -43 264 -43Q233 -43 217 48T190 310T176 514T154
670T133 841T126 967T119 1090Q111 1223 78 1311Q87 1327 105 1327T133 1315T145 1281T150 1240Q152 1202 154 1158T199 765T246 231Q252 216 256 176T268 121H270Q293 271 298 317T314 435T328 547T338 648Q347 741 351 872T367 1082T379 1188L416 1204Q429 1204
440 1197T451 1179T446 1159Q540 841 560 422Q567 262 596 186Q623 261 639 543T655 937T668 1154T682 1297T674 1348Q674 1380 715 1380Q732 1380 737 1376T743 1338T733 1268L737 1255Q719 1174 719 1110T723 1040L711 999L717 985Q711 973 711 966T717 922L711
913Q711 839 695 591T673 304T658 223T647 156Q647 -68 592 -68ZM596 178V176H598Q598 178 596 178Z" />
<glyph unicode="x" glyph-name="x" horiz-adv-x="518" d="M178 45Q178 -6 147 -6Q109 -6 109 18Q109 118 166 337T223 634T169 968T94 1247L96 1262Q96 1275 87 1291T78 1315T91 1329T117 1335T140 1316Q157 1286 160 1212Q186 1143 211 1008T254 817Q267 844
287 982T316 1233T338 1350Q343 1351 354 1353T371 1356L389 1331Q356 1282 356 1151L358 1126L356 1124Q350 1063 316 900T281 645Q281 611 334 372T396 110T412 74Q428 49 428 33Q428 4 397 4Q383 4 371 10Q359 59 333 165Q279 386 256 508Q233 474 211 294T174
70Q178 62 178 45ZM391 643V641V643Z" />
<glyph unicode="y" glyph-name="y" horiz-adv-x="561" d="M350 442L352 117Q352 -31 309 -31Q302 -31 292 -23T279 -8Q299 42 299 350Q299 410 292 521T283 666L270 692L276 717Q250 777 180 976Q78 1261 76 1307L104 1329Q124 1326 164 1199T242 943T297 811L305
848L301 858Q316 876 340 1003T393 1245T447 1360T473 1338T451 1239T410 1097T382 998T360 910Q336 810 336 723Q346 698 346 688L334 629L350 442Z" />
<glyph unicode="z" glyph-name="z" horiz-adv-x="538" d="M309 12L188 18Q165 18 144 7T115 -4Q84 -4 84 27Q84 62 108 148Q167 362 191 479T229 652T288 848Q387 1159 387 1303L195 1290Q183 1290 175 1300T166 1323Q166 1356 393 1356Q444 1356 444 1323Q444
1253 394 1099T344 915Q333 859 282 688Q154 262 152 63Q172 59 211 59L297 66Q356 66 356 39T309 12Z" />
<glyph unicode="{" glyph-name="braceleft" horiz-adv-x="696" d="M90 188L96 403L104 645Q104 734 45 739Q37 742 37 757T53 776Q104 776 104 872L90 1305Q90 1420 126 1482T221 1544Q243 1544 271 1533T299 1509Q299 1487 266 1487L225 1495Q152 1495 152 1296V1044L158
887Q158 838 148 807T104 758Q137 741 147 711T158 631L152 420V197Q152 -2 225 -2Q284 -2 291 -10T299 -29Q299 -51 231 -51T126 11T90 188Z" />
<glyph unicode="|" glyph-name="bar" horiz-adv-x="514" d="M193 2L186 -68Q186 -88 160 -88T131 -85T127 -32T139 199T152 509T168 976T184 1406T184 1504T187 1521T193 1538Q204 1552 225 1552Q238 1552 238 1530Q238 1340 219 952T199 354T193 51V2Z" />
<glyph unicode="}" glyph-name="braceright" horiz-adv-x="696" d="M246 1305L240 1090L231 848Q231 759 291 754Q299 751 299 736T283 717Q231 717 231 621L246 188Q246 73 210 11T115 -51Q90 -51 64 -43T37 -23Q37 0 70 0L111 -2Q184 -2 184 197V449L178 606Q178
656 188 686T231 735Q198 752 188 782T178 862L184 1073V1296Q184 1495 111 1495H80Q37 1495 37 1516Q37 1528 63 1536T115 1544Q174 1544 210 1482T246 1305Z" />
<glyph unicode="~" glyph-name="asciitilde" horiz-adv-x="653" d="M487 1149L475 1188Q481 1200 500 1200T531 1178T543 1122T510 1055T437 1022T360 1043T304 1084T252 1143L238 1149H201Q198 1137 180 1124T162 1099T172 1051L150 1020Q137 1020 124 1031T111
1055Q111 1118 143 1159T236 1200Q302 1166 317 1155Q332 1125 357 1100T401 1075T426 1077L440 1073Q445 1087 460 1096Q487 1112 487 1149Z" />
<glyph unicode="&#xa1;" glyph-name="exclamdown" horiz-adv-x="329" d="M88 1483Q114 1535 147 1538Q157 1539 160 1548Q211 1545 211 1495Q211 1463 196 1441T155 1419T109 1441T88 1483ZM150 350L145 700V1192Q145 1192 147 1200H174L168 1190Q184 1151 184
1069L182 979Q182 815 203 490T225 0Q225 -27 202 -27T157 -10T135 29L150 350Z" />
<glyph unicode="&#xa2;" glyph-name="cent" horiz-adv-x="651" d="M365 221L371 27Q371 15 363 12T346 14T338 25L334 23Q330 137 330 203V330Q214 377 186 403Q130 455 121 512Q94 632 94 842Q94 1154 258 1243L248 1370Q248 1436 274 1436L287 1427Q285 1409
285 1362T295 1239Q303 1236 338 1225T401 1205T453 1176T477 1142Q477 1108 459 1108T425 1132T403 1163T373 1176T340 1194H303L301 1198Q301 1067 331 814T362 430L360 401Q360 383 377 369Q455 369 504 426Q524 449 551 489Q573 489 573 451T502 369T385 326H367L365
221ZM162 977Q145 837 145 788Q145 397 307 397L315 401Q315 550 283 870Q270 1085 250 1161Q211 1155 185 1075T162 977Z" />
<glyph unicode="&#xa3;" glyph-name="sterling" horiz-adv-x="757" d="M586 49L492 55L485 51Q447 74 340 86L305 90Q249 90 212 77T113 27Q82 33 82 50T104 83T159 115T201 135Q238 162 255 237T272 385T254 541T204 731T160 889L150 887Q139 887 130 894T121
915Q121 944 147 944L123 1235Q123 1319 140 1416Q174 1606 244 1606H309Q353 1606 403 1526T453 1399L434 1378Q408 1378 399 1400T387 1425V1462Q383 1467 374 1498T346 1530Q315 1561 283 1561L266 1554L250 1540Q219 1540 197 1432T174 1268V1184Q185 1157
186 1097T190 993T207 950Q243 950 314 963T410 977Q451 977 451 950Q451 918 426 918Q305 918 207 899Q213 885 217 859T223 827T232 801T240 772Q240 717 281 584T322 392T315 299T290 213T266 143Q316 143 414 121T563 98T653 115L682 94Q682 49 586 49Z" />
<glyph unicode="&#xa4;" glyph-name="currency" horiz-adv-x="868" d="M383 1264Q496 1264 604 1190Q617 1192 638 1226T684 1295T733 1329L762 1298Q760 1282 714 1224T668 1150T713 996T758 772Q758 659 708 490Q690 428 690 398T709 337T748 284T768 248Q768
219 741 219Q686 219 686 258Q647 328 643 334Q550 231 399 231Q351 231 303 258T219 326Q207 326 196 301Q161 227 131 227Q107 227 99 240T90 279Q90 283 132 329T180 395Q145 452 145 555T150 747T173 940T219 1075Q219 1097 170 1148T121 1212Q121 1235 144
1235T186 1219T223 1177T252 1141Q260 1147 290 1179Q370 1264 383 1264ZM313 1075Q313 1030 284 1032Q271 1032 266 1024Q248 998 230 873T211 715T215 659Q209 634 209 580Q209 460 262 412Q262 346 313 315T426 283T528 308T595 377T640 472T668 582Q686 690
686 768T665 960T612 1094Q594 1094 584 1108T573 1141Q552 1170 510 1187T434 1204T349 1163T295 1094L313 1075Z" />
<glyph unicode="&#xa5;" glyph-name="yen" horiz-adv-x="942" d="M510 143L512 90Q512 16 465 16Q424 16 424 41Q430 53 440 165T451 307L467 774Q467 785 463 797Q365 797 207 786Q188 797 172 825L180 852Q342 852 473 860Q477 891 477 954Q477 981 455 981L307
973Q193 973 193 1010L207 1032L367 1030Q465 1030 477 1044V1083Q453 1097 377 1234T213 1523T74 1716V1747Q98 1755 105 1755T135 1734T184 1677T232 1609T277 1540T305 1497Q307 1479 346 1420T389 1356T406 1323T432 1276T460 1228Q493 1173 508 1171Q530 1215
546 1270T581 1386T618 1505T656 1628Q701 1767 717 1788T751 1810Q788 1810 788 1780Q748 1686 695 1503T614 1245Q614 1207 582 1142T549 1047Q575 1034 600 1034L821 1044Q832 1044 858 1001Q856 975 707 975H549L545 864H772L811 866Q854 866 854 821Q854 810
841 801T817 791H809L813 793Q783 801 776 801H549L541 797Q541 688 526 471T510 143Z" />
<glyph unicode="&#xa6;" glyph-name="brokenbar" horiz-adv-x="514" d="M238 1530L227 1214Q227 1057 221 997V948L215 879Q215 858 197 858T174 861T170 874L184 1487Q184 1525 190 1534Q204 1552 225 1552Q238 1552 238 1530ZM213 604L203 268Q203 140 197 92V43L190
-27Q190 -45 184 -46T165 -47T149 -44T145 -31L156 369L160 561Q160 610 173 618T197 627T209 626Q213 624 213 604Z" />
<glyph unicode="&#xa7;" glyph-name="section" horiz-adv-x="489" d="M303 1305L260 1317Q228 1317 204 1292T168 1228Q143 1154 143 1083T176 950T254 827T324 730Q389 644 389 538T342 354Q373 287 373 237T364 141T336 50T285 -26T220 -57T161 -40T133 0Q133
16 160 16L203 4Q285 4 313 137Q319 166 319 217T287 333T209 466T138 572Q74 666 74 778T119 961Q90 1027 90 1081T99 1180T127 1271T178 1347T243 1378T302 1361T330 1321Q330 1305 303 1305ZM309 391Q336 454 336 514T316 628T273 719T210 810T152 897Q127 836
127 772T146 653T188 565T250 476T309 391Z" />
<glyph unicode="&#xa8;" glyph-name="dieresis" horiz-adv-x="776" d="M596 979T584 993T571 1025T586 1059T620 1075T652 1059T666 1026Q666 979 612 979Q596 979 584 993ZM201 1006Q201 1073 160 1073Q142 1073 127 1057T111 1023T122 988T150 971T184 980T201 1006Z" />
<glyph unicode="&#xa9;" glyph-name="copyright" horiz-adv-x="1157" d="M120 503Q117 540 108 705T98 929T101 1056T116 1211T146 1376T197 1531T272 1664Q368 1788 516 1788Q677 1788 788 1673Q898 1559 956 1396Q1018 1218 1036 1093Q1065 892 1065 756Q1065
2 565 2Q300 2 200 173Q137 279 120 503ZM975 475L997 588V893Q997 939 979 1026T958 1124Q894 1524 672 1677Q662 1687 652 1692T632 1704T618 1713T604 1721T588 1728T574 1732Q558 1737 541 1737Q301 1737 212 1354Q170 1169 170 940Q170 858 178 745T189 578T195
486T208 383T231 279T271 193T332 120Q418 57 528 57T713 85T840 170Q932 274 977 465Q975 469 975 475ZM674 1457T731 1380T788 1275T762 1247Q726 1247 689 1329Q675 1360 647 1385T577 1411T503 1382T452 1312T422 1211T405 1103T396 997T389 918L393 909Q385
882 385 850V806Q385 574 407 502T455 397V391Q479 364 492 352T534 324T600 309T669 326T719 364Q764 418 778 418Q809 418 809 373T734 289T619 250T555 256T514 268T471 290T428 311Q347 413 326 544Q311 645 311 742V864Q311 1003 326 1107T354 1251T387 1338T432
1412Q492 1477 571 1477Q615 1477 644 1467Z" />
<glyph unicode="&#xaa;" glyph-name="ordfeminine" horiz-adv-x="692" d="M365 817L311 815Q297 821 247 827Q247 827 195 652Q159 518 149 509T122 512T104 539Q145 606 289 1211Q304 1348 314 1366L342 1364Q367 1364 379 1376Q392 1376 404 1368T416 1345L550
666Q567 576 567 540T551 494Q509 494 500 506T490 544T487 609T480 671T468 743T457 807Q418 817 365 817ZM263 892L337 876Q422 868 436 862H457L359 1282Q303 1032 263 892ZM558 393Q558 386 425 381T241 375T176 384T162 410Q162 417 296 422T512 428Q528 428
543 418T558 393Z" />
<glyph unicode="&#xab;" glyph-name="guillemotleft" horiz-adv-x="741" d="M504 -21T489 -28T464 -35T443 -22T417 15T393 57T371 101T347 148T297 244T206 422Q82 669 82 689T139 854T264 1164T342 1358V1360Q382 1466 399 1466Q437 1466 440 1438Q410 1393
383 1321T329 1181T231 913T145 692Q150 618 416 156Q504 2 504 -9ZM385 1462H383H385ZM633 0L606 4H602Q570 51 533 135T485 242L383 455Q378 466 362 498T338 549Q332 567 294 617T256 695T304 837T409 1080T474 1231T490 1287T508 1346Q531 1417 557 1421L584
1401Q566 1282 444 1039Q328 806 328 700Q328 683 469 396T643 53L662 39Q660 28 651 14T633 0Z" />
<glyph unicode="&#xac;" glyph-name="logicalnot" horiz-adv-x="497" d="M449 766L440 700Q440 583 441 548Q442 498 416 498Q405 498 393 508T381 528Q381 528 375 727Q375 735 366 737T324 739H291L164 733H2Q3 733 1 738Q-6 758 -6 770T8 782L143 791L334 797Q381
797 401 801Q449 795 449 766Z" />
<glyph unicode="&#xad;" glyph-name="uni00AD" horiz-adv-x="620" d="M508 739Q508 732 376 727T192 721T127 730T113 756Q113 763 247 768T463 774Q478 774 493 764T508 739Z" />
<glyph unicode="&#xae;" glyph-name="registered" horiz-adv-x="1161" d="M102 715Q102 715 104 985Q104 1915 606 1915Q687 1915 768 1862T901 1735Q933 1726 941 1689Q949 1650 969 1632Q969 1588 1007 1375Q1065 1049 1065 920V854Q1065 533 1050 428T1019
238Q987 68 911 -10T767 -127T616 -166T467 -147T354 -97T267 -17T202 83T157 201T128 327T111 460Q102 571 102 715ZM172 1042L186 616Q186 65 388 -46Q433 -71 446 -84Q481 -98 514 -98L532 -106Q792 -106 908 124Q997 301 997 707Q997 1295 874 1651L889 1667Q869
1717 831 1731Q794 1770 770 1792Q697 1855 619 1855T475 1825T363 1746T282 1626T227 1485T194 1330Q172 1187 172 1042ZM465 913Q459 835 459 767T481 504T504 250T498 179T471 168T437 179T422 209Q422 385 417 442T400 568T387 676V1075Q387 1138 375 1262T362
1446T373 1537T410 1586Q452 1612 527 1612T638 1598T696 1556T734 1498T756 1425Q768 1353 768 1277T754 1151T719 1075T677 1032T642 1000T627 968T673 782Q807 291 815 291V289L846 199Q846 184 807 168Q747 168 680 484Q670 533 661 562T626 696Q568 940 553
940Q537 940 511 927T465 913ZM438 1415Q438 975 472 975T584 1038T677 1147T692 1246T692 1317T689 1366T682 1420T668 1467T644 1510Q612 1548 547 1548T460 1523T438 1415Z" />
<glyph unicode="&#xaf;" glyph-name="overscore" horiz-adv-x="620" d="M508 731T507 717T377 702Q300 702 255 702T188 703T157 706T134 712Q113 718 113 735Q115 752 244 752H360Q478 752 493 742Z" />
<glyph unicode="&#xb0;" glyph-name="degree" horiz-adv-x="868" d="M326 1260T314 1214T301 1126T337 1045T421 1004T501 1022T546 1068Q573 1121 573 1180T532 1285T418 1331Q381 1331 354 1296ZM355 965T306 1024T256 1134T271 1238T323 1335T428 1378T554
1323T612 1190Q612 965 422 965Q355 965 306 1024Z" />
<glyph unicode="&#xb1;" glyph-name="plusminus" horiz-adv-x="620" d="M541 236Q541 229 407 223T223 217T159 226T145 252Q145 259 279 264T462 270Q541 270 541 236ZM401 389Q401 356 358 356Q346 356 331 365T315 385V449L319 555Q319 615 290 620Q276 623
250 623Q250 623 160 612Q100 612 100 655Q100 684 123 684L231 678Q315 678 315 694L305 899Q305 923 313 933T346 944Q383 944 383 909L375 889L383 727Q383 698 396 688T440 678L563 684Q627 684 627 649T592 614L467 621Q402 621 396 610Q383 588 383 552T392
466T401 389Z" />
<glyph unicode="&#xb2;" glyph-name="uni00B2" horiz-adv-x="571" d="M428 2L129 -16Q109 -16 94 -5T78 25Q113 69 147 164T188 274Q305 530 363 762T422 1249Q422 1544 295 1544Q267 1532 251 1502T230 1442Q222 1366 195 1366T168 1403T179 1479T216 1552T276
1585Q362 1585 415 1520T471 1366L467 1362L473 1212Q473 1045 427 804T317 420Q312 408 265 311Q156 86 154 41L170 39Q241 52 416 61L446 29L428 2Z" />
<glyph unicode="&#xb3;" glyph-name="uni00B3" horiz-adv-x="589" d="M315 844L295 842Q272 842 256 850V858L246 868Q247 875 267 899T312 952T357 1031T377 1122T375 1200T366 1292T345 1389T306 1460T246 1491T190 1473T159 1432Q137 1374 111 1374Q99 1374
88 1382T76 1403Q108 1468 148 1504T233 1540Q307 1540 344 1491L350 1489Q432 1370 432 1102Q432 1052 395 987Q386 981 362 940T328 889Q408 857 440 765Q462 700 475 617T497 494Q510 437 510 384T509 305T504 237T493 166T472 103T439 48Q395 -2 338 -2T238
18T195 74L211 84Q236 82 263 62T299 37Q455 37 455 297Q455 530 423 644Q389 765 315 844Z" />
<glyph unicode="&#xb4;" glyph-name="acute" horiz-adv-x="497" d="M135 1309Q98 1309 98 1339Q98 1351 219 1444T352 1548Q397 1548 397 1516Q397 1515 391 1485Q288 1439 135 1309Z" />
<glyph unicode="&#xb5;" glyph-name="uni00B5" horiz-adv-x="743" d="M627 426L629 297Q629 124 584 42Q565 8 529 -15T444 -39Q284 -39 215 158V45Q219 35 219 14L217 -31L236 -215Q236 -231 221 -239T192 -248T168 -237T158 -213L156 -182L154 -59L150 145L139
502Q138 655 118 971T98 1448L84 1491Q84 1505 94 1518T119 1532Q170 1532 170 1382L188 690Q196 680 198 641Q208 499 217 459Q213 435 213 407T232 313T283 183T362 73T446 27T501 35T529 52T545 84T554 117T558 158T560 194T559 213L565 281V514L551 637L539
1004V1030L530 1042Q539 1100 539 1159L520 1507Q520 1523 534 1531T565 1540L600 1507L594 1491L600 1475L586 1352L606 983L616 627L623 625Q621 611 621 582L627 438L633 432L627 426Z" />
<glyph unicode="&#xb6;" glyph-name="paragraph" horiz-adv-x="937" d="M784 264L797 35Q797 21 787 12T762 2Q711 2 711 102L729 1176L715 1622L717 1688Q717 1738 698 1765T623 1792Q600 1792 600 1681T613 1334T627 1001T625 821T621 677T614 513T606 370Q592
141 588 57Q592 49 592 41T579 24T553 14Q514 14 514 55Q514 206 535 509T557 963L553 1120H381Q352 1132 308 1145T237 1167T180 1195Q122 1230 98 1325Q96 1332 95 1355T86 1389Q86 1546 148 1660Q185 1726 240 1757Q267 1772 320 1786T393 1809T444 1822T512
1827T569 1831Q580 1851 618 1851L698 1835Q729 1835 745 1839Q756 1826 786 1822T839 1813T862 1790Q862 1761 821 1761Q806 1761 782 1765L797 1141L784 264ZM535 1696L537 1753Q518 1772 417 1772T233 1672T150 1471T174 1314T247 1226Q334 1171 494 1171Q532
1171 542 1179T553 1212L535 1696Z" />
<glyph unicode="&#xb7;" glyph-name="middot" horiz-adv-x="327" d="M140 696T127 711T113 746T129 783T165 801T199 784T215 748Q215 696 158 696Q140 696 127 711Z" />
<glyph unicode="&#xb8;" glyph-name="cedilla" horiz-adv-x="468" d="M250 -190L195 -197Q164 -197 139 -156Q156 -117 156 -39V-16L215 -8Q207 -55 207 -111Q356 -121 356 -317Q356 -365 310 -422T201 -479Q172 -479 143 -465T113 -427T135 -403Q148 -403 168
-413T207 -424T248 -395T270 -340L264 -311Q264 -305 273 -300T283 -293Q283 -240 275 -222T250 -190Z" />
<glyph unicode="&#xb9;" glyph-name="uni00B9" horiz-adv-x="606" d="M481 14L229 6Q215 6 206 15T197 37L207 57L262 55Q291 55 302 68T313 111Q313 369 300 581Q285 821 254 1284L256 1354Q256 1414 237 1448T162 1483L115 1479Q80 1479 80 1501Q80 1530 260
1530Q274 1530 283 1520T293 1497H297Q291 1467 291 1419T306 1241T322 1022T339 704T356 413T352 334Q365 282 365 102L362 72L371 66L463 72Q526 72 526 43T481 14Z" />
<glyph unicode="&#xba;" glyph-name="ordmasculine" horiz-adv-x="729" d="M607 826Q607 664 459 563Q423 538 378 538Q136 538 136 887Q136 918 138 963T178 1220Q189 1281 244 1314Q275 1333 327 1333T442 1322Q483 1315 521 1243Q602 1113 607 826ZM202 954Q206
598 369 598Q544 598 544 842Q544 1146 480 1210Q397 1294 345 1294Q220 1294 202 954ZM552 449Q552 442 420 437T236 431T171 440T157 466Q157 473 291 478T507 484Q522 484 537 474T552 449Z" />
<glyph unicode="&#xbb;" glyph-name="guillemotright" horiz-adv-x="741" d="M139 4Q139 4 109 0Q100 0 91 14T80 39L98 53Q134 118 274 400T414 700Q414 806 298 1039Q176 1282 158 1401L184 1421Q212 1415 234 1346Q241 1322 250 1288T267 1232T332 1081Q485
737 485 703T448 618T403 549T379 498T358 455L182 90Q145 13 139 4ZM356 1462H358H356ZM544 999T601 855T659 697T623 605T534 422Q458 271 420 198T370 101T348 58T324 15Q295 -35 279 -35Q269 -35 254 -28T238 -10T326 156Q591 620 596 692Q583 711 511 912T412
1181T372 1285T350 1341Q323 1405 301 1438Q304 1466 342 1466Q359 1466 399 1360V1358Q410 1329 477 1164Z" />
<glyph unicode="&#xbc;" glyph-name="onequarter" horiz-adv-x="1691" d="M481 14L229 6Q215 6 206 15T197 37L207 57L262 55Q291 55 302 68T313 111Q313 369 300 581Q285 821 254 1284L256 1354Q256 1414 237 1448T162 1483L115 1479Q80 1479 80 1501Q80 1530
260 1530Q274 1530 283 1520T293 1497H297Q291 1467 291 1419T306 1241T322 1022T339 704T356 413T352 334Q365 282 365 102L362 72L371 66L463 72Q526 72 526 43T481 14ZM1085 1505Q1085 1488 1065 1406T1032 1264T813 299L772 121Q770 114 766 93T759 58T750
29Q738 -4 713 -6Q692 8 692 41T702 131T735 273T829 674T960 1219T1023 1461T1029 1483T1037 1506Q1046 1532 1055 1532Q1085 1532 1085 1505ZM1620 567Q1620 537 1562 542Q1541 544 1523 534T1505 484T1511 306T1524 152Q1522 144 1522 113T1530 68L1524 43L1530
29V0L1497 -25L1466 -12V61L1464 66Q1473 103 1473 139L1458 348L1462 440Q1462 520 1442 530L1321 518Q1294 518 1283 527T1266 541V547Q1266 562 1276 612L1257 653L1276 754L1296 1155V1481L1288 1532Q1288 1559 1319 1559T1350 1530L1341 1366Q1341 1336 1348
1296L1343 1290Q1348 1245 1348 1196T1336 975T1323 717L1337 657L1323 602Q1323 563 1342 563T1397 569T1446 582Q1446 681 1439 865T1423 1104T1415 1180Q1415 1212 1454 1212L1473 1190L1485 901Q1485 838 1490 715T1505 582L1581 590Q1620 590 1620 567Z" />
<glyph unicode="&#xbd;" glyph-name="onehalf" horiz-adv-x="1736" d="M481 14L229 6Q215 6 206 15T197 37L207 57L262 55Q291 55 302 68T313 111Q313 369 300 581Q285 821 254 1284L256 1354Q256 1414 237 1448T162 1483L115 1479Q80 1479 80 1501Q80 1530 260
1530Q274 1530 283 1520T293 1497H297Q291 1467 291 1419T306 1241T322 1022T339 704T356 413T352 334Q365 282 365 102L362 72L371 66L463 72Q526 72 526 43T481 14ZM1085 1505Q1085 1488 1065 1406T1032 1264T813 299L772 121Q770 114 766 93T759 58T750 29Q738
-4 713 -6Q692 8 692 41T702 131T735 273T829 674T960 1219T1023 1461T1029 1483T1037 1506Q1046 1532 1055 1532Q1085 1532 1085 1505ZM1593 2L1294 -16Q1274 -16 1259 -5T1243 25Q1278 69 1313 165T1354 274Q1471 529 1529 761T1587 1249Q1587 1544 1460 1544Q1432
1532 1416 1502T1396 1442Q1387 1366 1360 1366T1333 1403T1344 1479T1381 1552T1442 1585Q1528 1585 1580 1520T1636 1366L1632 1362L1638 1212Q1638 1044 1593 804T1483 420Q1477 407 1430 311Q1321 84 1319 41L1335 39Q1406 52 1581 61L1612 29L1593 2Z" />
<glyph unicode="&#xbe;" glyph-name="threequarters" horiz-adv-x="1675" d="M315 844L295 842Q272 842 256 850V858L246 868Q247 875 267 899T312 952T357 1031T377 1122T375 1200T366 1292T345 1389T306 1460T246 1491T190 1473T159 1432Q137 1374 111 1374Q99
1374 88 1382T76 1403Q108 1468 148 1504T233 1540Q307 1540 344 1491L350 1489Q432 1370 432 1102Q432 1052 395 987Q386 981 362 940T328 889Q408 857 440 765Q462 700 475 617T497 494Q510 437 510 384T509 305T504 237T493 166T472 103T439 48Q395 -2 338 -2T238
18T195 74L211 84Q236 82 263 62T299 37Q455 37 455 297Q455 530 423 644Q389 765 315 844ZM1038 1532Q1069 1532 1069 1505Q1069 1488 1049 1406T1016 1264T797 299L756 121Q754 114 750 93T743 58T733 28Q721 -4 696 -6Q676 7 676 41T686 131T719 273T813 674T944
1219T1007 1461T1013 1483T1020 1506Q1029 1532 1038 1532ZM1604 567Q1604 537 1546 542Q1525 544 1507 534T1489 483T1494 305T1507 152Q1505 144 1505 113T1513 68L1507 43L1513 29V0L1481 -25L1450 -12V61L1448 66Q1456 99 1456 139L1442 348L1446 440Q1446
520 1425 530L1305 518Q1278 518 1266 527T1249 541V547Q1249 557 1260 612L1241 653L1260 754L1280 1155V1481L1272 1532Q1272 1559 1302 1559T1333 1530L1325 1366Q1325 1330 1331 1296L1327 1290Q1331 1254 1331 1233L1307 717L1321 657L1307 602Q1307 563 1326
563T1381 569T1430 582Q1430 656 1422 852T1407 1104T1399 1180Q1399 1212 1438 1212L1456 1190L1468 901Q1468 841 1474 716T1489 582L1565 590Q1604 590 1604 567Z" />
<glyph unicode="&#xbf;" glyph-name="questiondown" horiz-adv-x="464" d="M354 241Q369 164 369 124T363 55T344 2Q316 -54 240 -54T141 -10Q96 80 96 196T111 403T148 574T189 748Q236 970 225 1282Q226 1280 229 1282Q239 1288 250 1288Q268 1288 273 1264Q273
957 234 705Q225 654 201 556Q150 340 150 221Q150 114 171 53T223 -9H246Q318 -9 318 118Q318 146 303 241L328 249Q351 251 354 241ZM268 1532T281 1517T295 1482T279 1446T243 1428T209 1445T193 1481Q193 1532 250 1532Q268 1532 281 1517Z" />
<glyph unicode="&#xc0;" glyph-name="Agrave" horiz-adv-x="696" d="M210 1747Q190 1743 177 1743Q107 1743 107 1784Q107 1820 120 1829Q194 1829 212 1806Q214 1805 236 1798T275 1784T317 1768T363 1748T402 1729Q441 1707 441 1690Q441 1683 433 1678T419
1673T316 1707T210 1747ZM567 600L590 66V44Q590 20 584 14Q568 0 549 0T518 10T506 35Q512 47 512 59L506 100V303Q506 330 398 349T238 369Q218 369 202 295T171 131T141 20Q93 20 78 45Q110 91 139 269T187 527T251 877T314 1221T340 1333T363 1418Q396 1536
422 1536Q454 1536 464 1522T482 1454T497 1318T511 1166Q530 950 534 882T553 784Q549 722 549 678T567 600ZM231 426Q317 397 438 397Q463 397 475 401L485 397Q504 397 504 416Q504 844 424 1339Q423 1345 420 1361T416 1386Q391 1315 389 1296L395 1284Q388
1277 372 1214T328 952T287 697T260 594Q231 492 231 438V426Z" />
<glyph unicode="&#xc1;" glyph-name="Aacute" horiz-adv-x="696" d="M274 1674Q237 1674 237 1704Q237 1716 358 1809T491 1913Q536 1913 536 1881Q536 1880 530 1850Q427 1804 274 1674ZM567 600L590 66V44Q590 20 584 14Q568 0 549 0T518 10T506 35Q512 47 512
59L506 100V303Q506 330 398 349T238 369Q218 369 202 295T171 131T141 20Q93 20 78 45Q110 91 139 269T187 527T251 877T314 1221T340 1333T363 1418Q396 1536 422 1536Q454 1536 464 1522T482 1454T497 1318T511 1166Q530 950 534 882T553 784Q549 722 549 678T567
600ZM231 426Q317 397 438 397Q463 397 475 401L485 397Q504 397 504 416Q504 844 424 1339Q423 1345 420 1361T416 1386Q391 1315 389 1296L395 1284Q388 1277 372 1214T328 952T287 697T260 594Q231 492 231 438V426Z" />
<glyph unicode="&#xc2;" glyph-name="Acircumflex" horiz-adv-x="696" d="M519 1673L492 1690Q482 1814 433 1997Q407 1931 378 1841T347 1731L312 1684L275 1710Q277 1755 346 1905T446 2056T476 2015T485 1935T512 1848T537 1774L535 1761L550 1731L548 1720Q556
1704 556 1698Q556 1679 519 1673ZM567 600L590 66V44Q590 20 584 14Q568 0 549 0T518 10T506 35Q512 47 512 59L506 100V303Q506 330 398 349T238 369Q218 369 202 295T171 131T141 20Q93 20 78 45Q110 91 139 269T187 527T251 877T314 1221T340 1333T363 1418Q396
1536 422 1536Q454 1536 464 1522T482 1454T497 1318T511 1166Q530 950 534 882T553 784Q549 722 549 678T567 600ZM231 426Q317 397 438 397Q463 397 475 401L485 397Q504 397 504 416Q504 844 424 1339Q423 1345 420 1361T416 1386Q391 1315 389 1296L395 1284Q388
1277 372 1214T328 952T287 697T260 594Q231 492 231 438V426Z" />
<glyph unicode="&#xc3;" glyph-name="Atilde" horiz-adv-x="696" d="M574 1802L562 1841Q568 1853 587 1853T618 1831T630 1775T597 1708T524 1675T447 1696T391 1737T339 1796L325 1802H288Q285 1790 267 1777T249 1752T259 1704L237 1673Q224 1673 211 1684T198
1708Q198 1771 230 1812T323 1853Q389 1819 404 1808Q419 1778 444 1753T488 1728T513 1730L527 1726Q532 1740 547 1749Q574 1765 574 1802ZM567 600L590 66V44Q590 20 584 14Q568 0 549 0T518 10T506 35Q512 47 512 59L506 100V303Q506 330 398 349T238 369Q218
369 202 295T171 131T141 20Q93 20 78 45Q110 91 139 269T187 527T251 877T314 1221T340 1333T363 1418Q396 1536 422 1536Q454 1536 464 1522T482 1454T497 1318T511 1166Q530 950 534 882T553 784Q549 722 549 678T567 600ZM231 426Q317 397 438 397Q463 397
475 401L485 397Q504 397 504 416Q504 844 424 1339Q423 1345 420 1361T416 1386Q391 1315 389 1296L395 1284Q388 1277 372 1214T328 952T287 697T260 594Q231 492 231 438V426Z" />
<glyph unicode="&#xc4;" glyph-name="Adieresis" horiz-adv-x="696" d="M623 1681T611 1695T598 1727T613 1761T647 1777T679 1761T693 1728Q693 1681 639 1681Q623 1681 611 1695ZM228 1708Q228 1775 187 1775Q169 1775 154 1759T138 1725T149 1690T177 1673T211
1682T228 1708ZM567 600L590 66V44Q590 20 584 14Q568 0 549 0T518 10T506 35Q512 47 512 59L506 100V303Q506 330 398 349T238 369Q218 369 202 295T171 131T141 20Q93 20 78 45Q110 91 139 269T187 527T251 877T314 1221T340 1333T363 1418Q396 1536 422 1536Q454
1536 464 1522T482 1454T497 1318T511 1166Q530 950 534 882T553 784Q549 722 549 678T567 600ZM231 426Q317 397 438 397Q463 397 475 401L485 397Q504 397 504 416Q504 844 424 1339Q423 1345 420 1361T416 1386Q391 1315 389 1296L395 1284Q388 1277 372 1214T328
952T287 697T260 594Q231 492 231 438V426Z" />
<glyph unicode="&#xc5;" glyph-name="Aring" horiz-adv-x="696" d="M361 1563T331 1596T301 1673T338 1757T417 1798T495 1759T532 1671T496 1593T410 1563ZM395 1759T372 1734T348 1687T350 1650T364 1618T396 1602T448 1619T479 1666T465 1727T423 1759ZM567
600L590 66V44Q590 20 584 14Q568 0 549 0T518 10T506 35Q512 47 512 59L506 100V303Q506 330 398 349T238 369Q218 369 202 295T171 131T141 20Q93 20 78 45Q110 91 139 269T187 527T251 877T314 1221T340 1333T363 1418Q396 1536 422 1536Q454 1536 464 1522T482
1454T497 1318T511 1166Q530 950 534 882T553 784Q549 722 549 678T567 600ZM231 426Q317 397 438 397Q463 397 475 401L485 397Q504 397 504 416Q504 844 424 1339Q423 1345 420 1361T416 1386Q391 1315 389 1296L395 1284Q388 1277 372 1214T328 952T287 697T260
594Q231 492 231 438V426Z" />
<glyph unicode="&#xc6;" glyph-name="AE" horiz-adv-x="923" d="M799 57Q844 57 844 31Q844 -4 650 -7Q577 -8 570 -12T546 -28T518 -41L489 -12Q506 101 506 229L496 621L485 635Q477 633 421 629Q279 619 274 600L172 209Q172 208 159 146Q129 2 100 2Q93 2
89 11T84 27Q86 125 191 538T434 1393Q461 1485 482 1514T528 1544L686 1554Q750 1554 750 1522L737 1497Q637 1497 535 1485L549 1180L543 702L553 690L715 711L743 676Q743 641 625 641Q584 641 543 641L551 154L549 70Q549 35 567 35L799 57ZM489 1393Q471 1371
383 1043T289 664Q417 668 494 688Q495 741 498 902T502 1178T489 1393Z" />
<glyph unicode="&#xc7;" glyph-name="Ccedilla" horiz-adv-x="696" d="M454 -199L399 -206Q368 -206 343 -165Q360 -126 360 -48V-25L419 -17Q411 -64 411 -120Q560 -130 560 -326Q560 -374 514 -431T405 -488Q376 -488 347 -474T317 -436T339 -412Q352 -412 372
-422T411 -433T452 -404T474 -349L468 -320Q468 -314 477 -309T487 -302Q487 -249 479 -231T454 -199ZM170 1008L152 860Q152 739 179 456T234 130Q288 47 395 47T553 106Q572 106 600 113L610 102Q610 4 454 -26Q417 -33 371 -33T261 13T172 115T121 463T96 977T109
1239Q102 1274 102 1305Q102 1428 190 1496T406 1565Q441 1565 482 1543T524 1489Q524 1466 492 1466Q483 1466 467 1478T441 1491T418 1487Q394 1495 369 1495T309 1485T250 1458T210 1413T184 1360T170 1294Q164 1237 164 1153L170 1008ZM403 1475H399H403Z"
/>
<glyph unicode="&#xc8;" glyph-name="Egrave" horiz-adv-x="497" d="M65 1747Q45 1743 32 1743Q-38 1743 -38 1784Q-38 1820 -25 1829Q49 1829 67 1806Q69 1805 91 1798T130 1784T172 1768T218 1748T257 1729Q296 1707 296 1690Q296 1683 288 1678T274 1673T171
1707T65 1747ZM199 61L322 68Q418 68 418 35Q401 5 357 -3T272 -12H224Q132 -12 118 2T104 33L123 109V113Q115 154 115 203L125 412L113 850L123 1257Q123 1294 110 1366T96 1473L133 1530L276 1548L283 1542Q331 1542 338 1530T346 1503Q346 1464 272 1464L217
1468Q172 1468 172 1444L188 1096L178 840L174 836L186 829L299 850Q310 850 323 839T336 815Q336 774 305 774L258 776Q180 776 180 737L195 565L188 553V137Q199 124 199 80V61Z" />
<glyph unicode="&#xc9;" glyph-name="Eacute" horiz-adv-x="497" d="M200 1674Q163 1674 163 1704Q163 1716 284 1809T417 1913Q462 1913 462 1881Q462 1880 456 1850Q353 1804 200 1674ZM199 61L322 68Q418 68 418 35Q401 5 357 -3T272 -12H224Q132 -12 118 2T104
33L123 109V113Q115 154 115 203L125 412L113 850L123 1257Q123 1294 110 1366T96 1473L133 1530L276 1548L283 1542Q331 1542 338 1530T346 1503Q346 1464 272 1464L217 1468Q172 1468 172 1444L188 1096L178 840L174 836L186 829L299 850Q310 850 323 839T336
815Q336 774 305 774L258 776Q180 776 180 737L195 565L188 553V137Q199 124 199 80V61Z" />
<glyph unicode="&#xca;" glyph-name="Ecircumflex" horiz-adv-x="497" d="M303 1673L276 1690Q266 1814 217 1997Q191 1931 162 1841T131 1731L96 1684L59 1710Q61 1755 130 1905T230 2056T260 2015T269 1935T296 1848T321 1774L319 1761L334 1731L332 1720Q340
1704 340 1698Q340 1679 303 1673ZM199 61L322 68Q418 68 418 35Q401 5 357 -3T272 -12H224Q132 -12 118 2T104 33L123 109V113Q115 154 115 203L125 412L113 850L123 1257Q123 1294 110 1366T96 1473L133 1530L276 1548L283 1542Q331 1542 338 1530T346 1503Q346
1464 272 1464L217 1468Q172 1468 172 1444L188 1096L178 840L174 836L186 829L299 850Q310 850 323 839T336 815Q336 774 305 774L258 776Q180 776 180 737L195 565L188 553V137Q199 124 199 80V61Z" />
<glyph unicode="&#xcb;" glyph-name="Edieresis" horiz-adv-x="497" d="M406 1681T394 1695T381 1727T396 1761T430 1777T462 1761T476 1728Q476 1681 422 1681Q406 1681 394 1695ZM11 1708Q11 1775 -30 1775Q-48 1775 -63 1759T-79 1725T-68 1690T-40 1673T-6
1682T11 1708ZM199 61L322 68Q418 68 418 35Q401 5 357 -3T272 -12H224Q132 -12 118 2T104 33L123 109V113Q115 154 115 203L125 412L113 850L123 1257Q123 1294 110 1366T96 1473L133 1530L276 1548L283 1542Q331 1542 338 1530T346 1503Q346 1464 272 1464L217
1468Q172 1468 172 1444L188 1096L178 840L174 836L186 829L299 850Q310 850 323 839T336 815Q336 774 305 774L258 776Q180 776 180 737L195 565L188 553V137Q199 124 199 80V61Z" />
<glyph unicode="&#xcc;" glyph-name="Igrave" horiz-adv-x="477" d="M350 1747Q330 1743 317 1743Q247 1743 247 1784Q247 1820 260 1829Q334 1829 352 1806Q354 1805 376 1798T415 1784T457 1768T503 1748T542 1729Q581 1707 581 1690Q581 1683 573 1678T559
1673T456 1707T350 1747ZM360 8L295 18Q272 18 248 -6Q202 -6 190 10H185Q91 10 76 45Q76 68 123 68L168 66Q209 66 210 125T205 269T197 438T185 765T172 1114L174 1354Q174 1453 168 1473L98 1458Q76 1458 76 1486T166 1533T288 1552Q342 1552 342 1519T317 1485L268
1487Q233 1487 226 1454Q219 1427 219 1295T244 772T270 184L268 78L342 84Q395 84 395 33L360 8Z" />
<glyph unicode="&#xcd;" glyph-name="Iacute" horiz-adv-x="477" d="M176 1674Q139 1674 139 1704Q139 1716 260 1809T393 1913Q438 1913 438 1881Q438 1880 432 1850Q329 1804 176 1674ZM360 8L295 18Q272 18 248 -6Q202 -6 190 10H185Q91 10 76 45Q76 68 123
68L168 66Q209 66 210 125T205 269T197 438T185 765T172 1114L174 1354Q174 1453 168 1473L98 1458Q76 1458 76 1486T166 1533T288 1552Q342 1552 342 1519T317 1485L268 1487Q233 1487 226 1454Q219 1427 219 1295T244 772T270 184L268 78L342 84Q395 84 395 33L360
8Z" />
<glyph unicode="&#xce;" glyph-name="Icircumflex" horiz-adv-x="477" d="M278 1673L251 1690Q241 1814 192 1997Q166 1931 137 1841T106 1731L71 1684L34 1710Q36 1755 105 1905T205 2056T235 2015T244 1935T271 1848T296 1774L294 1761L309 1731L307 1720Q315
1704 315 1698Q315 1679 278 1673ZM360 8L295 18Q272 18 248 -6Q202 -6 190 10H185Q91 10 76 45Q76 68 123 68L168 66Q209 66 210 125T205 269T197 438T185 765T172 1114L174 1354Q174 1453 168 1473L98 1458Q76 1458 76 1486T166 1533T288 1552Q342 1552 342 1519T317
1485L268 1487Q233 1487 226 1454Q219 1427 219 1295T244 772T270 184L268 78L342 84Q395 84 395 33L360 8Z" />
<glyph unicode="&#xcf;" glyph-name="Idieresis" horiz-adv-x="477" d="M382 1681T370 1695T357 1727T372 1761T406 1777T438 1761T452 1728Q452 1681 398 1681Q382 1681 370 1695ZM-13 1708Q-13 1775 -54 1775Q-72 1775 -87 1759T-103 1725T-92 1690T-64 1673T-30
1682T-13 1708ZM360 8L295 18Q272 18 248 -6Q202 -6 190 10H185Q91 10 76 45Q76 68 123 68L168 66Q209 66 210 125T205 269T197 438T185 765T172 1114L174 1354Q174 1453 168 1473L98 1458Q76 1458 76 1486T166 1533T288 1552Q342 1552 342 1519T317 1485L268 1487Q233
1487 226 1454Q219 1427 219 1295T244 772T270 184L268 78L342 84Q395 84 395 33L360 8Z" />
<glyph unicode="&#xd0;" glyph-name="Eth" horiz-adv-x="839" d="M199 1196L182 1563Q182 1571 194 1588T215 1606Q386 1606 563 1360Q605 1301 637 1241V1237Q733 966 733 649Q733 515 684 368T538 93T322 -88Q313 -84 298 -80Q273 -73 262 -49H260Q260 222 242
602Q232 728 225 754L100 741Q83 741 78 749T72 776T108 804T180 814L217 813L225 817L227 827Q227 888 213 1011T199 1196ZM301 821L442 844Q459 844 471 828T485 795L465 770Q361 770 297 756Q297 724 302 594T311 451L309 449Q309 376 319 228T330 6Q357 12
369 24T390 45T403 59Q506 160 582 321T659 602T658 780Q653 948 616 1087Q583 1248 492 1371T256 1538L252 1534Q252 1405 266 1127T301 821Z" />
<glyph unicode="&#xd1;" glyph-name="Ntilde" horiz-adv-x="772" d="M515 1827L503 1866Q509 1878 528 1878T559 1856T571 1800T538 1733T465 1700T388 1721T332 1762T280 1821L266 1827H229Q226 1815 208 1802T190 1777T200 1729L178 1698Q165 1698 152 1709T139
1733Q139 1796 171 1837T264 1878Q330 1844 345 1833Q360 1803 385 1778T429 1753T454 1755L468 1751Q473 1765 488 1774Q515 1790 515 1827ZM621 111L627 37Q627 -23 575 -23Q539 -23 526 54Q519 90 518 94Q318 725 266 1016Q264 1025 263 1044Q261 1085 244 1102L248
1112Q235 1188 229 1217T214 1284Q200 1349 178 1401Q172 1359 172 1337T176 1303Q162 1255 162 1161V600Q162 502 176 308T190 16L176 0H129L123 16Q127 32 127 98L104 811V1079L119 1466L117 1509Q117 1535 130 1543T165 1552T203 1540T219 1500T228 1441T254
1370T280 1298T298 1194T317 1067T353 919T410 713T452 565T476 474Q508 360 510 313Q524 292 531 232T565 150Q578 179 578 248L586 961L580 1278L586 1356Q586 1378 580 1382L586 1399Q586 1525 578 1567Q586 1595 629 1595Q662 1595 662 1528Q649 1502 649 1460L651
1391Q651 1347 643 1329L637 682Q637 663 641 627L637 618V360L641 283Q641 161 621 115V111Z" />
<glyph unicode="&#xd2;" glyph-name="Ograve" horiz-adv-x="696" d="M353 1747Q333 1743 320 1743Q250 1743 250 1784Q250 1820 263 1829Q337 1829 355 1806Q357 1805 379 1798T418 1784T460 1768T506 1748T545 1729Q584 1707 584 1690Q584 1683 576 1678T562
1673T459 1707T353 1747ZM586 618L567 354L571 346Q555 277 555 222T533 109T468 4T374 -43T281 -5T210 92T160 233T126 393T106 556Q94 696 94 798T103 1032T113 1201T115 1268T120 1337T130 1408T150 1471T182 1524Q224 1571 299 1571T424 1530Q431 1519 460
1481T504 1409T537 1239Q586 889 586 618ZM303 1518Q152 1518 152 911V831Q152 689 173 526T218 260T284 86T379 14Q449 14 481 156T519 410Q526 562 526 608V657Q526 695 526 721T524 808T520 916T512 1030T498 1149T478 1261T450 1364T412 1444Q369 1518 303
1518Z" />
<glyph unicode="&#xd3;" glyph-name="Oacute" horiz-adv-x="696" d="M304 1674Q267 1674 267 1704Q267 1716 388 1809T521 1913Q566 1913 566 1881Q566 1880 560 1850Q457 1804 304 1674ZM586 618L567 354L571 346Q555 277 555 222T533 109T468 4T374 -43T281
-5T210 92T160 233T126 393T106 556Q94 696 94 798T103 1032T113 1201T115 1268T120 1337T130 1408T150 1471T182 1524Q224 1571 299 1571T424 1530Q431 1519 460 1481T504 1409T537 1239Q586 889 586 618ZM303 1518Q152 1518 152 911V831Q152 689 173 526T218
260T284 86T379 14Q449 14 481 156T519 410Q526 562 526 608V657Q526 695 526 721T524 808T520 916T512 1030T498 1149T478 1261T450 1364T412 1444Q369 1518 303 1518Z" />
<glyph unicode="&#xd4;" glyph-name="Ocircumflex" horiz-adv-x="696" d="M406 1673L379 1690Q369 1814 320 1997Q294 1931 265 1841T234 1731L199 1684L162 1710Q164 1755 233 1905T333 2056T363 2015T372 1935T399 1848T424 1774L422 1761L437 1731L435 1720Q443
1704 443 1698Q443 1679 406 1673ZM586 618L567 354L571 346Q555 277 555 222T533 109T468 4T374 -43T281 -5T210 92T160 233T126 393T106 556Q94 696 94 798T103 1032T113 1201T115 1268T120 1337T130 1408T150 1471T182 1524Q224 1571 299 1571T424 1530Q431
1519 460 1481T504 1409T537 1239Q586 889 586 618ZM303 1518Q152 1518 152 911V831Q152 689 173 526T218 260T284 86T379 14Q449 14 481 156T519 410Q526 562 526 608V657Q526 695 526 721T524 808T520 916T512 1030T498 1149T478 1261T450 1364T412 1444Q369
1518 303 1518Z" />
<glyph unicode="&#xd5;" glyph-name="Otilde" horiz-adv-x="696" d="M462 1802L450 1841Q456 1853 475 1853T506 1831T518 1775T485 1708T412 1675T335 1696T279 1737T227 1796L213 1802H176Q173 1790 155 1777T137 1752T147 1704L125 1673Q112 1673 99 1684T86
1708Q86 1771 118 1812T211 1853Q277 1819 292 1808Q307 1778 332 1753T376 1728T401 1730L415 1726Q420 1740 435 1749Q462 1765 462 1802ZM586 618L567 354L571 346Q555 277 555 222T533 109T468 4T374 -43T281 -5T210 92T160 233T126 393T106 556Q94 696 94
798T103 1032T113 1201T115 1268T120 1337T130 1408T150 1471T182 1524Q224 1571 299 1571T424 1530Q431 1519 460 1481T504 1409T537 1239Q586 889 586 618ZM303 1518Q152 1518 152 911V831Q152 689 173 526T218 260T284 86T379 14Q449 14 481 156T519 410Q526
562 526 608V657Q526 695 526 721T524 808T520 916T512 1030T498 1149T478 1261T450 1364T412 1444Q369 1518 303 1518Z" />
<glyph unicode="&#xd6;" glyph-name="Odieresis" horiz-adv-x="696" d="M510 1681T498 1695T485 1727T500 1761T534 1777T566 1761T580 1728Q580 1681 526 1681Q510 1681 498 1695ZM115 1708Q115 1775 74 1775Q56 1775 41 1759T25 1725T36 1690T64 1673T98 1682T115
1708ZM586 618L567 354L571 346Q555 277 555 222T533 109T468 4T374 -43T281 -5T210 92T160 233T126 393T106 556Q94 696 94 798T103 1032T113 1201T115 1268T120 1337T130 1408T150 1471T182 1524Q224 1571 299 1571T424 1530Q431 1519 460 1481T504 1409T537
1239Q586 889 586 618ZM303 1518Q152 1518 152 911V831Q152 689 173 526T218 260T284 86T379 14Q449 14 481 156T519 410Q526 562 526 608V657Q526 695 526 721T524 808T520 916T512 1030T498 1149T478 1261T450 1364T412 1444Q369 1518 303 1518Z" />
<glyph unicode="&#xd7;" glyph-name="multiply" horiz-adv-x="727" d="M516 430L471 473Q458 485 431 516Q372 584 354 584T315 564T280 520Q238 457 201 457Q190 457 175 467T160 486T176 512T219 551T254 582T280 614T297 647Q280 664 234 702Q127 792 127 817Q127
827 140 842T168 858T193 848L203 827Q330 700 353 700T407 736T472 808T522 844T550 834T561 809T525 760T452 693T416 642T442 599T499 554Q582 500 582 471Q582 454 568 439T538 424T516 430Z" />
<glyph unicode="&#xd8;" glyph-name="Oslash" horiz-adv-x="602" d="M485 831L492 444Q492 302 484 252T466 160T442 89T406 34Q364 -20 291 -20T188 20H186Q172 -68 133 -264L102 -240Q103 -205 125 -98T162 111Q162 125 154 149T141 200T131 274T121 360T113
453T108 540T104 634T102 721T101 815T100 902V1081Q100 1569 250 1569Q260 1569 281 1558T309 1546L317 1550L328 1540Q341 1579 381 1798H418L416 1739L373 1491Q373 1466 403 1432L401 1427Q405 1409 417 1389Q455 1332 455 1229L451 1227Q451 1166 466 1039T481
850V838L485 831ZM336 1214T303 817T242 279T215 103Q215 23 305 23Q438 23 438 399Q438 1244 365 1389Q336 1214 303 817ZM317 1481T297 1497T260 1513T219 1501L207 1505Q143 1466 143 852Q143 748 162 705Q162 634 174 490T186 274Q200 293 222 508T256 848Q278
1058 287 1155T302 1298Q317 1402 317 1441Z" />
<glyph unicode="&#xd9;" glyph-name="Ugrave" horiz-adv-x="743" d="M385 1747Q365 1743 352 1743Q282 1743 282 1784Q282 1820 295 1829Q369 1829 387 1806Q389 1805 411 1798T450 1784T492 1768T538 1748T577 1729Q616 1707 616 1690Q616 1683 608 1678T594
1673T491 1707T385 1747ZM627 426L629 297Q629 124 584 42Q565 8 529 -15T436 -39T331 -9T257 68T212 175T184 290Q161 432 139 473Q139 636 119 960T98 1448L84 1491Q84 1505 94 1518T119 1532Q170 1532 170 1382L188 690Q196 680 198 641Q208 499 217 459Q213
435 213 407T232 313T283 183T362 73T446 27T501 35T529 52T545 84T554 117T558 158T560 194T559 213L565 281V514L551 637L539 1004V1030L530 1042Q539 1100 539 1159L520 1507Q520 1523 534 1531T565 1540L600 1507L594 1491L600 1475L586 1352L606 983L616 627L623
625Q621 611 621 582L627 438L633 432L627 426Z" />
<glyph unicode="&#xda;" glyph-name="Uacute" horiz-adv-x="743" d="M336 1674Q299 1674 299 1704Q299 1716 420 1809T553 1913Q598 1913 598 1881Q598 1880 592 1850Q489 1804 336 1674ZM627 426L629 297Q629 124 584 42Q565 8 529 -15T436 -39T331 -9T257 68T212
175T184 290Q161 432 139 473Q139 636 119 960T98 1448L84 1491Q84 1505 94 1518T119 1532Q170 1532 170 1382L188 690Q196 680 198 641Q208 499 217 459Q213 435 213 407T232 313T283 183T362 73T446 27T501 35T529 52T545 84T554 117T558 158T560 194T559 213L565
281V514L551 637L539 1004V1030L530 1042Q539 1100 539 1159L520 1507Q520 1523 534 1531T565 1540L600 1507L594 1491L600 1475L586 1352L606 983L616 627L623 625Q621 611 621 582L627 438L633 432L627 426Z" />
<glyph unicode="&#xdb;" glyph-name="Ucircumflex" horiz-adv-x="743" d="M438 1673L411 1690Q401 1814 352 1997Q326 1931 297 1841T266 1731L231 1684L194 1710Q196 1755 265 1905T365 2056T395 2015T404 1935T431 1848T456 1774L454 1761L469 1731L467 1720Q475
1704 475 1698Q475 1679 438 1673ZM627 426L629 297Q629 124 584 42Q565 8 529 -15T436 -39T331 -9T257 68T212 175T184 290Q161 432 139 473Q139 636 119 960T98 1448L84 1491Q84 1505 94 1518T119 1532Q170 1532 170 1382L188 690Q196 680 198 641Q208 499 217
459Q213 435 213 407T232 313T283 183T362 73T446 27T501 35T529 52T545 84T554 117T558 158T560 194T559 213L565 281V514L551 637L539 1004V1030L530 1042Q539 1100 539 1159L520 1507Q520 1523 534 1531T565 1540L600 1507L594 1491L600 1475L586 1352L606 983L616
627L623 625Q621 611 621 582L627 438L633 432L627 426Z" />
<glyph unicode="&#xdc;" glyph-name="Udieresis" horiz-adv-x="743" d="M542 1681T530 1695T517 1727T532 1761T566 1777T598 1761T612 1728Q612 1681 558 1681Q542 1681 530 1695ZM147 1708Q147 1775 106 1775Q88 1775 73 1759T57 1725T68 1690T96 1673T130 1682T147
1708ZM627 426L629 297Q629 124 584 42Q565 8 529 -15T436 -39T331 -9T257 68T212 175T184 290Q161 432 139 473Q139 636 119 960T98 1448L84 1491Q84 1505 94 1518T119 1532Q170 1532 170 1382L188 690Q196 680 198 641Q208 499 217 459Q213 435 213 407T232 313T283
183T362 73T446 27T501 35T529 52T545 84T554 117T558 158T560 194T559 213L565 281V514L551 637L539 1004V1030L530 1042Q539 1100 539 1159L520 1507Q520 1523 534 1531T565 1540L600 1507L594 1491L600 1475L586 1352L606 983L616 627L623 625Q621 611 621 582L627
438L633 432L627 426Z" />
<glyph unicode="&#xdd;" glyph-name="Yacute" horiz-adv-x="505" d="M241 1674Q204 1674 204 1704Q204 1716 325 1809T458 1913Q503 1913 503 1881Q503 1880 497 1850Q394 1804 241 1674ZM289 -25Q260 -25 260 25L270 420Q270 420 256 586Q256 619 244 682T231
769T226 822T210 892T196 955T172 1078Q131 1287 103 1382T74 1504Q74 1546 115 1546L139 1530Q144 1447 192 1207T268 930Q300 1024 312 1165T332 1380Q350 1540 389 1540Q420 1540 420 1518Q420 1502 412 1474T401 1423T378 1292T349 1128Q322 965 322 829L328
762L315 731V715L330 469Q330 192 326 55L332 49L334 35Q334 12 323 -6T289 -25Z" />
<glyph unicode="&#xde;" glyph-name="Thorn" horiz-adv-x="540" d="M190 537L201 51Q201 21 193 5T158 -12T131 59L133 317L129 569Q129 687 121 868T112 1086T103 1218T95 1345T94 1395L96 1530Q96 1542 111 1546L145 1540Q147 1512 149 1459T154 1378V1376Q320
1373 400 1205Q446 1110 446 1004T403 774Q350 621 266 582Q240 571 229 560Q209 542 190 537ZM162 1317V1264Q163 1152 175 934T190 612Q211 614 221 623T242 644T256 659Q389 792 389 993Q389 1156 320 1222Q291 1251 247 1282T199 1317H162Z" />
<glyph unicode="&#xdf;" glyph-name="germandbls" horiz-adv-x="616" d="M180 809L190 49Q190 -12 152 -12T113 16L123 535Q123 535 109 1266Q109 1536 264 1536Q343 1536 385 1446T428 1214Q428 979 297 854Q393 805 443 705T494 473V426Q494 191 413 100Q375
58 315 27Q303 23 292 23T268 30T254 54T279 88Q314 105 357 138T408 197Q434 247 435 289T436 382T428 494T401 620Q359 765 256 811Q243 817 233 831T223 854T224 868T228 876T234 881T240 885Q248 889 254 889Q297 902 336 1006T375 1211T343 1389T266 1466Q172
1466 172 1255L180 887V809Z" />
<glyph unicode="&#xe0;" glyph-name="agrave" horiz-adv-x="667" d="M437 1808Q417 1804 404 1804Q334 1804 334 1845Q334 1881 347 1890Q421 1890 439 1867Q441 1866 463 1859T502 1845T544 1829T590 1809T629 1790Q668 1768 668 1751Q668 1744 660 1739T646
1734T543 1768T437 1808ZM367 305L313 303Q284 315 249 315T211 313T207 306T205 299L201 258Q197 206 182 133Q154 -10 123 -10Q110 -10 96 1T82 25Q108 102 136 258T171 452T197 608T222 762T254 922T286 1083T299 1186Q316 1346 326 1364L354 1362Q379 1362
391 1374Q404 1374 416 1366T428 1343Q428 1245 453 964T492 601T526 439T545 317L535 289Q535 243 552 154T569 28T553 -18Q511 -18 502 -6T492 32T489 97T482 159T470 231T459 295Q420 305 367 305ZM223 406Q223 385 272 371Q347 350 438 350H459Q446 390 446
442V489Q446 616 415 859T381 1221Q274 692 249 568T223 406Z" />
<glyph unicode="&#xe1;" glyph-name="aacute" horiz-adv-x="667" d="M271 1479Q234 1479 234 1509Q234 1521 355 1614T488 1718Q533 1718 533 1686Q533 1685 527 1655Q424 1609 271 1479ZM367 305L313 303Q284 315 249 315T211 313T207 306T205 299L201 258Q197
206 182 133Q154 -10 123 -10Q110 -10 96 1T82 25Q108 102 136 258T171 452T197 608T222 762T254 922T286 1083T299 1186Q316 1346 326 1364L354 1362Q379 1362 391 1374Q404 1374 416 1366T428 1343Q428 1245 453 964T492 601T526 439T545 317L535 289Q535 243
552 154T569 28T553 -18Q511 -18 502 -6T492 32T489 97T482 159T470 231T459 295Q420 305 367 305ZM223 406Q223 385 272 371Q347 350 438 350H459Q446 390 446 442V489Q446 616 415 859T381 1221Q274 692 249 568T223 406Z" />
<glyph unicode="&#xe2;" glyph-name="acircumflex" horiz-adv-x="667" d="M489 1478L462 1495Q452 1619 403 1802Q377 1736 348 1646T317 1536L282 1489L245 1515Q247 1560 316 1710T416 1861T446 1820T455 1740T482 1653T507 1579L505 1566L520 1536L518 1525Q526
1509 526 1503Q526 1484 489 1478ZM367 305L313 303Q284 315 249 315T211 313T207 306T205 299L201 258Q197 206 182 133Q154 -10 123 -10Q110 -10 96 1T82 25Q108 102 136 258T171 452T197 608T222 762T254 922T286 1083T299 1186Q316 1346 326 1364L354 1362Q379
1362 391 1374Q404 1374 416 1366T428 1343Q428 1245 453 964T492 601T526 439T545 317L535 289Q535 243 552 154T569 28T553 -18Q511 -18 502 -6T492 32T489 97T482 159T470 231T459 295Q420 305 367 305ZM223 406Q223 385 272 371Q347 350 438 350H459Q446 390
446 442V489Q446 616 415 859T381 1221Q274 692 249 568T223 406Z" />
<glyph unicode="&#xe3;" glyph-name="atilde" horiz-adv-x="667" d="M545 1608L533 1647Q539 1659 558 1659T589 1637T601 1581T568 1514T495 1481T418 1502T362 1543T310 1602L296 1608H259Q256 1596 238 1583T220 1558T230 1510L208 1479Q195 1479 182 1490T169
1514Q169 1577 201 1618T294 1659Q360 1625 375 1614Q390 1584 415 1559T459 1534T484 1536L498 1532Q503 1546 518 1555Q545 1571 545 1608ZM367 305L313 303Q284 315 249 315T211 313T207 306T205 299L201 258Q197 206 182 133Q154 -10 123 -10Q110 -10 96 1T82
25Q108 102 136 258T171 452T197 608T222 762T254 922T286 1083T299 1186Q316 1346 326 1364L354 1362Q379 1362 391 1374Q404 1374 416 1366T428 1343Q428 1245 453 964T492 601T526 439T545 317L535 289Q535 243 552 154T569 28T553 -18Q511 -18 502 -6T492 32T489
97T482 159T470 231T459 295Q420 305 367 305ZM223 406Q223 385 272 371Q347 350 438 350H459Q446 390 446 442V489Q446 616 415 859T381 1221Q274 692 249 568T223 406Z" />
<glyph unicode="&#xe4;" glyph-name="adieresis" horiz-adv-x="667" d="M593 1487T581 1501T568 1533T583 1567T617 1583T649 1567T663 1534Q663 1487 609 1487Q593 1487 581 1501ZM198 1514Q198 1581 157 1581Q139 1581 124 1565T108 1531T119 1496T147 1479T181
1488T198 1514ZM367 305L313 303Q284 315 249 315T211 313T207 306T205 299L201 258Q197 206 182 133Q154 -10 123 -10Q110 -10 96 1T82 25Q108 102 136 258T171 452T197 608T222 762T254 922T286 1083T299 1186Q316 1346 326 1364L354 1362Q379 1362 391 1374Q404
1374 416 1366T428 1343Q428 1245 453 964T492 601T526 439T545 317L535 289Q535 243 552 154T569 28T553 -18Q511 -18 502 -6T492 32T489 97T482 159T470 231T459 295Q420 305 367 305ZM223 406Q223 385 272 371Q347 350 438 350H459Q446 390 446 442V489Q446
616 415 859T381 1221Q274 692 249 568T223 406Z" />
<glyph unicode="&#xe5;" glyph-name="aring" horiz-adv-x="667" d="M327 1479T297 1512T267 1589T304 1673T383 1714T461 1675T498 1587T462 1509T376 1479ZM361 1675T338 1650T314 1603T316 1566T330 1534T362 1518T414 1535T445 1582T431 1643T389 1675ZM367
305L313 303Q284 315 249 315T211 313T207 306T205 299L201 258Q197 206 182 133Q154 -10 123 -10Q110 -10 96 1T82 25Q108 102 136 258T171 452T197 608T222 762T254 922T286 1083T299 1186Q316 1346 326 1364L354 1362Q379 1362 391 1374Q404 1374 416 1366T428
1343Q428 1245 453 964T492 601T526 439T545 317L535 289Q535 243 552 154T569 28T553 -18Q511 -18 502 -6T492 32T489 97T482 159T470 231T459 295Q420 305 367 305ZM223 406Q223 385 272 371Q347 350 438 350H459Q446 390 446 442V489Q446 616 415 859T381 1221Q274
692 249 568T223 406Z" />
<glyph unicode="&#xe6;" glyph-name="ae" horiz-adv-x="923" d="M549 -12L518 -14L489 14Q506 110 506 229L496 600L485 614Q477 612 422 608Q279 600 274 580L172 209Q172 208 159 146Q129 2 100 2Q93 2 89 11T84 27Q86 125 166 432Q276 782 434 1196L438 1208Q438
1208 440 1217Q477 1348 528 1348L686 1350Q750 1350 750 1317L737 1292H635Q568 1292 535 1288L541 975L543 682L553 670Q608 690 715 690L743 655Q743 621 598 621H543L551 154L549 70Q549 35 567 35L799 57Q844 57 844 31Q844 -4 650 -7Q577 -8 565 -14Q559
-12 549 -12ZM494 948L496 1085V1163Q496 1212 494 1237Q476 1218 385 951T289 643Q379 643 494 668V948Z" />
<glyph unicode="&#xe7;" glyph-name="ccedilla" horiz-adv-x="550" d="M390 -199L335 -206Q304 -206 279 -165Q296 -126 296 -48V-25L355 -17Q347 -64 347 -120Q496 -130 496 -326Q496 -374 450 -431T341 -488Q312 -488 283 -474T253 -436T275 -412Q288 -412 308
-422T347 -433T388 -404T410 -349L404 -320Q404 -314 413 -309T423 -302Q423 -249 415 -231T390 -199ZM174 827L166 414Q166 241 199 166Q237 78 296 52Q334 35 373 35T434 53Q465 53 465 31Q465 15 438 -4T387 -33H319Q306 -26 271 -15T207 17T151 88T114 204Q96
312 96 446V680Q96 953 116 1054Q156 1259 225 1313Q243 1327 280 1341T332 1364H414Q416 1364 419 1363T425 1362T430 1360T435 1359T440 1357T444 1354Q453 1345 453 1333L426 1303H340Q298 1303 267 1264T220 1170T193 1045Q178 938 178 838L174 827Z" />
<glyph unicode="&#xe8;" glyph-name="egrave" horiz-adv-x="491" d="M14 1552Q-6 1548 -19 1548Q-89 1548 -89 1589Q-89 1625 -76 1634Q-2 1634 16 1611Q18 1610 40 1603T79 1589T121 1573T167 1553T206 1534Q245 1512 245 1495Q245 1488 237 1483T223 1478T120
1512T14 1552ZM109 16L111 68L104 76Q119 117 119 160L109 430L123 1047L115 1292Q115 1350 174 1350Q197 1350 207 1337Q214 1335 266 1329Q392 1315 395 1278Q395 1262 356 1239Q243 1276 190 1278L180 1266Q182 1237 182 1178L174 860Q174 803 203 803L272 807Q350
807 352 770Q352 749 342 733T304 717T264 733L197 743H188L178 733V727Q182 674 182 565L178 274Q178 70 206 48Q224 33 272 33L348 37Q408 37 408 10Q408 -27 319 -27H150Q112 -27 109 16Z" />
<glyph unicode="&#xe9;" glyph-name="eacute" horiz-adv-x="491" d="M220 1479Q183 1479 183 1509Q183 1521 304 1614T437 1718Q482 1718 482 1686Q482 1685 476 1655Q373 1609 220 1479ZM109 16L111 68L104 76Q119 117 119 160L109 430L123 1047L115 1292Q115
1350 174 1350Q197 1350 207 1337Q214 1335 266 1329Q392 1315 395 1278Q395 1262 356 1239Q243 1276 190 1278L180 1266Q182 1237 182 1178L174 860Q174 803 203 803L272 807Q350 807 352 770Q352 749 342 733T304 717T264 733L197 743H188L178 733V727Q182 674
182 565L178 274Q178 70 206 48Q224 33 272 33L348 37Q408 37 408 10Q408 -27 319 -27H150Q112 -27 109 16Z" />
<glyph unicode="&#xea;" glyph-name="ecircumflex" horiz-adv-x="491" d="M323 1478L296 1495Q286 1619 237 1802Q211 1736 182 1646T151 1536L116 1489L79 1515Q81 1560 150 1710T250 1861T280 1820T289 1740T316 1653T341 1579L339 1566L354 1536L352 1525Q360
1509 360 1503Q360 1484 323 1478ZM109 16L111 68L104 76Q119 117 119 160L109 430L123 1047L115 1292Q115 1350 174 1350Q197 1350 207 1337Q214 1335 266 1329Q392 1315 395 1278Q395 1262 356 1239Q243 1276 190 1278L180 1266Q182 1237 182 1178L174 860Q174
803 203 803L272 807Q350 807 352 770Q352 749 342 733T304 717T264 733L197 743H188L178 733V727Q182 674 182 565L178 274Q178 70 206 48Q224 33 272 33L348 37Q408 37 408 10Q408 -27 319 -27H150Q112 -27 109 16Z" />
<glyph unicode="&#xeb;" glyph-name="edieresis" horiz-adv-x="491" d="M426 1487T414 1501T401 1533T416 1567T450 1583T482 1567T496 1534Q496 1487 442 1487Q426 1487 414 1501ZM31 1514Q31 1581 -10 1581Q-28 1581 -43 1565T-59 1531T-48 1496T-20 1479T14
1488T31 1514ZM109 16L111 68L104 76Q119 117 119 160L109 430L123 1047L115 1292Q115 1350 174 1350Q197 1350 207 1337Q214 1335 266 1329Q392 1315 395 1278Q395 1262 356 1239Q243 1276 190 1278L180 1266Q182 1237 182 1178L174 860Q174 803 203 803L272 807Q350
807 352 770Q352 749 342 733T304 717T264 733L197 743H188L178 733V727Q182 674 182 565L178 274Q178 70 206 48Q224 33 272 33L348 37Q408 37 408 10Q408 -27 319 -27H150Q112 -27 109 16Z" />
<glyph unicode="&#xec;" glyph-name="igrave" horiz-adv-x="550" d="M36 1552Q16 1548 3 1548Q-67 1548 -67 1589Q-67 1625 -54 1634Q20 1634 38 1611Q40 1610 62 1603T101 1589T143 1573T189 1553T228 1534Q267 1512 267 1495Q267 1488 259 1483T245 1478T142
1512T36 1552ZM424 16L356 23Q340 23 318 12T266 0T227 20L193 18Q149 18 137 39Q137 52 148 60T164 74H223L231 82L238 125Q238 125 223 573L233 1051Q233 1190 223 1288Q203 1294 162 1294L113 1290Q74 1290 74 1325Q74 1334 92 1342T123 1350Q408 1350 408 1288Q408
1282 403 1272L356 1268Q340 1280 297 1280L287 1274Q293 1256 293 1165L287 678L301 229L299 166Q299 118 305 109L303 104Q303 84 348 84L408 86Q469 86 469 57Q469 39 456 28T424 16Z" />
<glyph unicode="&#xed;" glyph-name="iacute" horiz-adv-x="550" d="M242 1479Q205 1479 205 1509Q205 1521 326 1614T459 1718Q504 1718 504 1686Q504 1685 498 1655Q395 1609 242 1479ZM424 16L356 23Q340 23 318 12T266 0T227 20L193 18Q149 18 137 39Q137
52 148 60T164 74H223L231 82L238 125Q238 125 223 573L233 1051Q233 1190 223 1288Q203 1294 162 1294L113 1290Q74 1290 74 1325Q74 1334 92 1342T123 1350Q408 1350 408 1288Q408 1282 403 1272L356 1268Q340 1280 297 1280L287 1274Q293 1256 293 1165L287
678L301 229L299 166Q299 118 305 109L303 104Q303 84 348 84L408 86Q469 86 469 57Q469 39 456 28T424 16Z" />
<glyph unicode="&#xee;" glyph-name="icircumflex" horiz-adv-x="550" d="M345 1478L318 1495Q308 1619 259 1802Q233 1736 204 1646T173 1536L138 1489L101 1515Q103 1560 172 1710T272 1861T302 1820T311 1740T338 1653T363 1579L361 1566L376 1536L374 1525Q382
1509 382 1503Q382 1484 345 1478ZM424 16L356 23Q340 23 318 12T266 0T227 20L193 18Q149 18 137 39Q137 52 148 60T164 74H223L231 82L238 125Q238 125 223 573L233 1051Q233 1190 223 1288Q203 1294 162 1294L113 1290Q74 1290 74 1325Q74 1334 92 1342T123
1350Q408 1350 408 1288Q408 1282 403 1272L356 1268Q340 1280 297 1280L287 1274Q293 1256 293 1165L287 678L301 229L299 166Q299 118 305 109L303 104Q303 84 348 84L408 86Q469 86 469 57Q469 39 456 28T424 16Z" />
<glyph unicode="&#xef;" glyph-name="idieresis" horiz-adv-x="550" d="M448 1487T436 1501T423 1533T438 1567T472 1583T504 1567T518 1534Q518 1487 464 1487Q448 1487 436 1501ZM53 1514Q53 1581 12 1581Q-6 1581 -21 1565T-37 1531T-26 1496T2 1479T36 1488T53
1514ZM424 16L356 23Q340 23 318 12T266 0T227 20L193 18Q149 18 137 39Q137 52 148 60T164 74H223L231 82L238 125Q238 125 223 573L233 1051Q233 1190 223 1288Q203 1294 162 1294L113 1290Q74 1290 74 1325Q74 1334 92 1342T123 1350Q408 1350 408 1288Q408
1282 403 1272L356 1268Q340 1280 297 1280L287 1274Q293 1256 293 1165L287 678L301 229L299 166Q299 118 305 109L303 104Q303 84 348 84L408 86Q469 86 469 57Q469 39 456 28T424 16Z" />
<glyph unicode="&#xf0;" glyph-name="eth" horiz-adv-x="516" d="M483 1313Q483 1307 395 1296Q430 1105 430 815V807Q430 611 420 369Q417 347 412 262T397 129T372 49Q338 -29 260 -29Q135 -29 122 110Q119 136 119 175T119 250T122 354T131 478T146 602T172
722T210 819Q253 913 332 913Q353 913 377 897Q370 1123 344 1288Q230 1276 208 1276T186 1284Q186 1313 209 1313Q268 1313 340 1323Q316 1465 279 1497Q273 1502 254 1510Q209 1529 209 1550Q209 1557 217 1563T233 1569Q339 1569 391 1329Q445 1333 465 1333T485
1323L483 1313ZM377 727V844Q356 860 315 868Q248 868 215 712Q182 555 176 437Q168 253 168 174Q168 12 244 12Q286 12 300 27T321 51T332 78T337 106T341 137T344 166Q377 433 377 727Z" />
<glyph unicode="&#xf1;" glyph-name="ntilde" horiz-adv-x="862" d="M559 1608L547 1647Q553 1659 572 1659T603 1637T615 1581T582 1514T509 1481T432 1502T376 1543T324 1602L310 1608H273Q270 1596 252 1583T234 1558T244 1510L222 1479Q209 1479 196 1490T183
1514Q183 1577 215 1618T308 1659Q374 1625 389 1614Q404 1584 429 1559T473 1534T498 1536L512 1532Q517 1546 532 1555Q559 1571 559 1608ZM682 1247L678 1298Q678 1341 707 1341Q727 1341 739 1322T752 1282V1145L741 1128Q741 968 719 509T676 6Q671 5 647
-1T612 -8T594 5T582 41T573 70L575 76Q562 161 522 270T469 418Q462 427 414 571Q230 1142 182 1188Q166 1125 166 1044L170 883L166 784Q166 761 174 641H168Q168 300 182 264V80Q190 66 190 44Q190 -4 152 -4Q109 -4 109 106L117 240L104 829L117 1192V1228Q117
1255 118 1264T121 1285T126 1305T133 1321Q141 1339 154 1350L160 1343L180 1348Q203 1340 208 1316Q208 1314 210 1305T213 1294Q248 1148 360 887T496 552T539 394Q581 210 631 125L635 131Q682 578 682 1247ZM639 -2Q641 -2 641 -4L639 -2Z" />
<glyph unicode="&#xf2;" glyph-name="ograve" horiz-adv-x="673" d="M351 1808Q331 1804 318 1804Q248 1804 248 1845Q248 1881 261 1890Q335 1890 353 1867Q355 1866 377 1859T416 1845T458 1829T504 1809T543 1790Q582 1768 582 1751Q582 1744 574 1739T560
1734T457 1768T351 1808ZM559 791L563 547Q563 86 415 -14Q379 -39 334 -39Q94 -39 94 715Q94 1006 134 1220Q164 1376 225 1376Q239 1376 251 1365T285 1347T344 1332T398 1322Q439 1315 477 1243Q563 1097 563 801L559 791ZM158 717L162 555Q162 360 206 184Q222
118 253 69T325 20T396 50T445 133T475 242T492 367Q500 477 500 563L477 1047L469 1063L473 1073Q473 1162 423 1228T301 1294H215Q198 1294 185 1112T168 909L158 717Z" />
<glyph unicode="&#xf3;" glyph-name="oacute" horiz-adv-x="673" d="M302 1479Q265 1479 265 1509Q265 1521 386 1614T519 1718Q564 1718 564 1686Q564 1685 558 1655Q455 1609 302 1479ZM559 791L563 547Q563 86 415 -14Q379 -39 334 -39Q94 -39 94 715Q94 1006
134 1220Q164 1376 225 1376Q239 1376 251 1365T285 1347T344 1332T398 1322Q439 1315 477 1243Q563 1097 563 801L559 791ZM158 717L162 555Q162 360 206 184Q222 118 253 69T325 20T396 50T445 133T475 242T492 367Q500 477 500 563L477 1047L469 1063L473 1073Q473
1162 423 1228T301 1294H215Q198 1294 185 1112T168 909L158 717Z" />
<glyph unicode="&#xf4;" glyph-name="ocircumflex" horiz-adv-x="673" d="M404 1478L377 1495Q367 1619 318 1802Q292 1736 263 1646T232 1536L197 1489L160 1515Q162 1560 231 1710T331 1861T361 1820T370 1740T397 1653T422 1579L420 1566L435 1536L433 1525Q441
1509 441 1503Q441 1484 404 1478ZM559 791L563 547Q563 86 415 -14Q379 -39 334 -39Q94 -39 94 715Q94 1006 134 1220Q164 1376 225 1376Q239 1376 251 1365T285 1347T344 1332T398 1322Q439 1315 477 1243Q563 1097 563 801L559 791ZM158 717L162 555Q162 360
206 184Q222 118 253 69T325 20T396 50T445 133T475 242T492 367Q500 477 500 563L477 1047L469 1063L473 1073Q473 1162 423 1228T301 1294H215Q198 1294 185 1112T168 909L158 717Z" />
<glyph unicode="&#xf5;" glyph-name="otilde" horiz-adv-x="673" d="M459 1608L447 1647Q453 1659 472 1659T503 1637T515 1581T482 1514T409 1481T332 1502T276 1543T224 1602L210 1608H173Q170 1596 152 1583T134 1558T144 1510L122 1479Q109 1479 96 1490T83
1514Q83 1577 115 1618T208 1659Q274 1625 289 1614Q304 1584 329 1559T373 1534T398 1536L412 1532Q417 1546 432 1555Q459 1571 459 1608ZM559 791L563 547Q563 86 415 -14Q379 -39 334 -39Q94 -39 94 715Q94 1006 134 1220Q164 1376 225 1376Q239 1376 251 1365T285
1347T344 1332T398 1322Q439 1315 477 1243Q563 1097 563 801L559 791ZM158 717L162 555Q162 360 206 184Q222 118 253 69T325 20T396 50T445 133T475 242T492 367Q500 477 500 563L477 1047L469 1063L473 1073Q473 1162 423 1228T301 1294H215Q198 1294 185 1112T168
909L158 717Z" />
<glyph unicode="&#xf6;" glyph-name="odieresis" horiz-adv-x="673" d="M508 1487T496 1501T483 1533T498 1567T532 1583T564 1567T578 1534Q578 1487 524 1487Q508 1487 496 1501ZM113 1514Q113 1581 72 1581Q54 1581 39 1565T23 1531T34 1496T62 1479T96 1488T113
1514ZM559 791L563 547Q563 86 415 -14Q379 -39 334 -39Q94 -39 94 715Q94 1006 134 1220Q164 1376 225 1376Q239 1376 251 1365T285 1347T344 1332T398 1322Q439 1315 477 1243Q563 1097 563 801L559 791ZM158 717L162 555Q162 360 206 184Q222 118 253 69T325
20T396 50T445 133T475 242T492 367Q500 477 500 563L477 1047L469 1063L473 1073Q473 1162 423 1228T301 1294H215Q198 1294 185 1112T168 909L158 717Z" />
<glyph unicode="&#xf7;" glyph-name="divide" horiz-adv-x="620" d="M506 741Q506 725 450 723T354 721H135Q118 721 105 730T92 756Q92 762 293 762H483Q491 762 498 755T506 741ZM381 953T367 941T335 928T301 943T285 976T301 1008T334 1022Q381 1022 381 969Q381
953 367 941ZM354 557Q287 557 287 516Q287 498 303 483T337 467T372 478T389 506T380 540T354 557Z" />
<glyph unicode="&#xf8;" glyph-name="oslash" horiz-adv-x="565" d="M449 764L455 410Q455 271 444 213T419 113T386 46Q339 -14 272 -14T178 23H176L174 8Q144 -248 123 -248T102 -219L152 104Q152 117 145 141T134 188T125 253T115 332T108 417T103 496T100
582T98 662T97 748T96 828V993Q96 1382 233 1382Q256 1382 289 1360L295 1364L309 1350L354 1591H387V1573L346 1311Q346 1296 373 1255L371 1251Q373 1239 385 1220Q422 1161 422 1071L418 1069Q418 1021 431 925T444 780V770L449 764ZM224 235T213 191T201 106Q201
25 285 25Q406 25 406 369Q406 715 387 938T338 1217Q304 1013 264 624ZM152 647Q152 582 164 451T176 254Q195 370 232 709T272 1069T282 1134Q295 1225 295 1263T277 1316T247 1331T205 1321L195 1323Q137 1292 137 782Q137 685 152 647Z" />
<glyph unicode="&#xf9;" glyph-name="ugrave" horiz-adv-x="651" d="M361 1821Q341 1817 328 1817Q258 1817 258 1858Q258 1894 271 1903Q345 1903 363 1880Q365 1879 387 1872T426 1858T468 1842T514 1822T553 1803Q592 1781 592 1764Q592 1757 584 1752T570
1747T467 1781T361 1821ZM520 920L522 879Q518 827 517 739T514 572T508 401T492 236Q464 62 401 4Q333 -60 242 -9Q203 13 177 46T134 258T115 637Q106 1235 96 1319L109 1348Q156 1342 156 1235L162 692L184 258Q184 25 338 25Q433 25 458 454Q460 483 467 731T475
1329L471 1366Q471 1389 500 1389T535 1376T541 1255T528 1096Q530 1092 530 1083Q530 1083 520 920Z" />
<glyph unicode="&#xfa;" glyph-name="uacute" horiz-adv-x="651" d="M312 1491Q275 1491 275 1521Q275 1533 396 1626T529 1730Q574 1730 574 1698Q574 1697 568 1667Q465 1621 312 1491ZM520 920L522 879Q518 827 517 739T514 572T508 401T492 236Q464 62 401
4Q333 -60 242 -9Q203 13 177 46T134 258T115 637Q106 1235 96 1319L109 1348Q156 1342 156 1235L162 692L184 258Q184 25 338 25Q433 25 458 454Q460 483 467 731T475 1329L471 1366Q471 1389 500 1389T535 1376T541 1255T528 1096Q530 1092 530 1083Q530 1083
520 920Z" />
<glyph unicode="&#xfb;" glyph-name="ucircumflex" horiz-adv-x="651" d="M414 1491L387 1508Q377 1632 328 1815Q302 1749 273 1659T242 1549L207 1502L170 1528Q172 1573 241 1723T341 1874T371 1833T380 1753T407 1666T432 1592L430 1579L445 1549L443 1538Q451
1522 451 1516Q451 1497 414 1491ZM520 920L522 879Q518 827 517 739T514 572T508 401T492 236Q464 62 401 4Q333 -60 242 -9Q203 13 177 46T134 258T115 637Q106 1235 96 1319L109 1348Q156 1342 156 1235L162 692L184 258Q184 25 338 25Q433 25 458 454Q460 483
467 731T475 1329L471 1366Q471 1389 500 1389T535 1376T541 1255T528 1096Q530 1092 530 1083Q530 1083 520 920Z" />
<glyph unicode="&#xfc;" glyph-name="udieresis" horiz-adv-x="651" d="M518 1499T506 1513T493 1545T508 1579T542 1595T574 1579T588 1546Q588 1499 534 1499Q518 1499 506 1513ZM123 1526Q123 1593 82 1593Q64 1593 49 1577T33 1543T44 1508T72 1491T106 1500T123
1526ZM520 920L522 879Q518 827 517 739T514 572T508 401T492 236Q464 62 401 4Q333 -60 242 -9Q203 13 177 46T134 258T115 637Q106 1235 96 1319L109 1348Q156 1342 156 1235L162 692L184 258Q184 25 338 25Q433 25 458 454Q460 483 467 731T475 1329L471 1366Q471
1389 500 1389T535 1376T541 1255T528 1096Q530 1092 530 1083Q530 1083 520 920Z" />
<glyph unicode="&#xfd;" glyph-name="yacute" horiz-adv-x="561" d="M269 1479Q232 1479 232 1509Q232 1521 353 1614T486 1718Q531 1718 531 1686Q531 1685 525 1655Q422 1609 269 1479ZM350 442L352 117Q352 -31 309 -31Q302 -31 292 -23T279 -8Q299 42 299
350Q299 410 292 521T283 666L270 692L276 717Q250 777 180 976Q78 1261 76 1307L104 1329Q124 1326 164 1199T242 943T297 811L305 848L301 858Q316 876 340 1003T393 1245T447 1360T473 1338T451 1239T410 1097T382 998T360 910Q336 810 336 723Q346 698 346
688L334 629L350 442Z" />
<glyph unicode="&#xfe;" glyph-name="thorn" horiz-adv-x="530" d="M121 1329Q121 1382 164 1382Q192 1382 269 1358T348 1315Q346 1311 346 1309Q384 1249 397 1189T410 1007T377 795H379Q371 776 348 742T319 698Q359 667 382 610T411 507T420 399L422 346V317Q422
121 300 27Q235 -23 143 -23Q125 -23 115 -11T103 21T102 84L123 516L119 698L131 1188Q131 1266 129 1307L121 1317V1329ZM172 150L174 57Q250 57 304 128T358 279V282Q359 300 359 317T358 375T351 451T334 528T304 599Q262 668 188 668Q178 515 178 398T184
248Q172 226 172 150ZM184 934L182 791V766L190 739H205Q340 739 340 1012Q340 1049 334 1139L330 1143Q317 1313 227 1313Q182 1313 182 1044L184 934Z" />
<glyph unicode="&#xff;" glyph-name="ydieresis" horiz-adv-x="561" d="M473 1487T461 1501T449 1533T464 1567T497 1583T529 1567T543 1534Q543 1487 489 1487Q473 1487 461 1501ZM78 1513Q78 1581 37 1581Q19 1581 4 1565T-12 1531T-1 1496T27 1479T61 1487T78
1513ZM350 442L352 117Q352 -31 309 -31Q302 -31 292 -23T279 -8Q299 42 299 350Q299 410 292 521T283 666L270 692L276 717Q250 777 180 976Q78 1261 76 1307L104 1329Q124 1326 164 1199T242 943T297 811L305 848L301 858Q316 876 340 1003T393 1245T447 1360T473
1338T451 1239T410 1097T382 998T360 910Q336 810 336 723Q346 698 346 688L334 629L350 442Z" />
<glyph unicode="&#x2013;" glyph-name="endash" horiz-adv-x="620" d="M631 727H569Q569 721 354 721H53Q36 721 23 730T10 756Q10 762 293 762H586Q601 762 616 752T631 727Z" />
<glyph unicode="&#x2014;" glyph-name="emdash" horiz-adv-x="620" d="M918 727H856Q856 721 641 721H53Q36 721 23 730T10 756Q10 762 580 762H872Q887 762 902 752T918 727Z" />
<glyph unicode="&#x2018;" glyph-name="quoteleft" horiz-adv-x="395" d="M186 1370Q246 1334 246 1280Q246 1252 222 1235T168 1217Q121 1217 100 1276L104 1282Q100 1290 100 1315T125 1399T190 1505T264 1554L297 1538L293 1520Q186 1434 186 1370Z" />
<glyph unicode="&#x2019;" glyph-name="quoteright" horiz-adv-x="397" d="M207 1401Q147 1437 147 1491Q147 1519 171 1536T225 1554Q272 1554 293 1495L289 1489Q293 1481 293 1456T268 1372T203 1266T129 1217L96 1233L100 1251Q207 1337 207 1401Z" />
<glyph unicode="&#x201a;" glyph-name="quotesinglbase" horiz-adv-x="407" d="M100 -162L104 -143Q211 -54 211 6Q186 20 169 45T152 97T176 142T229 160Q275 160 297 100L293 94Q297 86 297 61T272 -22T207 -128T133 -178L100 -162Z" />
<glyph unicode="&#x201c;" glyph-name="quotedblleft" horiz-adv-x="608" d="M186 1370Q246 1334 246 1280Q246 1252 222 1235T168 1217Q121 1217 100 1276L104 1282Q100 1290 100 1315T125 1399T190 1505T264 1554L297 1538L293 1520Q186 1434 186 1370ZM399
1370Q459 1334 459 1280Q459 1252 435 1235T381 1217Q334 1217 313 1276L317 1282Q313 1290 313 1315T338 1399T403 1505T477 1554L510 1538L506 1520Q399 1434 399 1370Z" />
<glyph unicode="&#x201d;" glyph-name="quotedblright" horiz-adv-x="643" d="M207 1401Q147 1437 147 1491Q147 1519 171 1536T225 1554Q272 1554 293 1495L289 1489Q293 1481 293 1456T268 1372T203 1266T129 1217L96 1233L100 1251Q207 1337 207 1401ZM453
1401Q393 1437 393 1491Q393 1519 417 1536T471 1554Q518 1554 539 1495L535 1489Q539 1481 539 1456T514 1372T449 1266T375 1217L342 1233L346 1251Q453 1337 453 1401Z" />
<glyph unicode="&#x201e;" glyph-name="quotedblbase" horiz-adv-x="636" d="M125 -174L100 -158Q110 -135 140 -109T192 -55T215 6Q190 20 173 45T156 97T180 142T234 160T282 137T301 77T277 -18T210 -126T125 -174ZM330 -162L334 -143Q339 -138 360 -120T390
-91T414 -64Q440 -32 440 6Q415 20 398 45T381 97T405 142T459 160T507 137T526 79T503 -16T440 -126T362 -178L330 -162Z" />
<glyph unicode="&#x2022;" glyph-name="bullet" horiz-adv-x="868" d="M373 571T337 612T301 701T332 803T427 858T531 825T573 753T567 690T546 636Q514 571 426 571Q373 571 337 612Z" />
<glyph unicode="&#x2039;" glyph-name="guilsinglleft" horiz-adv-x="569" d="M461 0L434 4H430Q398 51 361 135T313 242L211 455Q206 466 190 498T166 549Q160 567 122 617T84 695T132 837T237 1080T302 1231T318 1287T336 1346Q359 1417 385 1421L412 1401Q394
1282 272 1039Q156 806 156 700Q156 683 297 396T471 53L489 39Q487 28 479 14T461 0Z" />
<glyph unicode="&#x203a;" glyph-name="guilsinglright" horiz-adv-x="569" d="M139 4Q139 4 109 0Q100 0 91 14T80 39L98 53Q134 118 274 400T414 700Q414 806 298 1039Q176 1282 158 1401L184 1421Q212 1415 234 1346Q241 1322 250 1288T267 1232T332 1081Q485
737 485 703T448 618T403 549T379 498T358 455L182 90Q145 13 139 4Z" />
</font>
</defs>
</svg>
