<?xml version="1.0" standalone="no"?>
<!DOCTYPE svg PUBLIC "-//W3C//DTD SVG 1.1//EN" "http://www.w3.org/Graphics/SVG/1.1/DTD/svg11.dtd">
<svg xmlns="http://www.w3.org/2000/svg">
<defs >
<font id="Rokkitt" horiz-adv-x="799" ><font-face
    font-family="Rokkitt"
    units-per-em="2048"
    panose-1="2 0 5 3 5 0 0 2 0 3"
    ascent="1552"
    descent="-594"
    alphabetic="0" />
<glyph unicode=" " glyph-name="space" horiz-adv-x="430" />
<glyph unicode="!" glyph-name="exclam" horiz-adv-x="466" d="M147 821V1171H319V821L277 324H189L147 821ZM127 212H339V0H127V212Z" />
<glyph unicode="&quot;" glyph-name="quotedbl" horiz-adv-x="665" d="M557 756H427L382 1171H599L557 756ZM234 756H104L59 1171H276L234 756Z" />
<glyph unicode="#" glyph-name="numbersign" horiz-adv-x="1186" d="M236 0L268 333H90L102 442H284L317 733H110L122 844H333L367 1171H490L456 844H781L819 1171H942L905 844H1102L1090 733H889L860 442H1082L1070 333H844L809 0H688L719 333H392L357 0H236ZM408
442H735L765 733H439L408 442Z" />
<glyph unicode="$" glyph-name="dollar" horiz-adv-x="940" d="M411 -4Q312 18 231 87V0H96V387H231V271Q270 217 313 184T411 133V532Q345 547 286 570T183 630T114 723T88 859Q88 931 112 986T180 1081T283 1142T411 1169V1305H542V1161Q636 1138 713 1079V1153H848V826H713V908Q678
956 637 986T542 1027V662Q613 647 679 621T797 553T879 451T910 306Q910 238 884 180T809 79T692 11T542 -17V-143H411V-4ZM745 304Q745 346 730 377T688 431T624 470T542 499V117Q588 120 626 135T690 175T730 233T745 304ZM244 867Q244 829 256 802T291 755T344
720T411 695V1030Q326 1017 285 973T244 867Z" />
<glyph unicode="%" glyph-name="percent" horiz-adv-x="1579" d="M586 863Q586 781 564 723T505 628T422 574T326 557Q277 557 231 574T148 628T89 723T66 863Q66 945 88 1003T147 1098T230 1152T326 1170Q375 1170 421 1153T504 1098T563 1003T586 863ZM447 863Q447
919 437 957T409 1020T370 1054T326 1065Q303 1065 282 1055T243 1020T216 958T205 863Q205 807 215 769T243 706T281 671T326 660Q348 660 370 671T409 706T436 768T447 863ZM1223 1196L1284 1146L341 -50L273 0L1223 1196ZM1519 287Q1519 205 1497 147T1438 52T1355
-2T1259 -19Q1210 -19 1164 -2T1081 52T1022 147T999 287Q999 369 1021 427T1080 522T1163 576T1259 594Q1308 594 1354 577T1437 522T1496 427T1519 287ZM1380 287Q1380 343 1370 381T1342 444T1303 478T1259 489Q1236 489 1215 479T1176 444T1149 382T1138 287Q1138
231 1148 193T1176 130T1214 95T1259 84Q1281 84 1303 95T1342 130T1369 192T1380 287Z" />
<glyph unicode="&amp;" glyph-name="ampersand" horiz-adv-x="1201" d="M797 115Q716 46 638 14T471 -19Q382 -19 306 7T175 80T88 189T56 325Q56 446 133 530T362 670Q307 740 276 799T245 921Q245 973 267 1018T329 1097T420 1150T533 1170Q592 1170 643 1152T732
1101T791 1025T813 930Q813 881 800 838T757 757T680 685T566 621L806 332Q844 384 870 445T913 583H1143V456H1014Q988 377 958 322T886 223L959 125H1143V0H883L797 115ZM438 573Q210 493 210 335Q210 292 230 253T287 183T375 135T487 117Q551 117 608 141T720
219L438 573ZM494 720Q588 769 633 817T679 932Q679 986 638 1015T533 1045Q467 1045 426 1015T385 928Q385 886 412 839T494 720Z" />
<glyph unicode="&apos;" glyph-name="quotesingle" horiz-adv-x="337" d="M242 756H112L67 1171H284L242 756Z" />
<glyph unicode="(" glyph-name="parenleft" horiz-adv-x="522" d="M34 517Q34 646 69 749T164 932T304 1069T476 1165V1037Q419 1003 368 957T279 849T218 705T195 517Q195 411 217 330T278 186T368 78T476 -1V-132Q385 -95 305 -37T164 101T69 285T34 517Z" />
<glyph unicode=")" glyph-name="parenright" horiz-adv-x="522" d="M476 517Q476 389 441 286T346 102T206 -37T34 -132V-1Q91 32 142 77T231 185T292 329T315 517Q315 623 293 704T232 848T142 957T34 1037V1165Q125 1127 205 1070T346 932T441 749T476 517Z" />
<glyph unicode="*" glyph-name="asterisk" horiz-adv-x="916" d="M282 351L141 450L237 582L411 729L183 743L32 797L82 960L237 909L437 783L379 1013V1171H548V1013L488 783L688 909L844 960L894 797L744 743L515 729L688 582L783 450L644 351L548 483L463 698L379
483L282 351Z" />
<glyph unicode="+" glyph-name="plus" horiz-adv-x="1047" d="M990 602V485H585V93H461V485H57V602H461V994H585V602H990Z" />
<glyph unicode="," glyph-name="comma" horiz-adv-x="414" d="M86 211H313V0Q313 -57 302 -101T264 -176T194 -221T86 -237V-150Q120 -143 143 -133T180 -105T200 -62T207 0H86V211Z" />
<glyph unicode="-" glyph-name="hyphen" horiz-adv-x="719" d="M101 484H618V340H101V484Z" />
<glyph unicode="." glyph-name="period" horiz-adv-x="414" d="M86 211H313V0H86V211Z" />
<glyph unicode="/" glyph-name="slash" horiz-adv-x="793" d="M692 1171L258 -18H129L563 1171H692Z" />
<glyph unicode="0" glyph-name="zero" horiz-adv-x="1004" d="M502 -19Q395 -19 317 24T188 145T112 333T87 577Q87 710 112 819T188 1007T317 1128T502 1171Q608 1171 686 1128T816 1007T892 820T917 577Q917 443 892 333T816 145T687 24T502 -19ZM501 101Q568
101 617 128T699 214T747 362T763 577Q763 823 700 937T501 1051Q427 1051 377 1018T297 924T254 774T241 577Q241 465 254 377T297 228T377 134T501 101Z" />
<glyph unicode="1" glyph-name="one" horiz-adv-x="584" d="M65 125H231V1026H57V1153H380V125H534V0H65V125Z" />
<glyph unicode="2" glyph-name="two" horiz-adv-x="936" d="M700 378H827V0H66Q63 27 63 52Q63 135 89 202T157 324T254 426T364 514T475 594T571 673T640 758T666 855Q666 940 614 987T453 1035Q393 1035 353 1019T287 967T250 876T239 744H95Q95 963 184 1066T452
1170Q560 1170 633 1141T750 1067T813 966T832 858Q832 792 809 738T747 638T658 552T554 474T447 399T350 322T273 236T228 136H700V378Z" />
<glyph unicode="3" glyph-name="three" horiz-adv-x="953" d="M198 350Q208 238 271 178T443 117Q509 117 558 132T641 174T691 237T708 317Q708 381 680 423T603 489T487 522T342 532V664H429Q550 664 609 707T669 848Q669 887 655 921T611 981T537 1020T432
1035Q382 1035 345 1021T283 980T244 918T227 837L79 863Q82 933 108 990T179 1087T288 1149T428 1171Q519 1171 592 1151T716 1091T795 994T823 864Q823 822 814 782T782 707T722 645T628 602Q687 591 732 566T807 505T853 423T869 325Q869 249 840 186T755 78T618
7T433 -18Q350 -18 280 4T159 72T80 185T51 346L198 350Z" />
<glyph unicode="4" glyph-name="four" horiz-adv-x="875" d="M319 125H483V315H24V436L487 1153H625V436H815V315H625V125H774V0H319V125ZM483 947L168 436H483V947Z" />
<glyph unicode="5" glyph-name="five" horiz-adv-x="947" d="M235 330Q254 224 313 166T470 108Q530 108 575 127T651 180T697 260T713 360Q713 427 695 476T646 559T574 608T485 625Q422 625 359 598T238 512L155 557V1153H800V916H662V1016H283Q275 922 268
834T254 651Q297 711 358 737T498 764Q584 764 653 735T771 652T846 524T873 361Q873 284 850 216T777 95T651 12T470 -19Q384 -19 317 5T201 74T126 183T92 329L235 330Z" />
<glyph unicode="6" glyph-name="six" horiz-adv-x="947" d="M710 848Q705 893 687 929T642 991T580 1031T508 1045Q445 1045 395 1019T309 940T255 813T236 639Q287 681 363 702T524 723Q602 723 665 697T773 623T842 511T867 372Q867 289 842 218T770 95T654
12T498 -18Q396 -18 319 21T190 136T112 321T85 571Q85 707 110 818T187 1007T315 1128T497 1171Q575 1171 638 1148T748 1081T819 979T847 848H710ZM507 592Q480 592 446 587T376 572T305 546T242 509Q256 315 314 216T492 117Q549 117 592 136T664 188T707 265T722
362Q722 412 708 454T666 527T598 575T507 592Z" />
<glyph unicode="7" glyph-name="seven" horiz-adv-x="819" d="M809 1153V1025Q716 932 649 825T537 601T471 365T450 125H632V0H121V125H293Q293 261 318 389T389 632T496 846T631 1026H188V860H51V1153H809Z" />
<glyph unicode="8" glyph-name="eight" horiz-adv-x="1007" d="M499 -18Q404 -18 326 6T193 73T107 178T76 315Q76 417 131 493T303 599Q247 620 210 648T151 710T119 783T109 867Q109 934 136 990T215 1086T338 1149T499 1171Q588 1171 660 1149T783 1087T861
990T889 867Q889 823 880 784T848 710T788 648T695 599Q810 569 866 493T922 315Q922 240 892 179T806 74T672 6T499 -18ZM499 533Q370 533 306 477T241 321Q241 276 260 239T313 174T394 132T499 117Q556 117 603 132T685 174T738 238T757 321Q757 421 693 477T499
533ZM499 1040Q387 1040 325 990T263 854Q263 812 280 778T329 718T404 677T499 659Q550 662 593 677T667 717T717 777T735 854Q735 939 673 989T499 1040Z" />
<glyph unicode="9" glyph-name="nine" horiz-adv-x="949" d="M235 305Q241 260 260 224T309 162T376 122T455 108Q513 108 560 134T640 212T691 345T709 534Q658 483 582 457T421 430Q343 430 280 456T172 530T103 642T78 781Q78 865 103 936T175 1060T291 1141T447
1171Q651 1171 755 1019T860 582Q860 445 835 335T758 146T630 25T448 -18Q370 -18 307 5T197 72T126 174T98 305H235ZM438 571Q465 571 499 578T569 601T640 639T703 694Q695 778 678 841T631 948T558 1013T453 1035Q396 1035 353 1017T281 965T238 888T223 791Q223
743 237 703T279 633T347 588T438 571Z" />
<glyph unicode=":" glyph-name="colon" horiz-adv-x="414" d="M93 211H320V0H93V211ZM93 820H320V609H93V820Z" />
<glyph unicode=";" glyph-name="semicolon" horiz-adv-x="414" d="M93 820H320V609H93V820ZM100 211H327V0Q327 -57 316 -101T278 -176T208 -221T100 -237V-150Q134 -143 157 -133T194 -105T214 -62T221 0H100V211Z" />
<glyph unicode="&lt;" glyph-name="less" horiz-adv-x="1109" d="M212 572L991 252V124L55 518V625L991 1019V891L212 572Z" />
<glyph unicode="=" glyph-name="equal" horiz-adv-x="1152" d="M931 673V555H220V673H931ZM931 299V182H220V299H931Z" />
<glyph unicode="&gt;" glyph-name="greater" horiz-adv-x="1108" d="M117 891V1019L1053 625V518L117 124V252L896 572L117 891Z" />
<glyph unicode="?" glyph-name="question" horiz-adv-x="796" d="M319 323Q319 331 319 338T318 354Q318 439 330 498T361 598T406 665T457 710T509 746T553 784T585 836T597 912Q597 953 582 986T540 1044T477 1081T401 1094Q301 1094 245 1036T189 865V855Q189
850 190 849H56Q55 855 55 860T54 872Q54 965 84 1030T163 1137T274 1196T399 1215Q470 1215 532 1194T639 1133T711 1037T738 912Q738 851 725 810T689 740T638 690T579 648T519 602T465 540T425 451T404 323H319ZM452 0H280V197H452V0Z" />
<glyph unicode="@" glyph-name="at" horiz-adv-x="1418" d="M1202 -3Q1115 -70 1006 -106T755 -143Q635 -143 537 -119T360 -51T225 53T129 183T73 331T54 489Q54 573 74 656T134 815T232 956T367 1069T538 1144T745 1171Q849 1171 933 1150T1082 1091T1196 1002T1274
890T1320 765T1335 633Q1335 539 1307 451T1226 293T1098 183T928 141Q889 141 861 169T826 263Q781 197 724 169T607 141Q556 141 507 162T421 224T360 325T337 463Q337 540 360 617T429 757T545 858T708 897Q831 897 908 766Q909 769 910 774T914 792T920 824T930
879H1066Q1035 735 1014 636T979 473T957 373T946 320T942 300T941 295Q941 280 948 269T970 258Q987 258 1011 269T1062 301T1115 353T1163 426T1197 519T1210 632Q1210 715 1180 792T1090 928T942 1023T740 1059Q620 1059 519 1017T344 898T229 717T187 487Q187
370 224 274T334 110T512 5T755 -33Q984 -33 1133 81L1202 -3ZM866 600Q866 684 820 734T695 784Q641 784 600 755T530 679T488 575T473 461Q473 419 483 381T513 314T565 267T638 250Q686 250 727 282T799 364T848 476T866 600Z" />
<glyph unicode="A" glyph-name="A" horiz-adv-x="1196" d="M878 1153V1035H777Q846 831 885 710T938 551Q976 436 1010 326T1071 117H1208V0H755V117H905L820 424H375L291 117H440V0H-13V117H125Q154 224 189 340T263 574T341 809T418 1035H318V1153H878ZM790
545Q770 611 735 731T635 1035H561Q497 852 461 732T405 545H790Z" />
<glyph unicode="B" glyph-name="B" horiz-adv-x="1047" d="M214 117V1035H66V1153H552Q656 1153 727 1129T843 1063T907 968T927 857Q927 811 915 772T881 701T830 646T767 607Q813 592 852 566T920 503T965 422T982 322Q982 270 964 214T897 110T762 31T541 0H66V117H214ZM374
117H540Q616 117 668 132T753 176T800 243T815 332Q815 371 802 407T757 470T674 515T546 532H374V117ZM537 661Q600 661 643 676T712 716T750 775T762 847Q762 892 749 927T706 986T629 1022T513 1035H374V661H537Z" />
<glyph unicode="C" glyph-name="C" horiz-adv-x="1249" d="M643 -19Q511 -19 405 24T224 146T109 333T69 575Q69 707 109 817T226 1005T415 1127T670 1171Q785 1171 874 1130T1027 1022V1153H1157V804H1032Q974 921 874 978T648 1035Q553 1035 479 1001T353 905T274
761T246 580Q246 484 268 400T340 252T466 153T654 117Q717 117 778 130T892 174T986 254T1053 378L1188 307Q1147 208 1085 145T950 46T797 -5T643 -19Z" />
<glyph unicode="D" glyph-name="D" horiz-adv-x="1271" d="M59 117H218V1035H59V1153H613Q727 1153 815 1130T968 1067T1077 972T1149 854T1187 723T1199 587Q1199 454 1166 346T1060 161T874 42T599 0H59V117ZM380 117H625Q733 117 810 153T937 253T1010 400T1034
581Q1034 675 1012 758T939 902T807 999T609 1035H380V117Z" />
<glyph unicode="E" glyph-name="E" horiz-adv-x="1119" d="M60 117H216V1035H60V1153H1031V832H900V1035H375V655H737V769H837V410H736V526H377V117H902V328H1031V0H60V117Z" />
<glyph unicode="F" glyph-name="F" horiz-adv-x="1006" d="M375 528V117H531V0H62V117H214V1035H62V1153H979V832H847V1035H374V657H688V771H788V412H687V528H375Z" />
<glyph unicode="G" glyph-name="G" horiz-adv-x="1294" d="M653 1171Q778 1171 876 1130T1040 1022V1153H1170V804H1046Q986 922 888 978T662 1035Q562 1035 485 1001T354 906T273 762T245 579Q245 480 272 396T354 249T489 152T677 117Q776 117 846 138T961 199T1029
299T1059 436H832V563H1239Q1236 405 1192 295T1073 115T896 14T676 -18Q551 -18 458 10T297 86T185 195T114 323T78 456T67 580Q67 646 80 715T122 851T196 975T307 1076T458 1145T653 1171Z" />
<glyph unicode="H" glyph-name="H" horiz-adv-x="1294" d="M72 117H211V1035H72V1153H515V1035H371V667H922V1035H780V1153H1222V1035H1083V117H1222V0H780V117H923V538H372V117H515V0H72V117Z" />
<glyph unicode="I" glyph-name="I" horiz-adv-x="581" d="M75 117H209V1035H75V1153H503V1035H371V117H503V0H75V117Z" />
<glyph unicode="J" glyph-name="J" horiz-adv-x="557" d="M-64 -61Q-41 -63 -13 -64T56 -65Q134 -65 165 -26T197 96V1035H42V1153H513V1035H360V78Q360 -6 335 -61T270 -150T181 -196T83 -210Q46 -210 6 -206T-64 -194V-61Z" />
<glyph unicode="K" glyph-name="K" horiz-adv-x="1139" d="M655 117H783L375 587V117H514V0H64V117H214V1035H64V1153H530V1035H374V618L795 1035H659V1153H1110V1035H981L560 605L990 117H1121V0H655V117Z" />
<glyph unicode="L" glyph-name="L" horiz-adv-x="984" d="M59 117H217V1035H59V1153H533V1035H378V117H788V452H933V0H59V117Z" />
<glyph unicode="M" glyph-name="M" horiz-adv-x="1577" d="M213 1035H65V1153H450L618 736L783 317L1121 1153H1511V1035H1364V117H1511V0H1083V117H1216V1023L801 0H759L347 1022V117H480V0H65V117H213V1035Z" />
<glyph unicode="N" glyph-name="N" horiz-adv-x="1322" d="M56 117H225V1035H56V1153H438L986 211V1035H821V1153H1293V1035H1120V0H937L359 997V117H528V0H56V117Z" />
<glyph unicode="O" glyph-name="O" horiz-adv-x="1321" d="M66 575Q66 700 107 809T224 998T411 1125T660 1171Q799 1171 909 1125T1097 998T1215 808T1256 575Q1256 451 1215 343T1097 154T910 28T660 -19Q521 -19 411 27T225 153T107 342T66 575ZM243 575Q243
480 272 397T357 252T488 153T660 117Q755 117 832 153T964 251T1048 397T1078 575Q1078 671 1049 755T965 901T833 999T660 1035Q565 1035 489 1000T357 902T273 755T243 575Z" />
<glyph unicode="P" glyph-name="P" horiz-adv-x="1030" d="M63 117H214V1035H63V1153H596Q716 1153 792 1121T913 1038T975 925T992 805Q992 705 957 641T860 539T711 487T522 472H376V117H534V0H63V117ZM374 577H552Q633 577 686 594T771 643T814 716T827 807Q827
916 769 975T601 1035H374V577Z" />
<glyph unicode="Q" glyph-name="Q" horiz-adv-x="1323" d="M67 575Q67 700 108 809T225 998T412 1125T661 1171Q800 1171 910 1125T1098 998T1216 808T1257 575Q1257 462 1221 362T1116 185T949 58T726 -5Q760 -15 795 -28T866 -53T940 -73T1014 -81Q1034 -81
1052 -79T1090 -70L1091 -218Q1045 -231 996 -231Q959 -231 926 -224T861 -205T798 -181T732 -156T661 -138T581 -130Q505 -130 441 -144T319 -183L318 -46Q378 -15 425 -3T513 9Q408 33 325 86T185 213T97 379T67 575ZM244 575Q244 477 273 394T358 249T489 152T661
117Q756 117 833 152T965 248T1049 393T1079 575Q1079 671 1050 755T966 901T834 999T661 1035Q566 1035 490 1000T358 902T274 755T244 575Z" />
<glyph unicode="R" glyph-name="R" horiz-adv-x="1107" d="M57 117H220V1035H57V1153H608Q707 1153 778 1132T896 1071T965 977T988 855Q988 737 925 661T729 558L963 117H1109V0H856L573 538H380V117H536V0H57V117ZM603 657Q668 657 710 674T778 720T813 783T823
855Q823 940 763 987T596 1035H380V657H603Z" />
<glyph unicode="S" glyph-name="S" horiz-adv-x="972" d="M527 -18Q357 -18 231 87V0H96V387H231V271Q291 193 360 155T523 117Q574 117 615 131T685 171T729 230T745 304Q745 360 720 396T650 457T548 498T422 530Q354 545 293 568T187 628T115 722T88 859Q88
936 116 994T193 1092T308 1151T449 1171Q522 1171 589 1148T713 1079V1153H848V826H713V908Q667 971 610 1003T470 1035Q414 1035 372 1022T302 987T259 934T244 867Q244 807 275 772T356 715T470 679T600 648Q663 631 719 604T817 535T885 438T910 306Q910 237
882 178T804 75T683 7T527 -18Z" />
<glyph unicode="T" glyph-name="T" horiz-adv-x="1034" d="M262 117H437V1035H172V805H43V1153H990V805H859V1035H600V117H774V0H262V117Z" />
<glyph unicode="U" glyph-name="U" horiz-adv-x="1211" d="M34 1035V1153H486V1035H344V378Q344 314 357 266T401 184T481 134T602 117Q678 117 729 135T811 187T855 273T868 389V1035H726V1153H1177V1035H1028Q1028 916 1028 806T1029 607T1029 458T1030 380Q1030
272 997 197T906 73T774 4T614 -18Q480 -18 396 16T265 105T200 233T182 382Q182 388 182 419T182 496T183 600T183 717T184 831T184 928V1035H34Z" />
<glyph unicode="V" glyph-name="V" horiz-adv-x="1208" d="M125 1035H-21V1153H434V1035H293L610 184L922 1035H781V1153H1226V1035H1080L682 0H528L125 1035Z" />
<glyph unicode="W" glyph-name="W" horiz-adv-x="1759" d="M125 1035H-20V1153H423V1035H279L524 210L647 623L764 1035H624V1153H1143V1035H1004L1245 210L1370 623L1489 1035H1345V1153H1772V1035H1630L1320 -10H1162L876 928L594 -10H441L125 1035Z" />
<glyph unicode="X" glyph-name="X" horiz-adv-x="1149" d="M18 117H179L492 582L183 1035H29V1153H491V1035H356L578 705L804 1035H664V1153H1110V1035H959L657 595L985 117H1140V0H668V117H807L571 470L335 117H479V0H18V117Z" />
<glyph unicode="Y" glyph-name="Y" horiz-adv-x="1130" d="M327 117H486V530L128 1035H-18V1153H454V1035H304L578 648L835 1035H685V1153H1145V1035H989L646 530V117H810V0H327V117Z" />
<glyph unicode="Z" glyph-name="Z" horiz-adv-x="1010" d="M62 128L719 1035H221V833H92V1153H924V1041L257 117H805V335H934V0H62V128Z" />
<glyph unicode="[" glyph-name="bracketleft" horiz-adv-x="569" d="M541 1263V1154H290V-112H541V-219H147V1263H541Z" />
<glyph unicode="\" glyph-name="backslash" horiz-adv-x="793" d="M258 1171L692 -18H563L129 1171H258Z" />
<glyph unicode="]" glyph-name="bracketright" horiz-adv-x="569" d="M426 1263V-219H32V-112H283V1154H32V1263H426Z" />
<glyph unicode="^" glyph-name="asciicircum" horiz-adv-x="826" d="M788 605H637L415 1040L189 605H38L339 1171H492L788 605Z" />
<glyph unicode="_" glyph-name="underscore" horiz-adv-x="898" d="M898 -82V-199H0V-82H898Z" />
<glyph unicode="`" glyph-name="grave" horiz-adv-x="562" d="M292 914L105 1171H312L411 914H292Z" />
<glyph unicode="a" glyph-name="a" horiz-adv-x="889" d="M102 708Q156 762 236 791T419 820Q513 820 576 798T676 738T728 653T744 554V107H888V0H611L609 83Q569 54 534 35T466 4T398 -13T327 -18Q264 -18 214 1T128 53T74 127T55 216Q55 291 82 340T157 418T267
458T402 470Q450 470 497 465T595 450V547Q595 589 581 618T541 666T481 692T409 701Q340 701 285 679T194 610L102 708ZM595 352Q563 353 515 360T412 368Q373 368 334 363T265 341T215 295T196 216Q196 190 206 167T235 126T283 99T348 89Q381 89 415 95T481
112T543 140T595 178V352Z" />
<glyph unicode="b" glyph-name="b" horiz-adv-x="1071" d="M23 107H168V1032H25V1153H319V707Q382 765 453 792T615 820Q707 820 781 788T906 701T985 570T1013 410Q1013 321 985 243T906 107T780 16T614 -18Q570 -18 527 -10T445 15T373 56T318 111L314 0H23V107ZM582
107Q646 107 696 129T780 191T832 282T850 396Q850 456 832 510T778 605T692 670T579 694Q534 694 495 682T424 650T365 608T319 564V229Q340 209 367 188T428 148T499 119T582 107Z" />
<glyph unicode="c" glyph-name="c" horiz-adv-x="899" d="M829 157Q775 75 683 28T464 -19Q354 -19 277 19T151 118T80 252T57 398Q57 490 87 567T172 701T300 788T463 820Q510 820 548 809T616 782T665 747T691 713L687 805H820V517H691Q683 553 667 585T625
641T560 680T471 694Q347 694 282 616T216 400Q216 334 232 280T280 188T359 128T468 107Q553 107 624 142T740 246L829 157Z" />
<glyph unicode="d" glyph-name="d" horiz-adv-x="1071" d="M898 1153V107H1050V0H746L745 99Q681 36 613 9T459 -18Q381 -18 309 9T181 88T92 219T58 400Q58 485 86 561T167 695T295 786T462 820Q550 820 620 793T750 713V1035H588V1153H898ZM485 107Q529 107
567 118T639 146T699 183T748 222V567Q727 587 699 609T638 650T565 681T480 694Q417 694 368 671T286 607T235 512T217 396Q217 338 235 286T287 194T371 131T485 107Z" />
<glyph unicode="e" glyph-name="e" horiz-adv-x="955" d="M219 365Q222 307 243 260T301 178T389 126T506 107Q545 107 583 116T655 141T718 181T767 233L869 157Q818 79 728 31T502 -18Q398 -18 315 15T175 105T86 238T55 402Q55 493 89 570T182 702T322 789T498
820Q597 820 672 785T797 689T873 549T898 382V365H219ZM754 467Q748 516 728 557T676 629T600 677T500 694Q439 694 392 678T310 632T254 560T223 467H754Z" />
<glyph unicode="f" glyph-name="f" horiz-adv-x="555" d="M65 107H185V694H56V805H185L186 943Q186 1000 203 1042T250 1113T323 1156T418 1171Q494 1171 546 1130T610 1014L502 979Q491 1017 469 1035T422 1053Q406 1053 391 1048T363 1030T344 993T336 934V805H489V694H336V107H498V0H65V107Z"
/>
<glyph unicode="g" glyph-name="g" horiz-adv-x="1069" d="M485 -360Q438 -360 398 -355T322 -338T251 -308T181 -265L248 -163Q299 -200 358 -218T478 -236Q523 -236 570 -224T657 -184T722 -111T748 3V93Q727 73 695 57T623 27T542 7T458 0Q365 0 291 31T165
115T86 240T58 392Q58 479 86 556T168 692T296 785T464 820Q623 820 748 709V805H1049V694H898V381Q898 324 898 268T898 167T899 93T899 57Q899 -62 863 -142T768 -270T635 -339T485 -360ZM485 125Q528 125 566 135T638 160T698 193T748 229V571Q728 590 702 611T642
651T571 682T488 694Q425 694 375 671T290 607T236 512T217 396Q217 340 235 291T287 204T371 146T485 125Z" />
<glyph unicode="h" glyph-name="h" horiz-adv-x="1024" d="M21 107H173V1032H23V1153H322V726Q464 820 626 820Q882 820 882 556Q882 553 882 534T882 483T881 414T881 335V107H1025V0H631V107H733V528Q733 562 727 592T705 645T662 681T593 694Q532 694 461 673T322
607V107H467V0H21V107Z" />
<glyph unicode="i" glyph-name="i" horiz-adv-x="509" d="M59 107H194V694H59V805H343V107H479V0H59V107ZM176 1066Q176 1084 183 1100T202 1128T231 1146T267 1153Q306 1153 332 1128T359 1066Q359 1029 333 1004T267 979Q248 979 232 985T203 1004T183 1032T176 1066Z" />
<glyph unicode="j" glyph-name="j" horiz-adv-x="441" d="M-60 -235Q-37 -237 -20 -238T17 -239Q59 -239 87 -228T132 -194T156 -133T163 -43V694H11V805H314V4Q314 -72 307 -139T272 -256T187 -337T31 -368Q6 -368 -15 -367T-60 -361V-235ZM143 1066Q143 1103
169 1128T235 1153Q274 1153 300 1128T327 1066Q327 1029 301 1004T235 979Q196 979 170 1004T143 1066Z" />
<glyph unicode="k" glyph-name="k" horiz-adv-x="995" d="M20 107H173V1032H20V1153H321V430L650 694H511V805H958V694H826L494 415L836 107H966V0H545V107H651L321 405V107H426V0H20V107Z" />
<glyph unicode="l" glyph-name="l" horiz-adv-x="487" d="M21 107H173V1032H24V1153H322V107H455V0H21V107Z" />
<glyph unicode="m" glyph-name="m" horiz-adv-x="1554" d="M208 694H65V805H354L359 698Q428 756 495 788T641 820Q722 820 777 783T859 680Q939 748 1009 784T1159 820Q1221 820 1266 801T1340 747T1383 667T1397 568V107H1542V0H1137V107H1250V537Q1250 609
1221 651T1122 694Q1088 694 1052 681T982 647T922 604T880 561V107H1005V0H616V107H728V534Q728 619 695 656T599 694Q536 694 480 663T359 571V107H484V0H58V107H208V694Z" />
<glyph unicode="n" glyph-name="n" horiz-adv-x="1031" d="M63 107H206V694H57V805H353L357 701Q434 761 500 790T640 820Q695 820 738 802T812 750T859 669T875 562L874 107H1019V0H617V107H727V507Q727 595 700 644T602 694Q533 694 472 658T357 570V107H502V0H63V107Z" />
<glyph unicode="o" glyph-name="o" horiz-adv-x="966" d="M482 107Q544 107 593 129T678 191T731 285T750 402Q750 463 732 516T678 609T594 671T482 694Q420 694 371 672T288 610T235 517T216 402Q216 339 234 285T287 192T371 130T482 107ZM482 -18Q384 -18
306 15T172 105T87 238T57 402Q57 489 87 565T172 698T307 787T484 820Q581 820 660 788T794 698T880 565T910 402Q910 315 880 239T794 105T659 15T482 -18Z" />
<glyph unicode="p" glyph-name="p" horiz-adv-x="1058" d="M13 -244H166V694H25V805H305L313 698Q370 758 445 789T602 820Q695 820 769 787T894 697T973 564T1001 400Q1001 314 973 238T892 105T765 15T600 -18Q519 -18 445 8T313 87V-245H478V-368H13V-244ZM578
107Q642 107 692 129T776 191T828 282T846 396Q846 456 828 510T774 605T688 670T575 694Q530 694 491 682T418 652T359 612T313 571V211Q336 193 363 175T424 141T495 117T578 107Z" />
<glyph unicode="q" glyph-name="q" horiz-adv-x="1063" d="M583 -244H745V90Q688 36 615 9T457 -18Q365 -18 292 15T166 105T86 238T58 402Q58 488 86 564T167 697T298 787T475 820Q551 820 622 790T745 699Q745 701 745 717T748 754L751 805H1037V694H895V-245H1047V-368H583V-244ZM480
107Q523 107 562 118T634 148T695 187T745 229V564Q725 585 699 608T640 650T571 681T491 694Q420 694 368 670T281 605T229 510T212 396Q212 335 230 283T282 191T366 130T480 107Z" />
<glyph unicode="r" glyph-name="r" horiz-adv-x="761" d="M64 107H225V694H58V805H347L348 630Q375 685 406 721T473 780T551 811T641 820Q684 820 734 814L729 675Q728 676 714 676T682 677T650 678T631 678Q557 678 508 657T430 597T388 503T375 380V107H551V0H64V107Z" />
<glyph unicode="s" glyph-name="s" horiz-adv-x="809" d="M77 263H210V210Q223 185 240 165T281 131T339 108T416 100Q504 100 551 130T599 217Q599 249 586 268T550 300T494 318T421 331Q359 340 298 354T187 395T106 468T75 586Q75 635 96 678T156 752T249 802T372
820Q432 820 485 799T577 745V805H706V549H577V616Q506 702 378 702Q303 702 260 673T216 592Q216 559 239 540T299 508T385 487T484 468T582 443T668 400T729 332T752 228Q752 173 730 128T666 50T565 0T433 -18Q364 -18 310 -2T210 50V0H77V263Z" />
<glyph unicode="t" glyph-name="t" horiz-adv-x="528" d="M35 805H159V1063L310 1095V805H483V694H310V289Q310 243 311 209T321 153T346 119T395 107H513V0H375Q297 0 254 23T189 86T164 181T159 300V694H35V805Z" />
<glyph unicode="u" glyph-name="u" horiz-adv-x="994" d="M678 0L673 100Q607 40 542 11T401 -18Q335 -18 288 1T211 57T166 144T152 261V694H32V805H304V268Q304 190 332 149T429 107Q499 107 562 147T673 250V694H528V805H824V107H970V0H678Z" />
<glyph unicode="v" glyph-name="v" horiz-adv-x="960" d="M144 694H-2V805H409V694H293L488 171L683 694H560V805H962V694H832L558 0H422L144 694Z" />
<glyph unicode="w" glyph-name="w" horiz-adv-x="1403" d="M111 694H2V805H356V694H240L327 412L413 157L503 413L590 694H495V805H893V694H798L979 146L1151 694H1029V805H1402V694H1280L1046 0H904L699 606L487 0H344L111 694Z" />
<glyph unicode="x" glyph-name="x" horiz-adv-x="989" d="M35 107H153L416 413L169 694H54V805H444V694H324L493 500L656 694H554V805H944V694H811L572 413L840 107H948V0H552V107H687L493 327L312 107H436V0H35V107Z" />
<glyph unicode="y" glyph-name="y" horiz-adv-x="982" d="M136 -108H247V-187Q280 -187 306 -185T355 -168T398 -125T439 -42L483 70H388L124 694H-1V805H405V694H297L499 162H519L605 432L680 694H565V805H978V694H849L633 36Q604 -53 573 -119T500 -230T400
-297T259 -319Q234 -319 201 -317T136 -309V-108Z" />
<glyph unicode="z" glyph-name="z" horiz-adv-x="833" d="M754 0H54V116L579 694H215V537H94V805H757V683L225 107H626V276H754V0Z" />
<glyph unicode="{" glyph-name="braceleft" horiz-adv-x="528" d="M30 539Q77 539 106 556T151 605T172 684T178 790Q178 873 181 943T207 1063T279 1142T418 1171H492V1052Q441 1052 409 1047T359 1024T334 976T327 893Q327 792 323 723T305 606T264 529T192
475Q231 454 257 426T298 357T320 259T326 122Q326 47 328 2T346 -66T395 -96T492 -103V-223H419Q329 -223 281 -196T209 -120T182 -2T178 150Q178 211 173 259T153 341T108 392T30 410V539Z" />
<glyph unicode="|" glyph-name="bar" horiz-adv-x="404" d="M263 1153V-96H141V1153H263Z" />
<glyph unicode="}" glyph-name="braceright" horiz-adv-x="528" d="M492 410Q443 410 414 393T370 342T349 260T344 150Q344 67 340 -1T313 -119T242 -196T103 -223H30V-103Q92 -103 125 -97T175 -68T193 -2T196 115Q196 197 202 255T223 356T264 426T330 475Q285
498 258 528T217 606T199 722T195 893Q195 944 189 975T164 1024T113 1046T30 1052V1171H104Q194 1171 242 1143T313 1065T340 946T344 795Q344 735 349 688T370 607T415 557T492 539V410Z" />
<glyph unicode="~" glyph-name="asciitilde" horiz-adv-x="1062" d="M987 573Q942 500 890 471T778 441Q720 441 658 462T534 509T411 556T294 578Q249 578 209 560T132 496L77 573Q129 648 186 678T307 709Q364 709 424 690T544 647T662 605T775 585Q817 585
853 600T924 651L987 573Z" />
<glyph unicode="&#xa1;" glyph-name="exclamdown" horiz-adv-x="466" d="M189 847H277L319 350V0H147V350L189 847ZM127 1171H339V959H127V1171Z" />
<glyph unicode="&#xa2;" glyph-name="cent" horiz-adv-x="918" d="M829 157Q775 75 683 28T464 -19Q435 -19 409 -16T358 -8L238 -368H156L284 16Q224 42 181 84T111 178T70 286T57 398Q57 490 87 567T172 701T300 788T463 820Q506 820 550 809L665 1153H748L622
778Q649 762 666 745T691 713L687 805H820V517H691Q680 565 655 605T585 668L399 114Q424 107 468 107Q553 107 624 142T740 246L829 157ZM216 400Q216 312 244 247T327 145L510 691Q492 694 471 694Q347 694 282 616T216 400Z" />
<glyph unicode="&#xa3;" glyph-name="sterling" horiz-adv-x="993" d="M128 636H309Q292 664 278 698T253 767T236 834T230 889Q230 956 253 1008T317 1097T416 1152T542 1171Q618 1171 677 1150T776 1088T836 990T857 863H722Q722 903 713 937T684 997T631 1037T549
1052Q470 1052 422 1013T373 898Q373 873 380 842T400 776T427 705T459 636H708V549H494Q505 507 510 468T515 388Q515 343 509 299T492 215Q520 198 546 182T598 152T649 132T701 124Q770 124 803 166T841 290H934Q934 215 917 158T869 61T796 2T701 -19Q666 -19
634 -11T571 13T509 49T444 98Q408 44 362 13T255 -19Q204 -19 168 -5T107 33T72 87T60 150Q60 184 72 218T109 278T168 321T248 338Q288 338 323 326T396 291Q397 300 397 309T397 327Q397 387 386 438T352 549H128V636ZM370 157Q328 205 297 226T234 247Q217
247 204 239T182 217T167 186T162 151Q162 118 182 92T247 65Q284 65 312 87T370 157Z" />
<glyph unicode="&#xa4;" glyph-name="currency" horiz-adv-x="929" d="M129 806Q129 925 202 1007L122 1088L191 1157L277 1071Q317 1096 363 1110T464 1124Q518 1124 565 1110T652 1069L740 1157L809 1088L726 1005Q798 919 798 806Q798 746 779 696T724 603L809
519L740 451L650 539Q570 486 464 486Q410 486 364 499T279 538L191 451L122 519L204 601Q169 643 149 694T129 806ZM464 1006Q415 1006 379 989T318 943T281 878T269 804Q269 766 281 729T318 664T379 618T464 600Q513 600 549 617T610 663T646 728T658 802Q658
840 646 877T610 942T549 988T464 1006Z" />
<glyph unicode="&#xa5;" glyph-name="yen" horiz-adv-x="1261" d="M486 414V503H249V622H419L128 1026H-18V1153H454V1026H304L578 648L835 1026H685V1153H1145V1026H989L709 622H885V503H646V414H885V297H646V125H810V0H327V125H486V297H249V414H486Z" />
<glyph unicode="&#xa6;" glyph-name="brokenbar" horiz-adv-x="404" d="M263 1153V734H141V1153H263ZM263 346V-102H141V346H263Z" />
<glyph unicode="&#xa7;" glyph-name="section" horiz-adv-x="877" d="M645 924Q626 990 579 1021T464 1053Q419 1053 382 1043T317 1014T275 970T259 913Q259 869 282 838T345 782T433 739T534 699T635 655T723 599T785 523T809 419Q809 273 650 173Q713 136 747
80T781 -46Q781 -108 758 -159T693 -248T593 -305T465 -326Q359 -326 283 -281T160 -160L262 -77Q291 -137 342 -170T468 -203Q508 -203 539 -192T593 -162T628 -116T640 -58Q640 -16 617 14T554 67T466 110T364 149T263 193T174 249T112 326T88 431Q88 502 126
560T248 674Q185 712 152 769T118 899Q118 956 143 1005T212 1091T317 1149T450 1171Q504 1171 554 1160T647 1123T721 1060T770 969L645 924ZM560 220Q623 253 654 296T685 388Q685 439 654 470T572 526T459 573T331 626Q268 588 241 550T213 464Q213 413 242
381T321 325T432 277T560 220Z" />
<glyph unicode="&#xa8;" glyph-name="dieresis" horiz-adv-x="572" d="M523 1101V948H371V1101H523ZM212 1101V948H58V1101H212Z" />
<glyph unicode="&#xa9;" glyph-name="copyright" horiz-adv-x="1423" d="M658 1170Q808 1170 920 1119T1108 984T1220 793T1258 575Q1258 464 1221 357T1108 167T921 32T658 -19Q508 -19 396 32T208 166T96 357T58 575Q58 686 95 793T208 983T395 1118T658 1170ZM658
1076Q536 1076 446 1033T295 919T204 758T174 575Q174 482 204 392T294 231T445 117T658 73Q779 73 869 116T1020 230T1111 391T1141 575Q1141 668 1111 758T1021 918T870 1032T658 1076ZM917 404Q879 344 812 311T653 277Q574 277 518 305T427 376T376 473T359
578Q359 645 381 701T442 797T536 860T653 883Q687 883 715 875T764 856T798 831T817 806L815 872H911V664H817Q811 690 800 713T769 754T723 782T658 792Q567 792 521 736T474 580Q474 532 486 493T521 427T578 384T656 368Q719 368 770 393T853 469L917 404Z"
/>
<glyph unicode="&#xaa;" glyph-name="ordfeminine" horiz-adv-x="696" d="M72 1087Q156 1171 310 1171Q381 1171 428 1154T503 1110T542 1046T554 971V640H662V555H454L453 617Q423 596 397 582T345 558T295 545T241 541Q193 541 155 555T91 594T50 650T36 717Q36
774 56 810T112 869T195 899T297 908Q367 908 442 893V966Q442 997 431 1019T401 1055T357 1075T302 1082Q250 1082 209 1065T141 1014L72 1087ZM442 820Q418 820 383 826T305 832Q275 832 246 828T194 812T157 777T142 717Q142 678 171 650T257 622Q308 622 357
639T442 689V820Z" />
<glyph unicode="&#xab;" glyph-name="guillemotleft" horiz-adv-x="904" d="M838 0H696L431 418L696 837H838L581 418L838 0ZM468 0H325L62 418L325 837H468L210 418L468 0Z" />
<glyph unicode="&#xac;" glyph-name="logicalnot" horiz-adv-x="1113" d="M993 842V304H876V724H56V842H993Z" />
<glyph unicode="&#xad;" glyph-name="uni00AD" horiz-adv-x="1707" />
<glyph unicode="&#xae;" glyph-name="registered" horiz-adv-x="1338" d="M668 1170Q818 1170 930 1119T1118 984T1230 793T1268 575Q1268 464 1231 357T1118 167T931 32T668 -19Q518 -19 406 32T218 166T106 357T68 575Q68 686 105 793T218 983T405 1118T668
1170ZM668 1076Q546 1076 456 1033T305 919T214 758T184 575Q184 482 214 392T304 231T455 117T668 73Q789 73 879 116T1030 230T1121 391T1151 575Q1151 668 1121 758T1031 918T880 1032T668 1076ZM393 337H481V826H393V895H692Q799 895 848 851T898 733Q898 670
863 628T758 572L885 337H964V269H827L673 561H568V337H653V269H393V337ZM689 631Q724 631 747 640T784 663T803 696T809 733Q809 781 776 803T685 826H568V631H689Z" />
<glyph unicode="&#xaf;" glyph-name="overscore" horiz-adv-x="593" d="M131 1171H457V1086H131V1171Z" />
<glyph unicode="&#xb0;" glyph-name="degree" horiz-adv-x="653" d="M327 1130Q289 1130 258 1117T204 1080T168 1025T155 958Q155 923 168 892T203 837T257 801T327 787Q362 787 393 800T447 835T484 889T498 958Q498 990 487 1021T453 1076T399 1115T327 1130ZM327
1216Q381 1216 428 1196T510 1141T565 1058T585 957Q585 903 565 856T510 774T428 719T327 698Q273 698 226 718T144 774T89 856T68 957Q68 1011 88 1058T144 1140T226 1196T327 1216Z" />
<glyph unicode="&#xb1;" glyph-name="plusminus" horiz-adv-x="1119" d="M1028 80V-39H91V80H1028ZM1028 775V656H617V247H502V656H91V775H502V1183H617V775H1028Z" />
<glyph unicode="&#xb2;" glyph-name="twosuperior" horiz-adv-x="747" d="M559 580H653V299H87Q86 309 86 318T85 338Q85 420 118 482T201 593T309 682T417 761T500 841T533 935Q533 998 495 1033T375 1069Q331 1069 301 1057T251 1019T224 951T216 853H109Q109
1016 175 1093T374 1170Q455 1170 509 1149T596 1093T643 1018T657 938Q657 872 627 822T551 729T450 651T345 577T257 497T208 400H559V580Z" />
<glyph unicode="&#xb3;" glyph-name="threesuperior" horiz-adv-x="783" d="M201 557Q209 475 256 429T384 383Q433 383 470 394T532 426T569 473T582 533Q582 581 561 612T502 661T415 686T308 693V792H373Q464 792 508 824T553 929Q553 959 542 984T510 1028T455
1058T376 1069Q301 1069 264 1028T223 921L112 941Q114 993 133 1035T187 1108T268 1154T373 1171Q441 1171 495 1156T588 1111T647 1039T668 941Q668 909 661 879T637 824T592 778T522 746Q610 730 656 674T702 539Q702 482 680 435T617 354T515 302T376 283Q314
283 262 299T172 350T113 434T91 554L201 557Z" />
<glyph unicode="&#xb4;" glyph-name="acute" horiz-adv-x="562" d="M165 914L264 1171H471L284 914H165Z" />
<glyph unicode="&#xb5;" glyph-name="mu" horiz-adv-x="925" d="M678 0L673 100Q607 40 542 11T401 -18Q328 -18 281 4V-368H152V689H32V805H304V268Q304 190 332 149T429 107Q499 107 562 147T673 250V689H528V805H824V113H970V0H678Z" />
<glyph unicode="&#xb6;" glyph-name="paragraph" horiz-adv-x="1096" d="M1020 1056H882V-373H747V1056H546V-373H411V478Q325 481 258 509T145 585T74 697T50 836Q50 910 75 975T150 1090T275 1167T451 1196H1020V1056Z" />
<glyph unicode="&#xb7;" glyph-name="middot" horiz-adv-x="414" d="M86 657H313V446H86V657Z" />
<glyph unicode="&#xb8;" glyph-name="cedilla" horiz-adv-x="587" d="M128 -263Q151 -267 172 -269T214 -271Q256 -271 282 -259T309 -218Q309 -193 283 -179T211 -160L269 5H341L314 -119Q374 -126 408 -151T442 -218Q442 -244 431 -270T395 -316T329 -350T228
-363Q205 -363 181 -362T128 -355V-263Z" />
<glyph unicode="&#xb9;" glyph-name="onesuperior" horiz-adv-x="476" d="M63 392H186V1059H57V1153H297V392H411V299H63V392Z" />
<glyph unicode="&#xba;" glyph-name="ordmasculine" horiz-adv-x="704" d="M180 951Q180 915 193 884T229 831T284 795T353 782Q389 782 420 795T475 830T511 884T524 951Q524 987 511 1017T475 1070T421 1105T353 1118Q316 1118 285 1106T230 1071T193 1018T180
951ZM68 951Q68 1008 89 1056T149 1140T240 1195T353 1215Q414 1215 466 1195T556 1140T615 1057T637 951Q637 894 616 846T556 763T466 707T353 687Q292 687 240 707T150 762T90 846T68 951Z" />
<glyph unicode="&#xbb;" glyph-name="guillemotright" horiz-adv-x="905" d="M437 837H580L843 418L580 0H437L694 418L437 837ZM66 837H209L473 418L209 0H66L323 418L66 837Z" />
<glyph unicode="&#xbc;" glyph-name="onequarter" horiz-adv-x="1665" d="M915 1170H1004L590 0H500L915 1170ZM68 392H191V1059H62V1153H302V392H416V299H68V392ZM1149 101H1281V254H910V352L1284 931H1396V352H1549V254H1396V101H1516V0H1149V101ZM1281 765L1027
352H1281V765Z" />
<glyph unicode="&#xbd;" glyph-name="onehalf" horiz-adv-x="1690" d="M915 1170H1004L590 0H500L915 1170ZM63 392H186V1059H57V1153H297V392H411V299H63V392ZM1492 265H1586V-16H1020Q1019 -6 1019 3T1018 23Q1018 105 1051 167T1134 278T1242 367T1350 446T1433
526T1466 620Q1466 683 1428 718T1308 754Q1264 754 1234 742T1184 704T1157 636T1149 538H1042Q1042 701 1108 778T1307 855Q1388 855 1442 834T1529 778T1576 703T1590 623Q1590 557 1560 507T1484 414T1383 336T1278 262T1190 182T1141 85H1492V265Z" />
<glyph unicode="&#xbe;" glyph-name="threequarters" horiz-adv-x="1936" d="M1146 1170H1235L821 0H731L1146 1170ZM206 557Q214 475 261 429T389 383Q438 383 475 394T537 426T574 473T587 533Q587 581 566 612T507 661T420 686T313 693V792H378Q469 792 513
824T558 929Q558 959 547 984T515 1028T460 1058T381 1069Q306 1069 269 1028T228 921L117 941Q119 993 138 1035T192 1108T273 1154T378 1171Q446 1171 500 1156T593 1111T652 1039T673 941Q673 909 666 879T642 824T597 778T527 746Q615 730 661 674T707 539Q707
482 685 435T622 354T520 302T381 283Q319 283 267 299T177 350T118 434T96 554L206 557ZM1404 101H1536V254H1165V352L1539 931H1651V352H1804V254H1651V101H1771V0H1404V101ZM1536 765L1282 352H1536V765Z" />
<glyph unicode="&#xbf;" glyph-name="questiondown" horiz-adv-x="796" d="M477 873Q477 865 477 858T478 842Q478 757 466 698T435 598T390 531T339 486T287 450T243 412T211 360T199 284Q199 243 214 210T256 152T319 115T395 102Q495 102 551 160T607 331V341Q607
346 606 347H740Q741 341 741 336T742 324Q742 231 712 166T633 59T522 0T397 -19Q326 -19 264 2T157 63T85 159T58 284Q58 345 71 386T107 456T158 506T217 548T277 594T331 656T371 745T392 873H477ZM344 1196H516V999H344V1196Z" />
<glyph unicode="&#xc0;" glyph-name="Agrave" horiz-adv-x="1196" d="M878 1153V1035H777Q846 831 885 710T938 551Q976 436 1010 326T1071 117H1208V0H755V117H905L820 424H375L291 117H440V0H-13V117H125Q154 224 189 340T263 574T341 809T418 1035H318V1153H878ZM790
545Q770 611 735 731T635 1035H561Q497 852 461 732T405 545H790ZM632 1262L445 1519H652L751 1262H632Z" />
<glyph unicode="&#xc1;" glyph-name="Aacute" horiz-adv-x="1196" d="M878 1153V1035H777Q846 831 885 710T938 551Q976 436 1010 326T1071 117H1208V0H755V117H905L820 424H375L291 117H440V0H-13V117H125Q154 224 189 340T263 574T341 809T418 1035H318V1153H878ZM790
545Q770 611 735 731T635 1035H561Q497 852 461 732T405 545H790ZM445 1262L544 1519H751L564 1262H445Z" />
<glyph unicode="&#xc2;" glyph-name="Acircumflex" horiz-adv-x="1196" d="M878 1153V1035H777Q846 831 885 710T938 551Q976 436 1010 326T1071 117H1208V0H755V117H905L820 424H375L291 117H440V0H-13V117H125Q154 224 189 340T263 574T341 809T418 1035H318V1153H878ZM790
545Q770 611 735 731T635 1035H561Q497 852 461 732T405 545H790ZM359 1244L457 1519H732L836 1244H688L595 1474L502 1244H359Z" />
<glyph unicode="&#xc3;" glyph-name="Atilde" horiz-adv-x="1196" d="M878 1153V1035H777Q846 831 885 710T938 551Q976 436 1010 326T1071 117H1208V0H755V117H905L820 424H375L291 117H440V0H-13V117H125Q154 224 189 340T263 574T341 809T418 1035H318V1153H878ZM790
545Q770 611 735 731T635 1035H561Q497 852 461 732T405 545H790ZM293 1328Q298 1383 314 1422T353 1487T406 1525T469 1537Q507 1537 544 1526T617 1502T685 1478T747 1467Q809 1467 824 1532H902Q894 1432 848 1376T723 1319Q681 1319 643 1330T569 1354T502
1379T441 1390Q409 1390 394 1374T373 1328H293Z" />
<glyph unicode="&#xc4;" glyph-name="Adieresis" horiz-adv-x="1196" d="M878 1153V1035H777Q846 831 885 710T938 551Q976 436 1010 326T1071 117H1208V0H755V117H905L820 424H375L291 117H440V0H-13V117H125Q154 224 189 340T263 574T341 809T418 1035H318V1153H878ZM790
545Q770 611 735 731T635 1035H561Q497 852 461 732T405 545H790ZM830 1449V1296H678V1449H830ZM519 1449V1296H365V1449H519Z" />
<glyph unicode="&#xc5;" glyph-name="Aring" horiz-adv-x="1196" d="M878 1153V1035H777Q846 831 885 710T938 551Q976 436 1010 326T1071 117H1208V0H755V117H905L820 424H375L291 117H440V0H-13V117H125Q154 224 189 340T263 574T341 809T418 1035H318V1153H878ZM790
545Q770 611 735 731T635 1035H561Q497 852 461 732T405 545H790ZM597 1549Q632 1549 663 1537T717 1504T753 1453T766 1390Q766 1356 753 1327T717 1276T663 1242T597 1229Q562 1229 531 1241T478 1275T442 1326T429 1390Q429 1424 442 1453T477 1503T531 1537T597
1549ZM597 1488Q575 1488 556 1481T523 1460T500 1429T492 1390Q492 1369 500 1351T522 1320T556 1299T597 1291Q619 1291 638 1298T671 1319T693 1351T701 1390Q701 1411 693 1429T671 1460T638 1480T597 1488Z" />
<glyph unicode="&#xc6;" glyph-name="AE" horiz-adv-x="1733" d="M1563 832H1431L1386 1026H870L958 655H1320L1296 769H1393L1478 410H1380L1341 548H982L1086 125H1577L1528 328H1657L1735 0H744L756 125H925L854 424H393L291 125H441L430 0H-23L-12 125H125L496
1035H394L410 1153H1487L1563 832ZM825 545L710 1026H634L442 545H825Z" />
<glyph unicode="&#xc7;" glyph-name="Ccedilla" horiz-adv-x="1249" d="M643 -19Q511 -19 405 24T224 146T109 333T69 575Q69 707 109 817T226 1005T415 1127T670 1171Q785 1171 874 1130T1027 1022V1153H1157V804H1032Q974 921 874 978T648 1035Q553 1035 479
1001T353 905T274 761T246 580Q246 484 268 400T340 252T466 153T654 117Q717 117 778 130T892 174T986 254T1053 378L1188 307Q1147 208 1085 145T950 46T797 -5T643 -19ZM467 -263Q490 -267 511 -269T553 -271Q595 -271 621 -259T648 -218Q648 -193 622 -179T550
-160L608 5H680L653 -119Q713 -126 747 -151T781 -218Q781 -244 770 -270T734 -316T668 -350T567 -363Q544 -363 520 -362T467 -355V-263Z" />
<glyph unicode="&#xc8;" glyph-name="Egrave" horiz-adv-x="1119" d="M60 117H216V1035H60V1153H1031V832H900V1035H375V655H737V769H837V410H736V526H377V117H902V328H1031V0H60V117ZM593 1262L406 1519H613L712 1262H593Z" />
<glyph unicode="&#xc9;" glyph-name="Eacute" horiz-adv-x="1119" d="M60 117H216V1035H60V1153H1031V832H900V1035H375V655H737V769H837V410H736V526H377V117H902V328H1031V0H60V117ZM406 1262L505 1519H712L525 1262H406Z" />
<glyph unicode="&#xca;" glyph-name="Ecircumflex" horiz-adv-x="1119" d="M60 117H216V1035H60V1153H1031V832H900V1035H375V655H737V769H837V410H736V526H377V117H902V328H1031V0H60V117ZM321 1244L419 1519H694L798 1244H650L557 1474L464 1244H321Z" />
<glyph unicode="&#xcb;" glyph-name="Edieresis" horiz-adv-x="1119" d="M60 117H216V1035H60V1153H1031V832H900V1035H375V655H737V769H837V410H736V526H377V117H902V328H1031V0H60V117ZM792 1449V1296H640V1449H792ZM481 1449V1296H327V1449H481Z" />
<glyph unicode="&#xcc;" glyph-name="Igrave" horiz-adv-x="581" d="M75 117H209V1035H75V1153H503V1035H371V117H503V0H75V117ZM324 1262L137 1519H344L443 1262H324Z" />
<glyph unicode="&#xcd;" glyph-name="Iacute" horiz-adv-x="581" d="M75 117H209V1035H75V1153H503V1035H371V117H503V0H75V117ZM139 1262L238 1519H445L258 1262H139Z" />
<glyph unicode="&#xce;" glyph-name="Icircumflex" horiz-adv-x="581" d="M75 117H209V1035H75V1153H503V1035H371V117H503V0H75V117ZM53 1244L151 1519H426L530 1244H382L289 1474L196 1244H53Z" />
<glyph unicode="&#xcf;" glyph-name="Idieresis" horiz-adv-x="581" d="M75 117H209V1035H75V1153H503V1035H371V117H503V0H75V117ZM523 1449V1296H371V1449H523ZM212 1449V1296H58V1449H212Z" />
<glyph unicode="&#xd0;" glyph-name="Eth" horiz-adv-x="1273" d="M59 125H218V506H61V650H218V1026H59V1153H613Q727 1153 815 1130T968 1067T1077 972T1149 854T1187 723T1199 587Q1199 454 1166 346T1060 161T874 42T599 0H59V125ZM380 650H578V506H380V125H605Q731
125 814 161T945 260T1014 405T1034 581Q1034 676 1012 757T939 898T807 992T609 1026H380V650Z" />
<glyph unicode="&#xd1;" glyph-name="Ntilde" horiz-adv-x="1322" d="M56 117H225V1035H56V1153H438L986 211V1035H821V1153H1293V1035H1120V0H937L359 997V117H528V0H56V117ZM356 1328Q361 1383 377 1422T416 1487T469 1525T532 1537Q570 1537 607 1526T680 1502T748
1478T810 1467Q872 1467 887 1532H965Q957 1432 911 1376T786 1319Q744 1319 706 1330T632 1354T565 1379T504 1390Q472 1390 457 1374T436 1328H356Z" />
<glyph unicode="&#xd2;" glyph-name="Ograve" horiz-adv-x="1321" d="M66 575Q66 700 107 809T224 998T411 1125T660 1171Q799 1171 909 1125T1097 998T1215 808T1256 575Q1256 451 1215 343T1097 154T910 28T660 -19Q521 -19 411 27T225 153T107 342T66 575ZM243
575Q243 480 272 397T357 252T488 153T660 117Q755 117 832 153T964 251T1048 397T1078 575Q1078 671 1049 755T965 901T833 999T660 1035Q565 1035 489 1000T357 902T273 755T243 575ZM694 1262L507 1519H714L813 1262H694Z" />
<glyph unicode="&#xd3;" glyph-name="Oacute" horiz-adv-x="1321" d="M66 575Q66 700 107 809T224 998T411 1125T660 1171Q799 1171 909 1125T1097 998T1215 808T1256 575Q1256 451 1215 343T1097 154T910 28T660 -19Q521 -19 411 27T225 153T107 342T66 575ZM243
575Q243 480 272 397T357 252T488 153T660 117Q755 117 832 153T964 251T1048 397T1078 575Q1078 671 1049 755T965 901T833 999T660 1035Q565 1035 489 1000T357 902T273 755T243 575ZM507 1262L606 1519H813L626 1262H507Z" />
<glyph unicode="&#xd4;" glyph-name="Ocircumflex" horiz-adv-x="1321" d="M66 575Q66 700 107 809T224 998T411 1125T660 1171Q799 1171 909 1125T1097 998T1215 808T1256 575Q1256 451 1215 343T1097 154T910 28T660 -19Q521 -19 411 27T225 153T107 342T66
575ZM243 575Q243 480 272 397T357 252T488 153T660 117Q755 117 832 153T964 251T1048 397T1078 575Q1078 671 1049 755T965 901T833 999T660 1035Q565 1035 489 1000T357 902T273 755T243 575ZM422 1244L520 1519H795L899 1244H751L658 1474L565 1244H422Z" />
<glyph unicode="&#xd5;" glyph-name="Otilde" horiz-adv-x="1321" d="M66 575Q66 700 107 809T224 998T411 1125T660 1171Q799 1171 909 1125T1097 998T1215 808T1256 575Q1256 451 1215 343T1097 154T910 28T660 -19Q521 -19 411 27T225 153T107 342T66 575ZM243
575Q243 480 272 397T357 252T488 153T660 117Q755 117 832 153T964 251T1048 397T1078 575Q1078 671 1049 755T965 901T833 999T660 1035Q565 1035 489 1000T357 902T273 755T243 575ZM356 1328Q361 1383 377 1422T416 1487T469 1525T532 1537Q570 1537 607 1526T680
1502T748 1478T810 1467Q872 1467 887 1532H965Q957 1432 911 1376T786 1319Q744 1319 706 1330T632 1354T565 1379T504 1390Q472 1390 457 1374T436 1328H356Z" />
<glyph unicode="&#xd6;" glyph-name="Odieresis" horiz-adv-x="1321" d="M66 575Q66 700 107 809T224 998T411 1125T660 1171Q799 1171 909 1125T1097 998T1215 808T1256 575Q1256 451 1215 343T1097 154T910 28T660 -19Q521 -19 411 27T225 153T107 342T66 575ZM243
575Q243 480 272 397T357 252T488 153T660 117Q755 117 832 153T964 251T1048 397T1078 575Q1078 671 1049 755T965 901T833 999T660 1035Q565 1035 489 1000T357 902T273 755T243 575ZM893 1449V1296H741V1449H893ZM582 1449V1296H428V1449H582Z" />
<glyph unicode="&#xd7;" glyph-name="multiply" horiz-adv-x="929" d="M390 434L180 644L263 727L473 517L684 727L767 644L556 434L767 225L683 143L473 352L264 143L180 225L390 434Z" />
<glyph unicode="&#xd8;" glyph-name="Oslash" horiz-adv-x="1320" d="M65 575Q65 700 106 809T223 998T410 1125T659 1171Q784 1171 893 1130L947 1235L1041 1192L987 1084Q1050 1045 1100 992T1184 873T1237 732T1255 575Q1255 451 1214 343T1096 154T909 28T659
-19Q536 -19 444 15L389 -92L295 -49L348 57Q280 94 228 148T139 269T84 413T65 575ZM242 575Q242 454 287 356T418 194L828 1002Q756 1036 659 1036Q564 1036 488 1000T356 902T272 756T242 575ZM1077 575Q1077 690 1035 787T917 947L509 144Q582 118 659 118Q754
118 831 154T963 252T1047 397T1077 575Z" />
<glyph unicode="&#xd9;" glyph-name="Ugrave" horiz-adv-x="1211" d="M34 1035V1153H486V1035H344V378Q344 314 357 266T401 184T481 134T602 117Q678 117 729 135T811 187T855 273T868 389V1035H726V1153H1177V1035H1028Q1028 916 1028 806T1029 607T1029 458T1030
380Q1030 272 997 197T906 73T774 4T614 -18Q480 -18 396 16T265 105T200 233T182 382Q182 388 182 419T182 496T183 600T183 717T184 831T184 928V1035H34ZM639 1262L452 1519H659L758 1262H639Z" />
<glyph unicode="&#xda;" glyph-name="Uacute" horiz-adv-x="1211" d="M34 1035V1153H486V1035H344V378Q344 314 357 266T401 184T481 134T602 117Q678 117 729 135T811 187T855 273T868 389V1035H726V1153H1177V1035H1028Q1028 916 1028 806T1029 607T1029 458T1030
380Q1030 272 997 197T906 73T774 4T614 -18Q480 -18 396 16T265 105T200 233T182 382Q182 388 182 419T182 496T183 600T183 717T184 831T184 928V1035H34ZM452 1262L551 1519H758L571 1262H452Z" />
<glyph unicode="&#xdb;" glyph-name="Ucircumflex" horiz-adv-x="1211" d="M34 1035V1153H486V1035H344V378Q344 314 357 266T401 184T481 134T602 117Q678 117 729 135T811 187T855 273T868 389V1035H726V1153H1177V1035H1028Q1028 916 1028 806T1029 607T1029
458T1030 380Q1030 272 997 197T906 73T774 4T614 -18Q480 -18 396 16T265 105T200 233T182 382Q182 388 182 419T182 496T183 600T183 717T184 831T184 928V1035H34ZM367 1244L465 1519H740L844 1244H696L603 1474L510 1244H367Z" />
<glyph unicode="&#xdc;" glyph-name="Udieresis" horiz-adv-x="1211" d="M34 1035V1153H486V1035H344V378Q344 314 357 266T401 184T481 134T602 117Q678 117 729 135T811 187T855 273T868 389V1035H726V1153H1177V1035H1028Q1028 916 1028 806T1029 607T1029
458T1030 380Q1030 272 997 197T906 73T774 4T614 -18Q480 -18 396 16T265 105T200 233T182 382Q182 388 182 419T182 496T183 600T183 717T184 831T184 928V1035H34ZM838 1449V1296H686V1449H838ZM527 1449V1296H373V1449H527Z" />
<glyph unicode="&#xdd;" glyph-name="Yacute" horiz-adv-x="1130" d="M327 117H486V530L128 1035H-18V1153H454V1035H304L578 648L835 1035H685V1153H1145V1035H989L646 530V117H810V0H327V117ZM412 1262L511 1519H718L531 1262H412Z" />
<glyph unicode="&#xde;" glyph-name="Thorn" horiz-adv-x="1030" d="M63 125H214V1026H63V1153H374V1001H596Q716 1001 792 969T913 886T975 773T992 653Q992 547 957 479T860 371T711 316T522 300H376V125H534V0H63V125ZM374 425H552Q633 425 686 442T771 491T814
564T827 655Q827 764 769 819T601 874H374V425Z" />
<glyph unicode="&#xdf;" glyph-name="germandbls" horiz-adv-x="1114" d="M493 125V0H72V125H222V786Q222 877 245 948T315 1069T435 1145T606 1171Q678 1171 736 1151T837 1093T902 1004T925 889Q925 802 883 736T748 641Q815 630 868 604T959 540T1015 453T1035
346Q1035 271 1012 208T938 98T807 26T613 0V125Q669 125 719 134T807 168T867 236T889 346Q889 392 873 432T819 503T722 551T573 569V675Q630 675 670 692T735 739T771 804T782 879Q782 917 770 948T734 1001T679 1036T606 1048Q551 1048 506 1035T429 990T380
910T362 790V125H493Z" />
<glyph unicode="&#xe0;" glyph-name="agrave" horiz-adv-x="889" d="M102 708Q156 762 236 791T419 820Q513 820 576 798T676 738T728 653T744 554V107H888V0H611L609 83Q569 54 534 35T466 4T398 -13T327 -18Q264 -18 214 1T128 53T74 127T55 216Q55 291 82 340T157
418T267 458T402 470Q450 470 497 465T595 450V547Q595 589 581 618T541 666T481 692T409 701Q340 701 285 679T194 610L102 708ZM595 352Q563 353 515 360T412 368Q373 368 334 363T265 341T215 295T196 216Q196 190 206 167T235 126T283 99T348 89Q381 89 415
95T481 112T543 140T595 178V352ZM478 914L291 1171H498L597 914H478Z" />
<glyph unicode="&#xe1;" glyph-name="aacute" horiz-adv-x="889" d="M102 708Q156 762 236 791T419 820Q513 820 576 798T676 738T728 653T744 554V107H888V0H611L609 83Q569 54 534 35T466 4T398 -13T327 -18Q264 -18 214 1T128 53T74 127T55 216Q55 291 82 340T157
418T267 458T402 470Q450 470 497 465T595 450V547Q595 589 581 618T541 666T481 692T409 701Q340 701 285 679T194 610L102 708ZM595 352Q563 353 515 360T412 368Q373 368 334 363T265 341T215 295T196 216Q196 190 206 167T235 126T283 99T348 89Q381 89 415
95T481 112T543 140T595 178V352ZM291 914L390 1171H597L410 914H291Z" />
<glyph unicode="&#xe2;" glyph-name="acircumflex" horiz-adv-x="889" d="M102 708Q156 762 236 791T419 820Q513 820 576 798T676 738T728 653T744 554V107H888V0H611L609 83Q569 54 534 35T466 4T398 -13T327 -18Q264 -18 214 1T128 53T74 127T55 216Q55 291
82 340T157 418T267 458T402 470Q450 470 497 465T595 450V547Q595 589 581 618T541 666T481 692T409 701Q340 701 285 679T194 610L102 708ZM595 352Q563 353 515 360T412 368Q373 368 334 363T265 341T215 295T196 216Q196 190 206 167T235 126T283 99T348 89Q381
89 415 95T481 112T543 140T595 178V352ZM206 896L304 1171H579L683 896H535L442 1126L349 896H206Z" />
<glyph unicode="&#xe3;" glyph-name="atilde" horiz-adv-x="889" d="M102 708Q156 762 236 791T419 820Q513 820 576 798T676 738T728 653T744 554V107H888V0H611L609 83Q569 54 534 35T466 4T398 -13T327 -18Q264 -18 214 1T128 53T74 127T55 216Q55 291 82 340T157
418T267 458T402 470Q450 470 497 465T595 450V547Q595 589 581 618T541 666T481 692T409 701Q340 701 285 679T194 610L102 708ZM595 352Q563 353 515 360T412 368Q373 368 334 363T265 341T215 295T196 216Q196 190 206 167T235 126T283 99T348 89Q381 89 415
95T481 112T543 140T595 178V352ZM140 980Q145 1035 161 1074T200 1139T253 1177T316 1189Q354 1189 391 1178T464 1154T532 1130T594 1119Q656 1119 671 1184H749Q741 1084 695 1028T570 971Q528 971 490 982T416 1006T349 1031T288 1042Q256 1042 241 1026T220
980H140Z" />
<glyph unicode="&#xe4;" glyph-name="adieresis" horiz-adv-x="889" d="M102 708Q156 762 236 791T419 820Q513 820 576 798T676 738T728 653T744 554V107H888V0H611L609 83Q569 54 534 35T466 4T398 -13T327 -18Q264 -18 214 1T128 53T74 127T55 216Q55 291 82
340T157 418T267 458T402 470Q450 470 497 465T595 450V547Q595 589 581 618T541 666T481 692T409 701Q340 701 285 679T194 610L102 708ZM595 352Q563 353 515 360T412 368Q373 368 334 363T265 341T215 295T196 216Q196 190 206 167T235 126T283 99T348 89Q381
89 415 95T481 112T543 140T595 178V352ZM677 1101V948H525V1101H677ZM366 1101V948H212V1101H366Z" />
<glyph unicode="&#xe5;" glyph-name="aring" horiz-adv-x="889" d="M102 708Q156 762 236 791T419 820Q513 820 576 798T676 738T728 653T744 554V107H888V0H611L609 83Q569 54 534 35T466 4T398 -13T327 -18Q264 -18 214 1T128 53T74 127T55 216Q55 291 82 340T157
418T267 458T402 470Q450 470 497 465T595 450V547Q595 589 581 618T541 666T481 692T409 701Q340 701 285 679T194 610L102 708ZM595 352Q563 353 515 360T412 368Q373 368 334 363T265 341T215 295T196 216Q196 190 206 167T235 126T283 99T348 89Q381 89 415
95T481 112T543 140T595 178V352ZM444 1201Q479 1201 510 1189T564 1156T600 1105T613 1042Q613 1008 600 979T564 928T510 894T444 881Q409 881 378 893T325 927T289 978T276 1042Q276 1076 289 1105T324 1155T378 1189T444 1201ZM444 1140Q422 1140 403 1133T370
1112T347 1081T339 1042Q339 1021 347 1003T369 972T403 951T444 943Q466 943 485 950T518 971T540 1003T548 1042Q548 1063 540 1081T518 1112T485 1132T444 1140Z" />
<glyph unicode="&#xe6;" glyph-name="ae" horiz-adv-x="1453" d="M327 -14Q264 -14 214 5T128 57T74 132T55 221Q55 293 82 341T157 417T267 458T402 470Q450 470 497 465T595 450V547Q595 591 580 622T537 672T475 700T399 709Q273 709 214 626L74 665Q120 744
205 785T419 827Q477 827 522 816T602 786T661 739T702 680Q760 749 837 788T1012 827Q1107 827 1178 791T1298 694T1370 552T1394 382V363L759 365Q766 307 785 259T837 175T915 121T1019 101Q1094 101 1159 131T1266 217L1394 161Q1339 73 1243 25T1016 -23Q910
-23 829 10T687 103Q640 74 598 52T513 16T425 -6T327 -14ZM1251 467Q1243 516 1224 561T1176 639T1106 693T1014 713Q960 713 917 695T842 643T790 565T763 467H1251ZM595 352Q563 353 515 360T412 368Q373 368 334 363T265 341T215 296T196 221Q196 167 234 132T348
96Q381 96 415 102T481 118T543 144T595 178V352Z" />
<glyph unicode="&#xe7;" glyph-name="ccedilla" horiz-adv-x="899" d="M829 157Q775 75 683 28T464 -19Q354 -19 277 19T151 118T80 252T57 398Q57 490 87 567T172 701T300 788T463 820Q510 820 548 809T616 782T665 747T691 713L687 805H820V517H691Q683 553
667 585T625 641T560 680T471 694Q347 694 282 616T216 400Q216 334 232 280T280 188T359 128T468 107Q553 107 624 142T740 246L829 157ZM292 -263Q315 -267 336 -269T378 -271Q420 -271 446 -259T473 -218Q473 -193 447 -179T375 -160L433 5H505L478 -119Q538
-126 572 -151T606 -218Q606 -244 595 -270T559 -316T493 -350T392 -363Q369 -363 345 -362T292 -355V-263Z" />
<glyph unicode="&#xe8;" glyph-name="egrave" horiz-adv-x="955" d="M219 365Q222 307 243 260T301 178T389 126T506 107Q545 107 583 116T655 141T718 181T767 233L869 157Q818 79 728 31T502 -18Q398 -18 315 15T175 105T86 238T55 402Q55 493 89 570T182 702T322
789T498 820Q597 820 672 785T797 689T873 549T898 382V365H219ZM754 467Q748 516 728 557T676 629T600 677T500 694Q439 694 392 678T310 632T254 560T223 467H754ZM511 914L324 1171H531L630 914H511Z" />
<glyph unicode="&#xe9;" glyph-name="eacute" horiz-adv-x="955" d="M219 365Q222 307 243 260T301 178T389 126T506 107Q545 107 583 116T655 141T718 181T767 233L869 157Q818 79 728 31T502 -18Q398 -18 315 15T175 105T86 238T55 402Q55 493 89 570T182 702T322
789T498 820Q597 820 672 785T797 689T873 549T898 382V365H219ZM754 467Q748 516 728 557T676 629T600 677T500 694Q439 694 392 678T310 632T254 560T223 467H754ZM324 914L423 1171H630L443 914H324Z" />
<glyph unicode="&#xea;" glyph-name="ecircumflex" horiz-adv-x="955" d="M219 365Q222 307 243 260T301 178T389 126T506 107Q545 107 583 116T655 141T718 181T767 233L869 157Q818 79 728 31T502 -18Q398 -18 315 15T175 105T86 238T55 402Q55 493 89 570T182
702T322 789T498 820Q597 820 672 785T797 689T873 549T898 382V365H219ZM754 467Q748 516 728 557T676 629T600 677T500 694Q439 694 392 678T310 632T254 560T223 467H754ZM239 896L337 1171H612L716 896H568L475 1126L382 896H239Z" />
<glyph unicode="&#xeb;" glyph-name="edieresis" horiz-adv-x="955" d="M219 365Q222 307 243 260T301 178T389 126T506 107Q545 107 583 116T655 141T718 181T767 233L869 157Q818 79 728 31T502 -18Q398 -18 315 15T175 105T86 238T55 402Q55 493 89 570T182
702T322 789T498 820Q597 820 672 785T797 689T873 549T898 382V365H219ZM754 467Q748 516 728 557T676 629T600 677T500 694Q439 694 392 678T310 632T254 560T223 467H754ZM710 1101V948H558V1101H710ZM399 1101V948H245V1101H399Z" />
<glyph unicode="&#xec;" glyph-name="igrave" horiz-adv-x="509" d="M105 941L-82 1198H125L224 941H105ZM59 113H194V689H59V805H343V113H479V0H59V113Z" />
<glyph unicode="&#xed;" glyph-name="iacute" horiz-adv-x="509" d="M191 941L290 1198H497L310 941H191ZM59 113H194V689H59V805H343V113H479V0H59V113Z" />
<glyph unicode="&#xee;" glyph-name="icircumflex" horiz-adv-x="509" d="M219 925L317 1200H592L696 925H548L455 1155L362 925H219ZM59 113H194V689H59V805H343V113H479V0H59V113Z" />
<glyph unicode="&#xef;" glyph-name="idieresis" horiz-adv-x="509" d="M695 1346V1193H543V1346H695ZM384 1346V1193H230V1346H384ZM59 113H194V689H59V805H343V113H479V0H59V113Z" />
<glyph unicode="&#xf0;" glyph-name="eth" horiz-adv-x="932" d="M122 1052Q171 1109 247 1140T424 1171Q545 1171 628 1119T763 969L946 1006L967 905L804 872Q846 743 846 568Q846 427 820 318T742 134T613 20T433 -19Q346 -19 278 11T162 93T89 215T64 367Q64
442 88 506T158 618T266 691T407 718Q450 718 492 711T573 689T645 655T702 607Q702 679 695 738T673 846L460 804L440 905L630 943Q600 1001 546 1026T429 1051Q394 1051 359 1044T293 1025T234 997T188 961L122 1052ZM696 457Q667 490 632 513T559 552T487 575T424
583Q371 583 330 566T261 519T218 448T203 358Q203 305 218 259T263 179T337 126T439 106Q502 106 547 128T622 195T670 304T696 457Z" />
<glyph unicode="&#xf1;" glyph-name="ntilde" horiz-adv-x="1031" d="M63 107H206V694H57V805H353L357 701Q434 761 500 790T640 820Q695 820 738 802T812 750T859 669T875 562L874 107H1019V0H617V107H727V507Q727 595 700 644T602 694Q533 694 472 658T357 570V107H502V0H63V107ZM211
980Q216 1035 232 1074T271 1139T324 1177T387 1189Q425 1189 462 1178T535 1154T603 1130T665 1119Q727 1119 742 1184H820Q812 1084 766 1028T641 971Q599 971 561 982T487 1006T420 1031T359 1042Q327 1042 312 1026T291 980H211Z" />
<glyph unicode="&#xf2;" glyph-name="ograve" horiz-adv-x="966" d="M482 107Q544 107 593 129T678 191T731 285T750 402Q750 463 732 516T678 609T594 671T482 694Q420 694 371 672T288 610T235 517T216 402Q216 339 234 285T287 192T371 130T482 107ZM482 -18Q384
-18 306 15T172 105T87 238T57 402Q57 489 87 565T172 698T307 787T484 820Q581 820 660 788T794 698T880 565T910 402Q910 315 880 239T794 105T659 15T482 -18ZM517 914L330 1171H537L636 914H517Z" />
<glyph unicode="&#xf3;" glyph-name="oacute" horiz-adv-x="966" d="M482 107Q544 107 593 129T678 191T731 285T750 402Q750 463 732 516T678 609T594 671T482 694Q420 694 371 672T288 610T235 517T216 402Q216 339 234 285T287 192T371 130T482 107ZM482 -18Q384
-18 306 15T172 105T87 238T57 402Q57 489 87 565T172 698T307 787T484 820Q581 820 660 788T794 698T880 565T910 402Q910 315 880 239T794 105T659 15T482 -18ZM330 914L429 1171H636L449 914H330Z" />
<glyph unicode="&#xf4;" glyph-name="ocircumflex" horiz-adv-x="966" d="M482 107Q544 107 593 129T678 191T731 285T750 402Q750 463 732 516T678 609T594 671T482 694Q420 694 371 672T288 610T235 517T216 402Q216 339 234 285T287 192T371 130T482 107ZM482
-18Q384 -18 306 15T172 105T87 238T57 402Q57 489 87 565T172 698T307 787T484 820Q581 820 660 788T794 698T880 565T910 402Q910 315 880 239T794 105T659 15T482 -18ZM244 896L342 1171H617L721 896H573L480 1126L387 896H244Z" />
<glyph unicode="&#xf5;" glyph-name="otilde" horiz-adv-x="966" d="M482 107Q544 107 593 129T678 191T731 285T750 402Q750 463 732 516T678 609T594 671T482 694Q420 694 371 672T288 610T235 517T216 402Q216 339 234 285T287 192T371 130T482 107ZM482 -18Q384
-18 306 15T172 105T87 238T57 402Q57 489 87 565T172 698T307 787T484 820Q581 820 660 788T794 698T880 565T910 402Q910 315 880 239T794 105T659 15T482 -18ZM178 980Q183 1035 199 1074T238 1139T291 1177T354 1189Q392 1189 429 1178T502 1154T570 1130T632
1119Q694 1119 709 1184H787Q779 1084 733 1028T608 971Q566 971 528 982T454 1006T387 1031T326 1042Q294 1042 279 1026T258 980H178Z" />
<glyph unicode="&#xf6;" glyph-name="odieresis" horiz-adv-x="966" d="M482 107Q544 107 593 129T678 191T731 285T750 402Q750 463 732 516T678 609T594 671T482 694Q420 694 371 672T288 610T235 517T216 402Q216 339 234 285T287 192T371 130T482 107ZM482
-18Q384 -18 306 15T172 105T87 238T57 402Q57 489 87 565T172 698T307 787T484 820Q581 820 660 788T794 698T880 565T910 402Q910 315 880 239T794 105T659 15T482 -18ZM715 1101V948H563V1101H715ZM404 1101V948H250V1101H404Z" />
<glyph unicode="&#xf7;" glyph-name="divide" horiz-adv-x="1164" d="M931 593V475H220V593H931ZM501 944H654V792H501V944ZM501 275H654V121H501V275Z" />
<glyph unicode="&#xf8;" glyph-name="oslash" horiz-adv-x="967" d="M482 -18Q444 -18 410 -13T344 1L279 -126L185 -83L250 43Q156 100 107 193T57 402Q57 489 87 565T172 698T307 787T484 820Q567 820 636 796L702 926L796 883L728 751Q816 694 863 604T910
402Q910 315 880 239T794 105T659 15T482 -18ZM216 402Q216 327 240 267T313 166L575 678Q536 694 482 694Q420 694 371 672T288 610T235 517T216 402ZM482 107Q544 107 593 129T678 191T731 285T750 402Q750 471 728 527T663 624L404 117Q435 107 482 107Z" />
<glyph unicode="&#xf9;" glyph-name="ugrave" horiz-adv-x="994" d="M678 0L673 100Q607 40 542 11T401 -18Q335 -18 288 1T211 57T166 144T152 261V694H32V805H304V268Q304 190 332 149T429 107Q499 107 562 147T673 250V694H528V805H824V107H970V0H678ZM531
914L344 1171H551L650 914H531Z" />
<glyph unicode="&#xfa;" glyph-name="uacute" horiz-adv-x="994" d="M678 0L673 100Q607 40 542 11T401 -18Q335 -18 288 1T211 57T166 144T152 261V694H32V805H304V268Q304 190 332 149T429 107Q499 107 562 147T673 250V694H528V805H824V107H970V0H678ZM344
914L443 1171H650L463 914H344Z" />
<glyph unicode="&#xfb;" glyph-name="ucircumflex" horiz-adv-x="994" d="M678 0L673 100Q607 40 542 11T401 -18Q335 -18 288 1T211 57T166 144T152 261V694H32V805H304V268Q304 190 332 149T429 107Q499 107 562 147T673 250V694H528V805H824V107H970V0H678ZM258
896L356 1171H631L735 896H587L494 1126L401 896H258Z" />
<glyph unicode="&#xfc;" glyph-name="udieresis" horiz-adv-x="994" d="M678 0L673 100Q607 40 542 11T401 -18Q335 -18 288 1T211 57T166 144T152 261V694H32V805H304V268Q304 190 332 149T429 107Q499 107 562 147T673 250V694H528V805H824V107H970V0H678ZM729
1101V948H577V1101H729ZM418 1101V948H264V1101H418Z" />
<glyph unicode="&#xfd;" glyph-name="yacute" horiz-adv-x="982" d="M136 -108H247V-187Q280 -187 306 -185T355 -168T398 -125T439 -42L483 70H388L124 694H-1V805H405V694H297L499 162H519L605 432L680 694H565V805H978V694H849L633 36Q604 -53 573 -119T500
-230T400 -297T259 -319Q234 -319 201 -317T136 -309V-108ZM338 914L437 1171H644L457 914H338Z" />
<glyph unicode="&#xfe;" glyph-name="thorn" horiz-adv-x="1026" d="M24 -163H168V1032H25V1153H319V707Q382 765 453 792T615 820Q707 820 781 788T906 701T985 570T1013 410Q1013 321 985 243T906 107T780 16T614 -18Q570 -18 527 -10T445 15T373 56T318 111V-276H24V-163ZM582
107Q646 107 696 129T780 191T832 282T850 396Q850 456 832 510T778 605T692 670T579 694Q534 694 495 682T424 650T365 608T319 564V229Q340 209 367 188T428 148T499 119T582 107Z" />
<glyph unicode="&#xff;" glyph-name="ydieresis" horiz-adv-x="982" d="M136 -108H247V-187Q280 -187 306 -185T355 -168T398 -125T439 -42L483 70H388L124 694H-1V805H405V694H297L499 162H519L605 432L680 694H565V805H978V694H849L633 36Q604 -53 573 -119T500
-230T400 -297T259 -319Q234 -319 201 -317T136 -309V-108ZM723 1101V948H571V1101H723ZM412 1101V948H258V1101H412Z" />
<glyph unicode="&#x2013;" glyph-name="endash" horiz-adv-x="874" d="M874 117V0H0V117H874Z" />
<glyph unicode="&#x2014;" glyph-name="emdash" horiz-adv-x="1648" d="M1648 117V0H0V117H1648Z" />
<glyph unicode="&#x2018;" glyph-name="quoteleft" horiz-adv-x="382" d="M299 723H82V934Q82 991 93 1035T129 1110T196 1155T299 1171V1084Q267 1077 246 1067T212 1039T194 996T188 934H299V723Z" />
<glyph unicode="&#x2019;" glyph-name="quoteright" horiz-adv-x="364" d="M82 1153H299V942Q299 885 288 841T252 766T185 721T82 705V792Q113 799 134 809T169 837T187 880T193 942H82V1153Z" />
<glyph unicode="&#x201a;" glyph-name="quotesinglbase" horiz-adv-x="389" d="M82 211H299V0Q299 -57 288 -101T252 -176T185 -221T82 -237V-150Q113 -143 134 -133T169 -105T187 -62T193 0H82V211Z" />
<glyph unicode="&#x201c;" glyph-name="quotedblleft" horiz-adv-x="720" d="M632 723H415V934Q415 991 426 1035T462 1110T529 1155T632 1171V1084Q600 1077 579 1067T545 1039T527 996T521 934H632V723ZM299 723H82V934Q82 991 93 1035T129 1110T196 1155T299
1171V1084Q267 1077 246 1067T212 1039T194 996T188 934H299V723Z" />
<glyph unicode="&#x201d;" glyph-name="quotedblright" horiz-adv-x="704" d="M82 1153H299V942Q299 885 288 841T252 766T185 721T82 705V792Q113 799 134 809T169 837T187 880T193 942H82V1153ZM415 1153H632V942Q632 885 621 841T585 766T518 721T415 705V792Q446
799 467 809T502 837T520 880T526 942H415V1153Z" />
<glyph unicode="&#x201e;" glyph-name="quotedblbase" horiz-adv-x="785" d="M481 211H698V0Q698 -57 687 -101T651 -176T584 -221T481 -237V-150Q512 -143 533 -133T568 -105T586 -62T592 0H481V211ZM82 211H299V0Q299 -57 288 -101T252 -176T185 -221T82 -237V-150Q113
-143 134 -133T169 -105T187 -62T193 0H82V211Z" />
<glyph unicode="&#x2022;" glyph-name="bullet" horiz-adv-x="559" d="M280 754Q322 754 358 739T422 699T465 638T481 562Q481 522 465 487T422 425T359 384T280 368Q238 368 202 383T138 425T96 486T80 562Q80 602 95 637T138 698T201 739T280 754Z" />
<glyph unicode="&#x2039;" glyph-name="guilsinglleft" horiz-adv-x="534" d="M468 0H325L61 418L325 837H468L210 418L468 0Z" />
<glyph unicode="&#x203a;" glyph-name="guilsinglright" horiz-adv-x="533" d="M65 837H208L472 418L208 0H65L323 418L65 837Z" />
</font>
</defs>
</svg>
