<?xml version="1.0" encoding="utf-8"?>
<!-- Generator: Adobe Illustrator 21.1.0, SVG Export Plug-In . SVG Version: 6.00 Build 0)  -->
<svg version="1.1" id="Layer_1" xmlns="http://www.w3.org/2000/svg" xmlns:xlink="http://www.w3.org/1999/xlink" x="0px" y="0px"
	 viewBox="0 0 125.6 164.3" style="enable-background:new 0 0 125.6 164.3;" xml:space="preserve">
<style type="text/css">
	.st0{fill:#FCC12D;}
	.st1{fill:#46E6F2;}
	.st2{fill:none;stroke:#231F20;stroke-width:3;stroke-linecap:round;stroke-linejoin:round;stroke-miterlimit:10;}
	.st3{fill:#FFFFFF;}
	.st4{fill:none;stroke:#FFFFFF;stroke-width:3;stroke-linecap:round;stroke-linejoin:round;stroke-miterlimit:10;}
</style>
<path id="XMLID_19_" class="st0" d="M106.9,71.7c0-24.2-20.9-43.5-45.7-40.7c-18.5,2.1-33.6,16.9-36,35.4
	c-1.5,11.5,1.9,22.2,8.3,30.4c7.3,9.4,11,21.2,11,33.2v1.7h42.8V130c0-12.4,4.4-24.2,11.7-34.1C104,89.1,106.9,80.8,106.9,71.7z"/>
<path id="XMLID_18_" class="st1" d="M86,142.7H45.6c-3,0-5.5-2.4-5.5-5.5l0,0c0-3,2.4-5.5,5.5-5.5H86c3,0,5.5,2.4,5.5,5.5l0,0
	C91.5,140.2,89,142.7,86,142.7z"/>
<path id="XMLID_17_" class="st1" d="M83,153.5H48.5c-2.8,0-5-2.3-5-5v-0.6c0-2.8,2.3-5,5-5H83c2.8,0,5,2.3,5,5v0.6
	C88.1,151.2,85.8,153.5,83,153.5z"/>
<path id="XMLID_16_" class="st1" d="M51.6,156.1v0.1c0,4.5,3.6,8.1,8.1,8.1h12.2c4.5,0,8.1-3.6,8.1-8.1v-0.1c0-1.4-1.2-2.6-2.6-2.6
	H54.2C52.8,153.5,51.6,154.7,51.6,156.1z"/>
<path id="XMLID_15_" class="st2" d="M103.8,68.6c0-24.2-20.9-43.5-45.7-40.7c-18.5,2.1-33.6,16.9-36,35.4
	c-1.5,11.5,1.9,22.2,8.3,30.4c7.3,9.4,11,21.2,11,33.2v1.7h42.8v-1.7c0-12.4,4.4-24.2,11.7-34.1C100.9,86,103.8,77.6,103.8,68.6z"/>
<path id="XMLID_14_" class="st2" d="M79.9,150.3H45.4c-2.8,0-5-2.3-5-5v-0.6c0-2.8,2.3-5,5-5h34.5c2.8,0,5,2.3,5,5v0.6
	C84.9,148.1,82.7,150.3,79.9,150.3z"/>
<path id="XMLID_13_" class="st2" d="M48.4,152.9v0.1c0,4.5,3.6,8.1,8.1,8.1h12.2c4.5,0,8.1-3.6,8.1-8.1v-0.1c0-1.4-1.2-2.6-2.6-2.6
	H51C49.6,150.3,48.4,151.5,48.4,152.9z"/>
<ellipse id="XMLID_12_" transform="matrix(0.6352 -0.7723 0.7723 0.6352 -25.3496 51.5277)" class="st3" cx="41.9" cy="52.6" rx="11.8" ry="6.9"/>
<polyline id="XMLID_11_" class="st4" points="71.9,90.7 62.8,127.8 53.8,90.7 "/>
<path id="XMLID_10_" class="st4" d="M46.5,86.2c4.1,0,4.1,3.4,8.1,3.4c4.1,0,4.1-3.4,8.1-3.4c4.1,0,4.1,3.4,8.1,3.4
	c4.1,0,4.1-3.4,8.1-3.4"/>
<line id="XMLID_9_" class="st2" x1="62.8" y1="17.2" x2="62.8" y2="1.5"/>
<line id="XMLID_8_" class="st2" x1="90.7" y1="20.9" x2="97.8" y2="6.9"/>
<line id="XMLID_7_" class="st2" x1="109.7" y1="36.6" x2="119.1" y2="30.4"/>
<line id="XMLID_6_" class="st2" x1="116.5" y1="58.5" x2="124.1" y2="57.3"/>
<line id="XMLID_5_" class="st2" x1="34.9" y1="20.9" x2="27.8" y2="6.9"/>
<line id="XMLID_4_" class="st2" x1="15.9" y1="36.6" x2="6.5" y2="30.4"/>
<line id="XMLID_3_" class="st2" x1="9.1" y1="58.5" x2="1.5" y2="57.3"/>
<path id="XMLID_2_" class="st2" d="M82.8,139.5H42.4c-3,0-5.5-2.4-5.5-5.5l0,0c0-3,2.4-5.5,5.5-5.5h40.4c3,0,5.5,2.4,5.5,5.5l0,0
	C88.3,137.1,85.8,139.5,82.8,139.5z"/>
</svg>
